<?xml version="1.0" encoding="UTF-8" standalone="no"?>
<!DOCTYPE svg PUBLIC "-//W3C//DTD SVG 1.1//EN"
 "http://www.w3.org/Graphics/SVG/1.1/DTD/svg11.dtd">
<!-- Generated by graphviz version 2.40.1 (20161225.0304)
 -->
<!-- Title: controllers_diagram Pages: 1 -->
<svg width="313pt" height="206pt"
 viewBox="0.00 0.00 312.64 206.00" xmlns="http://www.w3.org/2000/svg" xmlns:xlink="http://www.w3.org/1999/xlink">
<g id="graph0" class="graph" transform="scale(1 1) rotate(0) translate(4 202)">
<title>controllers_diagram</title>
<polygon fill="transparent" stroke="transparent" points="-4,4 -4,-202 308.6416,-202 308.6416,4 -4,4"/>
<!-- _diagram_info -->
<g id="node1" class="node">
<title>_diagram_info</title>
<text text-anchor="start" x="8" y="-58.6" font-family="Times,serif" font-size="13.00" fill="#000000">Controllers diagram</text>
<text text-anchor="start" x="8" y="-45.6" font-family="Times,serif" font-size="13.00" fill="#000000">Date: Dec 25 2017 &#45; 09:07</text>
<text text-anchor="start" x="8" y="-32.6" font-family="Times,serif" font-size="13.00" fill="#000000">Migration version: 20171224080730</text>
<text text-anchor="start" x="8" y="-19.6" font-family="Times,serif" font-size="13.00" fill="#000000">Generated by RailRoady 1.5.3</text>
<text text-anchor="start" x="8" y="-6.6" font-family="Times,serif" font-size="13.00" fill="#000000">http://railroady.prestonlee.com</text>
</g>
<!-- ApplicationController -->
<g id="node2" class="node">
<title>ApplicationController</title>
<path fill="none" stroke="#000000" d="M177,-105.5C177,-105.5 292.6416,-105.5 292.6416,-105.5 298.6416,-105.5 304.6416,-111.5 304.6416,-117.5 304.6416,-117.5 304.6416,-185.5 304.6416,-185.5 304.6416,-191.5 298.6416,-197.5 292.6416,-197.5 292.6416,-197.5 177,-197.5 177,-197.5 171,-197.5 165,-191.5 165,-185.5 165,-185.5 165,-117.5 165,-117.5 165,-111.5 171,-105.5 177,-105.5"/>
<text text-anchor="middle" x="234.8208" y="-182.3" font-family="Times,serif" font-size="14.00" fill="#000000">ApplicationController</text>
<polyline fill="none" stroke="#000000" points="165,-175.5 304.6416,-175.5 "/>
<polyline fill="none" stroke="#000000" points="165,-151.5 304.6416,-151.5 "/>
<polyline fill="none" stroke="#000000" points="165,-127.5 304.6416,-127.5 "/>
<text text-anchor="start" x="173" y="-112.3" font-family="Times,serif" font-size="14.00" fill="#000000">_layout</text>
</g>
</g>
</svg>
