<?xml version="1.0" encoding="UTF-8" standalone="no"?>
<!DOCTYPE svg PUBLIC "-//W3C//DTD SVG 1.1//EN"
 "http://www.w3.org/Graphics/SVG/1.1/DTD/svg11.dtd">
<!-- Generated by graphviz version 2.40.1 (20161225.0304)
 -->
<!-- Title: controllers_diagram Pages: 1 -->
<svg width="636pt" height="607pt"
 viewBox="0.00 0.00 636.21 607.00" xmlns="http://www.w3.org/2000/svg" xmlns:xlink="http://www.w3.org/1999/xlink">
<g id="graph0" class="graph" transform="scale(1 1) rotate(0) translate(4 603)">
<title>controllers_diagram</title>
<polygon fill="transparent" stroke="transparent" points="-4,4 -4,-603 632.2139,-603 632.2139,4 -4,4"/>
<!-- _diagram_info -->
<g id="node1" class="node">
<title>_diagram_info</title>
<text text-anchor="start" x="392" y="-458.6" font-family="Times,serif" font-size="13.00" fill="#000000">Controllers diagram</text>
<text text-anchor="start" x="392" y="-445.6" font-family="Times,serif" font-size="13.00" fill="#000000">Date: May 09 2018 &#45; 22:52</text>
<text text-anchor="start" x="392" y="-432.6" font-family="Times,serif" font-size="13.00" fill="#000000">Migration version: 20180509142140</text>
<text text-anchor="start" x="392" y="-419.6" font-family="Times,serif" font-size="13.00" fill="#000000">Generated by RailRoady 1.5.3</text>
<text text-anchor="start" x="392" y="-406.6" font-family="Times,serif" font-size="13.00" fill="#000000">http://railroady.prestonlee.com</text>
</g>
<!-- ApplicationController -->
<g id="node2" class="node">
<title>ApplicationController</title>
<path fill="none" stroke="#000000" d="M332,-32.5C332,-32.5 447.6416,-32.5 447.6416,-32.5 453.6416,-32.5 459.6416,-38.5 459.6416,-44.5 459.6416,-44.5 459.6416,-138.5 459.6416,-138.5 459.6416,-144.5 453.6416,-150.5 447.6416,-150.5 447.6416,-150.5 332,-150.5 332,-150.5 326,-150.5 320,-144.5 320,-138.5 320,-138.5 320,-44.5 320,-44.5 320,-38.5 326,-32.5 332,-32.5"/>
<text text-anchor="middle" x="389.8208" y="-135.3" font-family="Times,serif" font-size="14.00" fill="#000000">ApplicationController</text>
<polyline fill="none" stroke="#000000" points="320,-128.5 459.6416,-128.5 "/>
<text text-anchor="start" x="328" y="-113.3" font-family="Times,serif" font-size="14.00" fill="#000000">check_session</text>
<text text-anchor="start" x="328" y="-99.3" font-family="Times,serif" font-size="14.00" fill="#000000">current_account</text>
<text text-anchor="start" x="328" y="-85.3" font-family="Times,serif" font-size="14.00" fill="#000000">current_user</text>
<polyline fill="none" stroke="#000000" points="320,-78.5 459.6416,-78.5 "/>
<polyline fill="none" stroke="#000000" points="320,-54.5 459.6416,-54.5 "/>
<text text-anchor="start" x="328" y="-39.3" font-family="Times,serif" font-size="14.00" fill="#000000">_layout</text>
</g>
<!-- VariantsController -->
<g id="node3" class="node">
<title>VariantsController</title>
<path fill="none" stroke="#000000" d="M188,-144.5C188,-144.5 283.4209,-144.5 283.4209,-144.5 289.4209,-144.5 295.4209,-150.5 295.4209,-156.5 295.4209,-156.5 295.4209,-334.5 295.4209,-334.5 295.4209,-340.5 289.4209,-346.5 283.4209,-346.5 283.4209,-346.5 188,-346.5 188,-346.5 182,-346.5 176,-340.5 176,-334.5 176,-334.5 176,-156.5 176,-156.5 176,-150.5 182,-144.5 188,-144.5"/>
<text text-anchor="middle" x="235.7104" y="-331.3" font-family="Times,serif" font-size="14.00" fill="#000000">VariantsController</text>
<polyline fill="none" stroke="#000000" points="176,-324.5 295.4209,-324.5 "/>
<text text-anchor="start" x="184" y="-309.3" font-family="Times,serif" font-size="14.00" fill="#000000">create</text>
<text text-anchor="start" x="184" y="-295.3" font-family="Times,serif" font-size="14.00" fill="#000000">destroy</text>
<text text-anchor="start" x="184" y="-281.3" font-family="Times,serif" font-size="14.00" fill="#000000">edit</text>
<text text-anchor="start" x="184" y="-267.3" font-family="Times,serif" font-size="14.00" fill="#000000">index</text>
<text text-anchor="start" x="184" y="-253.3" font-family="Times,serif" font-size="14.00" fill="#000000">new</text>
<text text-anchor="start" x="184" y="-239.3" font-family="Times,serif" font-size="14.00" fill="#000000">show</text>
<text text-anchor="start" x="184" y="-225.3" font-family="Times,serif" font-size="14.00" fill="#000000">update</text>
<polyline fill="none" stroke="#000000" points="176,-218.5 295.4209,-218.5 "/>
<polyline fill="none" stroke="#000000" points="176,-194.5 295.4209,-194.5 "/>
<text text-anchor="start" x="184" y="-179.3" font-family="Times,serif" font-size="14.00" fill="#000000">_layout</text>
<text text-anchor="start" x="184" y="-165.3" font-family="Times,serif" font-size="14.00" fill="#000000">product</text>
<text text-anchor="start" x="184" y="-151.3" font-family="Times,serif" font-size="14.00" fill="#000000">variant_params</text>
</g>
<!-- PagesController -->
<g id="node4" class="node">
<title>PagesController</title>
<path fill="none" stroke="#000000" d="M508,-.5C508,-.5 590.207,-.5 590.207,-.5 596.207,-.5 602.207,-6.5 602.207,-12.5 602.207,-12.5 602.207,-78.5 602.207,-78.5 602.207,-84.5 596.207,-90.5 590.207,-90.5 590.207,-90.5 508,-90.5 508,-90.5 502,-90.5 496,-84.5 496,-78.5 496,-78.5 496,-12.5 496,-12.5 496,-6.5 502,-.5 508,-.5"/>
<text text-anchor="middle" x="549.1035" y="-75.3" font-family="Times,serif" font-size="14.00" fill="#000000">PagesController</text>
<polyline fill="none" stroke="#000000" points="496,-68.5 602.207,-68.5 "/>
<text text-anchor="start" x="504" y="-53.3" font-family="Times,serif" font-size="14.00" fill="#000000">dashboard</text>
<polyline fill="none" stroke="#000000" points="496,-46.5 602.207,-46.5 "/>
<polyline fill="none" stroke="#000000" points="496,-22.5 602.207,-22.5 "/>
<text text-anchor="start" x="504" y="-7.3" font-family="Times,serif" font-size="14.00" fill="#000000">_layout</text>
</g>
<!-- ProductsController -->
<g id="node5" class="node">
<title>ProductsController</title>
<path fill="none" stroke="#000000" d="M332,-176.5C332,-176.5 430.5449,-176.5 430.5449,-176.5 436.5449,-176.5 442.5449,-182.5 442.5449,-188.5 442.5449,-188.5 442.5449,-352.5 442.5449,-352.5 442.5449,-358.5 436.5449,-364.5 430.5449,-364.5 430.5449,-364.5 332,-364.5 332,-364.5 326,-364.5 320,-358.5 320,-352.5 320,-352.5 320,-188.5 320,-188.5 320,-182.5 326,-176.5 332,-176.5"/>
<text text-anchor="middle" x="381.2725" y="-349.3" font-family="Times,serif" font-size="14.00" fill="#000000">ProductsController</text>
<polyline fill="none" stroke="#000000" points="320,-342.5 442.5449,-342.5 "/>
<text text-anchor="start" x="328" y="-327.3" font-family="Times,serif" font-size="14.00" fill="#000000">create</text>
<text text-anchor="start" x="328" y="-313.3" font-family="Times,serif" font-size="14.00" fill="#000000">destroy</text>
<text text-anchor="start" x="328" y="-299.3" font-family="Times,serif" font-size="14.00" fill="#000000">edit</text>
<text text-anchor="start" x="328" y="-285.3" font-family="Times,serif" font-size="14.00" fill="#000000">index</text>
<text text-anchor="start" x="328" y="-271.3" font-family="Times,serif" font-size="14.00" fill="#000000">new</text>
<text text-anchor="start" x="328" y="-257.3" font-family="Times,serif" font-size="14.00" fill="#000000">show</text>
<text text-anchor="start" x="328" y="-243.3" font-family="Times,serif" font-size="14.00" fill="#000000">update</text>
<polyline fill="none" stroke="#000000" points="320,-236.5 442.5449,-236.5 "/>
<polyline fill="none" stroke="#000000" points="320,-212.5 442.5449,-212.5 "/>
<text text-anchor="start" x="328" y="-197.3" font-family="Times,serif" font-size="14.00" fill="#000000">_layout</text>
<text text-anchor="start" x="328" y="-183.3" font-family="Times,serif" font-size="14.00" fill="#000000">product_params</text>
</g>
<!-- UsersController -->
<g id="node6" class="node">
<title>UsersController</title>
<path fill="none" stroke="#000000" d="M188,-384.5C188,-384.5 269.4277,-384.5 269.4277,-384.5 275.4277,-384.5 281.4277,-390.5 281.4277,-396.5 281.4277,-396.5 281.4277,-574.5 281.4277,-574.5 281.4277,-580.5 275.4277,-586.5 269.4277,-586.5 269.4277,-586.5 188,-586.5 188,-586.5 182,-586.5 176,-580.5 176,-574.5 176,-574.5 176,-396.5 176,-396.5 176,-390.5 182,-384.5 188,-384.5"/>
<text text-anchor="middle" x="228.7139" y="-571.3" font-family="Times,serif" font-size="14.00" fill="#000000">UsersController</text>
<polyline fill="none" stroke="#000000" points="176,-564.5 281.4277,-564.5 "/>
<text text-anchor="start" x="184" y="-549.3" font-family="Times,serif" font-size="14.00" fill="#000000">create</text>
<text text-anchor="start" x="184" y="-535.3" font-family="Times,serif" font-size="14.00" fill="#000000">destroy</text>
<text text-anchor="start" x="184" y="-521.3" font-family="Times,serif" font-size="14.00" fill="#000000">edit</text>
<text text-anchor="start" x="184" y="-507.3" font-family="Times,serif" font-size="14.00" fill="#000000">index</text>
<text text-anchor="start" x="184" y="-493.3" font-family="Times,serif" font-size="14.00" fill="#000000">new</text>
<text text-anchor="start" x="184" y="-479.3" font-family="Times,serif" font-size="14.00" fill="#000000">show</text>
<text text-anchor="start" x="184" y="-465.3" font-family="Times,serif" font-size="14.00" fill="#000000">update</text>
<polyline fill="none" stroke="#000000" points="176,-458.5 281.4277,-458.5 "/>
<polyline fill="none" stroke="#000000" points="176,-434.5 281.4277,-434.5 "/>
<text text-anchor="start" x="184" y="-419.3" font-family="Times,serif" font-size="14.00" fill="#000000">_layout</text>
<text text-anchor="start" x="184" y="-405.3" font-family="Times,serif" font-size="14.00" fill="#000000">find_user</text>
<text text-anchor="start" x="184" y="-391.3" font-family="Times,serif" font-size="14.00" fill="#000000">user_params</text>
</g>
<!-- SessionsController -->
<g id="node7" class="node">
<title>SessionsController</title>
<path fill="none" stroke="#000000" d="M28,-256.5C28,-256.5 125.7793,-256.5 125.7793,-256.5 131.7793,-256.5 137.7793,-262.5 137.7793,-268.5 137.7793,-268.5 137.7793,-376.5 137.7793,-376.5 137.7793,-382.5 131.7793,-388.5 125.7793,-388.5 125.7793,-388.5 28,-388.5 28,-388.5 22,-388.5 16,-382.5 16,-376.5 16,-376.5 16,-268.5 16,-268.5 16,-262.5 22,-256.5 28,-256.5"/>
<text text-anchor="middle" x="76.8896" y="-373.3" font-family="Times,serif" font-size="14.00" fill="#000000">SessionsController</text>
<polyline fill="none" stroke="#000000" points="16,-366.5 137.7793,-366.5 "/>
<text text-anchor="start" x="24" y="-351.3" font-family="Times,serif" font-size="14.00" fill="#000000">create</text>
<text text-anchor="start" x="24" y="-337.3" font-family="Times,serif" font-size="14.00" fill="#000000">destroy</text>
<text text-anchor="start" x="24" y="-323.3" font-family="Times,serif" font-size="14.00" fill="#000000">new</text>
<polyline fill="none" stroke="#000000" points="16,-316.5 137.7793,-316.5 "/>
<polyline fill="none" stroke="#000000" points="16,-292.5 137.7793,-292.5 "/>
<text text-anchor="start" x="24" y="-277.3" font-family="Times,serif" font-size="14.00" fill="#000000">_layout</text>
<text text-anchor="start" x="24" y="-263.3" font-family="Times,serif" font-size="14.00" fill="#000000">sign_in_params</text>
</g>
<!-- Api::V1::ApiController -->
<g id="node8" class="node">
<title>Api::V1::ApiController</title>
<path fill="none" stroke="#000000" d="M492,-176.5C492,-176.5 616.2139,-176.5 616.2139,-176.5 622.2139,-176.5 628.2139,-182.5 628.2139,-188.5 628.2139,-188.5 628.2139,-258.5 628.2139,-258.5 628.2139,-264.5 622.2139,-270.5 616.2139,-270.5 616.2139,-270.5 492,-270.5 492,-270.5 486,-270.5 480,-264.5 480,-258.5 480,-258.5 480,-188.5 480,-188.5 480,-182.5 486,-176.5 492,-176.5"/>
<text text-anchor="middle" x="554.1069" y="-255.3" font-family="Times,serif" font-size="14.00" fill="#000000">Api::V1::ApiController</text>
<polyline fill="none" stroke="#000000" points="480,-248.5 628.2139,-248.5 "/>
<polyline fill="none" stroke="#000000" points="480,-224.5 628.2139,-224.5 "/>
<polyline fill="none" stroke="#000000" points="480,-200.5 628.2139,-200.5 "/>
</g>
<!-- Api::V1::AuthController -->
<g id="node9" class="node">
<title>Api::V1::AuthController</title>
<path fill="none" stroke="#000000" d="M12,-16.5C12,-16.5 143.2139,-16.5 143.2139,-16.5 149.2139,-16.5 155.2139,-22.5 155.2139,-28.5 155.2139,-28.5 155.2139,-94.5 155.2139,-94.5 155.2139,-100.5 149.2139,-106.5 143.2139,-106.5 143.2139,-106.5 12,-106.5 12,-106.5 6,-106.5 0,-100.5 0,-94.5 0,-94.5 0,-28.5 0,-28.5 0,-22.5 6,-16.5 12,-16.5"/>
<text text-anchor="middle" x="77.6069" y="-91.3" font-family="Times,serif" font-size="14.00" fill="#000000">Api::V1::AuthController</text>
<polyline fill="none" stroke="#000000" points="0,-84.5 155.2139,-84.5 "/>
<text text-anchor="start" x="8" y="-69.3" font-family="Times,serif" font-size="14.00" fill="#000000">sign_in</text>
<polyline fill="none" stroke="#000000" points="0,-62.5 155.2139,-62.5 "/>
<polyline fill="none" stroke="#000000" points="0,-38.5 155.2139,-38.5 "/>
<text text-anchor="start" x="8" y="-23.3" font-family="Times,serif" font-size="14.00" fill="#000000">sign_in_params</text>
</g>
<!-- AccountsController -->
<g id="node10" class="node">
<title>AccountsController</title>
<path fill="none" stroke="#000000" d="M28,-480.5C28,-480.5 130.4209,-480.5 130.4209,-480.5 136.4209,-480.5 142.4209,-486.5 142.4209,-492.5 142.4209,-492.5 142.4209,-586.5 142.4209,-586.5 142.4209,-592.5 136.4209,-598.5 130.4209,-598.5 130.4209,-598.5 28,-598.5 28,-598.5 22,-598.5 16,-592.5 16,-586.5 16,-586.5 16,-492.5 16,-492.5 16,-486.5 22,-480.5 28,-480.5"/>
<text text-anchor="middle" x="79.2104" y="-583.3" font-family="Times,serif" font-size="14.00" fill="#000000">AccountsController</text>
<polyline fill="none" stroke="#000000" points="16,-576.5 142.4209,-576.5 "/>
<text text-anchor="start" x="24" y="-561.3" font-family="Times,serif" font-size="14.00" fill="#000000">create</text>
<text text-anchor="start" x="24" y="-547.3" font-family="Times,serif" font-size="14.00" fill="#000000">new</text>
<polyline fill="none" stroke="#000000" points="16,-540.5 142.4209,-540.5 "/>
<polyline fill="none" stroke="#000000" points="16,-516.5 142.4209,-516.5 "/>
<text text-anchor="start" x="24" y="-501.3" font-family="Times,serif" font-size="14.00" fill="#000000">_layout</text>
<text text-anchor="start" x="24" y="-487.3" font-family="Times,serif" font-size="14.00" fill="#000000">sign_up_params</text>
</g>
</g>
</svg>
