<?xml version="1.0" encoding="UTF-8" standalone="no"?>
<!DOCTYPE svg PUBLIC "-//W3C//DTD SVG 1.1//EN"
 "http://www.w3.org/Graphics/SVG/1.1/DTD/svg11.dtd">
<!-- Generated by graphviz version 2.40.1 (20161225.0304)
 -->
<!-- Title: controllers_diagram Pages: 1 -->
<svg width="561pt" height="505pt"
 viewBox="0.00 0.00 561.21 505.00" xmlns="http://www.w3.org/2000/svg" xmlns:xlink="http://www.w3.org/1999/xlink">
<g id="graph0" class="graph" transform="scale(1 1) rotate(0) translate(4 501)">
<title>controllers_diagram</title>
<polygon fill="transparent" stroke="transparent" points="-4,4 -4,-501 557.2139,-501 557.2139,4 -4,4"/>
<!-- _diagram_info -->
<g id="node1" class="node">
<title>_diagram_info</title>
<text text-anchor="start" x="293" y="-178.6" font-family="Times,serif" font-size="13.00" fill="#000000">Controllers diagram</text>
<text text-anchor="start" x="293" y="-165.6" font-family="Times,serif" font-size="13.00" fill="#000000">Date: Apr 23 2018 &#45; 12:51</text>
<text text-anchor="start" x="293" y="-152.6" font-family="Times,serif" font-size="13.00" fill="#000000">Migration version: 20180417043130</text>
<text text-anchor="start" x="293" y="-139.6" font-family="Times,serif" font-size="13.00" fill="#000000">Generated by RailRoady 1.5.3</text>
<text text-anchor="start" x="293" y="-126.6" font-family="Times,serif" font-size="13.00" fill="#000000">http://railroady.prestonlee.com</text>
</g>
<!-- ApplicationController -->
<g id="node2" class="node">
<title>ApplicationController</title>
<path fill="none" stroke="#000000" d="M132,-330.5C132,-330.5 247.6416,-330.5 247.6416,-330.5 253.6416,-330.5 259.6416,-336.5 259.6416,-342.5 259.6416,-342.5 259.6416,-436.5 259.6416,-436.5 259.6416,-442.5 253.6416,-448.5 247.6416,-448.5 247.6416,-448.5 132,-448.5 132,-448.5 126,-448.5 120,-442.5 120,-436.5 120,-436.5 120,-342.5 120,-342.5 120,-336.5 126,-330.5 132,-330.5"/>
<text text-anchor="middle" x="189.8208" y="-433.3" font-family="Times,serif" font-size="14.00" fill="#000000">ApplicationController</text>
<polyline fill="none" stroke="#000000" points="120,-426.5 259.6416,-426.5 "/>
<text text-anchor="start" x="128" y="-411.3" font-family="Times,serif" font-size="14.00" fill="#000000">check_session</text>
<text text-anchor="start" x="128" y="-397.3" font-family="Times,serif" font-size="14.00" fill="#000000">current_account</text>
<text text-anchor="start" x="128" y="-383.3" font-family="Times,serif" font-size="14.00" fill="#000000">current_user</text>
<polyline fill="none" stroke="#000000" points="120,-376.5 259.6416,-376.5 "/>
<polyline fill="none" stroke="#000000" points="120,-352.5 259.6416,-352.5 "/>
<text text-anchor="start" x="128" y="-337.3" font-family="Times,serif" font-size="14.00" fill="#000000">_layout</text>
</g>
<!-- PagesController -->
<g id="node3" class="node">
<title>PagesController</title>
<path fill="none" stroke="#000000" d="M27,-60.5C27,-60.5 109.207,-60.5 109.207,-60.5 115.207,-60.5 121.207,-66.5 121.207,-72.5 121.207,-72.5 121.207,-138.5 121.207,-138.5 121.207,-144.5 115.207,-150.5 109.207,-150.5 109.207,-150.5 27,-150.5 27,-150.5 21,-150.5 15,-144.5 15,-138.5 15,-138.5 15,-72.5 15,-72.5 15,-66.5 21,-60.5 27,-60.5"/>
<text text-anchor="middle" x="68.1035" y="-135.3" font-family="Times,serif" font-size="14.00" fill="#000000">PagesController</text>
<polyline fill="none" stroke="#000000" points="15,-128.5 121.207,-128.5 "/>
<text text-anchor="start" x="23" y="-113.3" font-family="Times,serif" font-size="14.00" fill="#000000">dashboard</text>
<polyline fill="none" stroke="#000000" points="15,-106.5 121.207,-106.5 "/>
<polyline fill="none" stroke="#000000" points="15,-82.5 121.207,-82.5 "/>
<text text-anchor="start" x="23" y="-67.3" font-family="Times,serif" font-size="14.00" fill="#000000">_layout</text>
</g>
<!-- UsersController -->
<g id="node4" class="node">
<title>UsersController</title>
<path fill="none" stroke="#000000" d="M162,-90.5C162,-90.5 243.4277,-90.5 243.4277,-90.5 249.4277,-90.5 255.4277,-96.5 255.4277,-102.5 255.4277,-102.5 255.4277,-280.5 255.4277,-280.5 255.4277,-286.5 249.4277,-292.5 243.4277,-292.5 243.4277,-292.5 162,-292.5 162,-292.5 156,-292.5 150,-286.5 150,-280.5 150,-280.5 150,-102.5 150,-102.5 150,-96.5 156,-90.5 162,-90.5"/>
<text text-anchor="middle" x="202.7139" y="-277.3" font-family="Times,serif" font-size="14.00" fill="#000000">UsersController</text>
<polyline fill="none" stroke="#000000" points="150,-270.5 255.4277,-270.5 "/>
<text text-anchor="start" x="158" y="-255.3" font-family="Times,serif" font-size="14.00" fill="#000000">create</text>
<text text-anchor="start" x="158" y="-241.3" font-family="Times,serif" font-size="14.00" fill="#000000">destroy</text>
<text text-anchor="start" x="158" y="-227.3" font-family="Times,serif" font-size="14.00" fill="#000000">edit</text>
<text text-anchor="start" x="158" y="-213.3" font-family="Times,serif" font-size="14.00" fill="#000000">index</text>
<text text-anchor="start" x="158" y="-199.3" font-family="Times,serif" font-size="14.00" fill="#000000">new</text>
<text text-anchor="start" x="158" y="-185.3" font-family="Times,serif" font-size="14.00" fill="#000000">show</text>
<text text-anchor="start" x="158" y="-171.3" font-family="Times,serif" font-size="14.00" fill="#000000">update</text>
<polyline fill="none" stroke="#000000" points="150,-164.5 255.4277,-164.5 "/>
<polyline fill="none" stroke="#000000" points="150,-140.5 255.4277,-140.5 "/>
<text text-anchor="start" x="158" y="-125.3" font-family="Times,serif" font-size="14.00" fill="#000000">_layout</text>
<text text-anchor="start" x="158" y="-111.3" font-family="Times,serif" font-size="14.00" fill="#000000">find_user</text>
<text text-anchor="start" x="158" y="-97.3" font-family="Times,serif" font-size="14.00" fill="#000000">user_params</text>
</g>
<!-- SessionsController -->
<g id="node5" class="node">
<title>SessionsController</title>
<path fill="none" stroke="#000000" d="M297,-225.5C297,-225.5 394.7793,-225.5 394.7793,-225.5 400.7793,-225.5 406.7793,-231.5 406.7793,-237.5 406.7793,-237.5 406.7793,-345.5 406.7793,-345.5 406.7793,-351.5 400.7793,-357.5 394.7793,-357.5 394.7793,-357.5 297,-357.5 297,-357.5 291,-357.5 285,-351.5 285,-345.5 285,-345.5 285,-237.5 285,-237.5 285,-231.5 291,-225.5 297,-225.5"/>
<text text-anchor="middle" x="345.8896" y="-342.3" font-family="Times,serif" font-size="14.00" fill="#000000">SessionsController</text>
<polyline fill="none" stroke="#000000" points="285,-335.5 406.7793,-335.5 "/>
<text text-anchor="start" x="293" y="-320.3" font-family="Times,serif" font-size="14.00" fill="#000000">create</text>
<text text-anchor="start" x="293" y="-306.3" font-family="Times,serif" font-size="14.00" fill="#000000">destroy</text>
<text text-anchor="start" x="293" y="-292.3" font-family="Times,serif" font-size="14.00" fill="#000000">new</text>
<polyline fill="none" stroke="#000000" points="285,-285.5 406.7793,-285.5 "/>
<polyline fill="none" stroke="#000000" points="285,-261.5 406.7793,-261.5 "/>
<text text-anchor="start" x="293" y="-246.3" font-family="Times,serif" font-size="14.00" fill="#000000">_layout</text>
<text text-anchor="start" x="293" y="-232.3" font-family="Times,serif" font-size="14.00" fill="#000000">sign_in_params</text>
</g>
<!-- Api::V1::ApiController -->
<g id="node6" class="node">
<title>Api::V1::ApiController</title>
<path fill="none" stroke="#000000" d="M417,-390.5C417,-390.5 541.2139,-390.5 541.2139,-390.5 547.2139,-390.5 553.2139,-396.5 553.2139,-402.5 553.2139,-402.5 553.2139,-484.5 553.2139,-484.5 553.2139,-490.5 547.2139,-496.5 541.2139,-496.5 541.2139,-496.5 417,-496.5 417,-496.5 411,-496.5 405,-490.5 405,-484.5 405,-484.5 405,-402.5 405,-402.5 405,-396.5 411,-390.5 417,-390.5"/>
<text text-anchor="middle" x="479.1069" y="-481.3" font-family="Times,serif" font-size="14.00" fill="#000000">Api::V1::ApiController</text>
<polyline fill="none" stroke="#000000" points="405,-474.5 553.2139,-474.5 "/>
<text text-anchor="start" x="413" y="-459.3" font-family="Times,serif" font-size="14.00" fill="#000000">current_account</text>
<text text-anchor="start" x="413" y="-445.3" font-family="Times,serif" font-size="14.00" fill="#000000">current_user</text>
<polyline fill="none" stroke="#000000" points="405,-438.5 553.2139,-438.5 "/>
<polyline fill="none" stroke="#000000" points="405,-414.5 553.2139,-414.5 "/>
</g>
<!-- Api::V1::AuthController -->
<g id="node7" class="node">
<title>Api::V1::AuthController</title>
<path fill="none" stroke="#000000" d="M297,-.5C297,-.5 428.2139,-.5 428.2139,-.5 434.2139,-.5 440.2139,-6.5 440.2139,-12.5 440.2139,-12.5 440.2139,-78.5 440.2139,-78.5 440.2139,-84.5 434.2139,-90.5 428.2139,-90.5 428.2139,-90.5 297,-90.5 297,-90.5 291,-90.5 285,-84.5 285,-78.5 285,-78.5 285,-12.5 285,-12.5 285,-6.5 291,-.5 297,-.5"/>
<text text-anchor="middle" x="362.6069" y="-75.3" font-family="Times,serif" font-size="14.00" fill="#000000">Api::V1::AuthController</text>
<polyline fill="none" stroke="#000000" points="285,-68.5 440.2139,-68.5 "/>
<text text-anchor="start" x="293" y="-53.3" font-family="Times,serif" font-size="14.00" fill="#000000">sign_in</text>
<polyline fill="none" stroke="#000000" points="285,-46.5 440.2139,-46.5 "/>
<polyline fill="none" stroke="#000000" points="285,-22.5 440.2139,-22.5 "/>
<text text-anchor="start" x="293" y="-7.3" font-family="Times,serif" font-size="14.00" fill="#000000">sign_in_params</text>
</g>
<!-- AccountsController -->
<g id="node8" class="node">
<title>AccountsController</title>
<path fill="none" stroke="#000000" d="M12,-180.5C12,-180.5 114.4209,-180.5 114.4209,-180.5 120.4209,-180.5 126.4209,-186.5 126.4209,-192.5 126.4209,-192.5 126.4209,-286.5 126.4209,-286.5 126.4209,-292.5 120.4209,-298.5 114.4209,-298.5 114.4209,-298.5 12,-298.5 12,-298.5 6,-298.5 0,-292.5 0,-286.5 0,-286.5 0,-192.5 0,-192.5 0,-186.5 6,-180.5 12,-180.5"/>
<text text-anchor="middle" x="63.2104" y="-283.3" font-family="Times,serif" font-size="14.00" fill="#000000">AccountsController</text>
<polyline fill="none" stroke="#000000" points="0,-276.5 126.4209,-276.5 "/>
<text text-anchor="start" x="8" y="-261.3" font-family="Times,serif" font-size="14.00" fill="#000000">create</text>
<text text-anchor="start" x="8" y="-247.3" font-family="Times,serif" font-size="14.00" fill="#000000">new</text>
<polyline fill="none" stroke="#000000" points="0,-240.5 126.4209,-240.5 "/>
<polyline fill="none" stroke="#000000" points="0,-216.5 126.4209,-216.5 "/>
<text text-anchor="start" x="8" y="-201.3" font-family="Times,serif" font-size="14.00" fill="#000000">_layout</text>
<text text-anchor="start" x="8" y="-187.3" font-family="Times,serif" font-size="14.00" fill="#000000">sign_up_params</text>
</g>
</g>
</svg>
