<?xml version="1.0" encoding="UTF-8" standalone="no"?>
<!DOCTYPE svg PUBLIC "-//W3C//DTD SVG 1.1//EN"
 "http://www.w3.org/Graphics/SVG/1.1/DTD/svg11.dtd">
<!-- Generated by graphviz version 2.40.1 (20161225.0304)
 -->
<!-- Title: models_diagram Pages: 1 -->
<svg width="772pt" height="153pt"
 viewBox="0.00 0.00 772.08 153.00" xmlns="http://www.w3.org/2000/svg" xmlns:xlink="http://www.w3.org/1999/xlink">
<g id="graph0" class="graph" transform="scale(1 1) rotate(0) translate(4 149)">
<title>models_diagram</title>
<polygon fill="transparent" stroke="transparent" points="-4,4 -4,-149 768.0835,-149 768.0835,4 -4,4"/>
<!-- _diagram_info -->
<g id="node1" class="node">
<title>_diagram_info</title>
<text text-anchor="start" x="8" y="-130.6" font-family="Times,serif" font-size="13.00" fill="#000000">Models diagram</text>
<text text-anchor="start" x="8" y="-117.6" font-family="Times,serif" font-size="13.00" fill="#000000">Date: Dec 25 2017 &#45; 09:07</text>
<text text-anchor="start" x="8" y="-104.6" font-family="Times,serif" font-size="13.00" fill="#000000">Migration version: 20171224080730</text>
<text text-anchor="start" x="8" y="-91.6" font-family="Times,serif" font-size="13.00" fill="#000000">Generated by RailRoady 1.5.3</text>
<text text-anchor="start" x="8" y="-78.6" font-family="Times,serif" font-size="13.00" fill="#000000">http://railroady.prestonlee.com</text>
</g>
<!-- Account -->
<g id="node2" class="node">
<title>Account</title>
<ellipse fill="none" stroke="#000000" cx="265.6877" cy="-108.5" rx="40.1317" ry="18"/>
<text text-anchor="middle" x="265.6877" y="-104.3" font-family="Times,serif" font-size="14.00" fill="#000000">Account</text>
</g>
<!-- User -->
<g id="node7" class="node">
<title>User</title>
<ellipse fill="none" stroke="#000000" cx="265.6877" cy="-18" rx="27" ry="18"/>
<text text-anchor="middle" x="265.6877" y="-13.8" font-family="Times,serif" font-size="14.00" fill="#000000">User</text>
</g>
<!-- Account&#45;&gt;User -->
<g id="edge1" class="edge">
<title>Account&#45;&gt;User</title>
<path fill="none" stroke="#651810" d="M265.6877,-81.9687C265.6877,-70.8402 265.6877,-57.878 265.6877,-46.5429"/>
<ellipse fill="none" stroke="#651810" cx="265.6878" cy="-86.186" rx="4" ry="4"/>
<polygon fill="#651810" stroke="#651810" points="265.6878,-46.2868 270.1877,-36.2867 265.6878,-41.2868 265.6877,-36.2868 265.6877,-36.2868 265.6877,-36.2868 265.6878,-41.2868 261.1877,-36.2868 265.6878,-46.2868 265.6878,-46.2868"/>
</g>
<!-- ActiveRecordLike -->
<g id="node3" class="node">
<title>ActiveRecordLike</title>
<polygon fill="none" stroke="#000000" points="443.5888,-126.5 323.7867,-126.5 323.7867,-90.5 443.5888,-90.5 443.5888,-126.5"/>
<text text-anchor="middle" x="383.6877" y="-104.3" font-family="Times,serif" font-size="14.00" fill="#000000">ActiveRecordLike</text>
</g>
<!-- SignUp -->
<g id="node4" class="node">
<title>SignUp</title>
<polygon fill="none" stroke="#000000" points="519.9743,-126.5 461.4012,-126.5 461.4012,-90.5 519.9743,-90.5 519.9743,-126.5"/>
<text text-anchor="middle" x="490.6877" y="-104.3" font-family="Times,serif" font-size="14.00" fill="#000000">SignUp</text>
</g>
<!-- SignIn -->
<g id="node5" class="node">
<title>SignIn</title>
<polygon fill="none" stroke="#000000" points="591.6877,-126.5 537.6877,-126.5 537.6877,-90.5 591.6877,-90.5 591.6877,-126.5"/>
<text text-anchor="middle" x="564.6877" y="-104.3" font-family="Times,serif" font-size="14.00" fill="#000000">SignIn</text>
</g>
<!-- ApplicationRecord -->
<g id="node6" class="node">
<title>ApplicationRecord</title>
<ellipse fill="none" stroke="#000000" cx="686.6877" cy="-108.5" rx="77.2916" ry="18"/>
<text text-anchor="middle" x="686.6877" y="-104.3" font-family="Times,serif" font-size="14.00" fill="#000000">ApplicationRecord</text>
</g>
</g>
</svg>
