<?xml version="1.0" encoding="UTF-8" standalone="no"?>
<!DOCTYPE svg PUBLIC "-//W3C//DTD SVG 1.1//EN"
 "http://www.w3.org/Graphics/SVG/1.1/DTD/svg11.dtd">
<!-- Generated by graphviz version 2.38.0 (20140413.2041)
 -->
<!-- Title: models_diagram Pages: 1 -->
<svg width="728pt" height="302pt"
 viewBox="0.00 0.00 728.34 302.00" xmlns="http://www.w3.org/2000/svg" xmlns:xlink="http://www.w3.org/1999/xlink">
<g id="graph0" class="graph" transform="scale(1 1) rotate(0) translate(4 298)">
<title>models_diagram</title>
<polygon fill="none" stroke="none" points="-4,4 -4,-298 724.339,-298 724.339,4 -4,4"/>
<!-- _diagram_info -->
<g id="node1" class="node"><title>_diagram_info</title>
<text text-anchor="start" x="65.9954" y="-279.6" font-family="Times,serif" font-size="13.00">Models diagram</text>
<text text-anchor="start" x="65.9954" y="-265.6" font-family="Times,serif" font-size="13.00">Date: Sep 13 2018 &#45; 00:39</text>
<text text-anchor="start" x="65.9954" y="-251.6" font-family="Times,serif" font-size="13.00">Migration version: 20180912154837</text>
<text text-anchor="start" x="65.9954" y="-237.6" font-family="Times,serif" font-size="13.00">Generated by RailRoady 1.5.3</text>
<text text-anchor="start" x="65.9954" y="-223.6" font-family="Times,serif" font-size="13.00">http://railroady.prestonlee.com</text>
</g>
<!-- Customer -->
<g id="node2" class="node"><title>Customer</title>
<ellipse fill="none" stroke="black" cx="505.995" cy="-162" rx="45.4919" ry="18"/>
<text text-anchor="middle" x="505.995" y="-158.3" font-family="Times,serif" font-size="14.00">Customer</text>
</g>
<!-- Invoice -->
<g id="node9" class="node"><title>Invoice</title>
<ellipse fill="none" stroke="black" cx="434.995" cy="-90" rx="37.0935" ry="18"/>
<text text-anchor="middle" x="434.995" y="-86.3" font-family="Times,serif" font-size="14.00">Invoice</text>
</g>
<!-- Customer&#45;&gt;Invoice -->
<g id="edge2" class="edge"><title>Customer&#45;&gt;Invoice</title>
<path fill="none" stroke="#276dd3" d="M484.092,-139.405C475.782,-131.212 466.301,-121.864 457.901,-113.583"/>
<ellipse fill="none" stroke="#276dd3" cx="487.036" cy="-142.308" rx="4.00002" ry="4.00002"/>
<polygon fill="#276dd3" stroke="#276dd3" points="457.676,-113.361 453.714,-103.136 454.115,-109.851 450.555,-106.34 450.555,-106.34 450.555,-106.34 454.115,-109.851 447.395,-109.545 457.676,-113.361 457.676,-113.361"/>
</g>
<!-- Address -->
<g id="node13" class="node"><title>Address</title>
<ellipse fill="none" stroke="black" cx="529.995" cy="-90" rx="39.7935" ry="18"/>
<text text-anchor="middle" x="529.995" y="-86.3" font-family="Times,serif" font-size="14.00">Address</text>
</g>
<!-- Customer&#45;&gt;Address -->
<g id="edge1" class="edge"><title>Customer&#45;&gt;Address</title>
<path fill="none" stroke="#aee7a4" d="M514.475,-136.267C516.507,-130.34 518.687,-123.981 520.752,-117.959"/>
<ellipse fill="none" stroke="#aee7a4" cx="513.102" cy="-140.271" rx="4.00001" ry="4.00001"/>
<polygon fill="#aee7a4" stroke="#aee7a4" points="520.829,-117.735 528.329,-109.735 522.451,-113.005 524.072,-108.275 524.072,-108.275 524.072,-108.275 522.451,-113.005 519.816,-106.816 520.829,-117.735 520.829,-117.735"/>
</g>
<!-- Transaction -->
<g id="node14" class="node"><title>Transaction</title>
<ellipse fill="none" stroke="black" cx="515.995" cy="-18" rx="51.9908" ry="18"/>
<text text-anchor="middle" x="515.995" y="-14.3" font-family="Times,serif" font-size="14.00">Transaction</text>
</g>
<!-- Customer&#45;&gt;Transaction -->
<g id="edge3" class="edge"><title>Customer&#45;&gt;Transaction</title>
<path fill="none" stroke="#ba4f09" d="M542.567,-143.889C556.633,-135.26 571.182,-123.328 578.995,-108 586.262,-93.7451 585.748,-86.5052 578.995,-72 572.987,-59.0928 562.116,-48.2058 551.076,-39.7211"/>
<ellipse fill="none" stroke="#ba4f09" cx="538.755" cy="-146.096" rx="4.00002" ry="4.00002"/>
<polygon fill="#ba4f09" stroke="#ba4f09" points="550.809,-39.5299 545.299,-30.0488 546.744,-36.6186 542.679,-33.7074 542.679,-33.7074 542.679,-33.7074 546.744,-36.6186 540.059,-37.3659 550.809,-39.5299 550.809,-39.5299"/>
</g>
<!-- Product -->
<g id="node3" class="node"><title>Product</title>
<ellipse fill="none" stroke="black" cx="145.995" cy="-162" rx="38.1938" ry="18"/>
<text text-anchor="middle" x="145.995" y="-158.3" font-family="Times,serif" font-size="14.00">Product</text>
</g>
<!-- Variant -->
<g id="node7" class="node"><title>Variant</title>
<ellipse fill="none" stroke="black" cx="80.9954" cy="-90" rx="37.0935" ry="18"/>
<text text-anchor="middle" x="80.9954" y="-86.3" font-family="Times,serif" font-size="14.00">Variant</text>
</g>
<!-- Product&#45;&gt;Variant -->
<g id="edge4" class="edge"><title>Product&#45;&gt;Variant</title>
<path fill="none" stroke="#f843b6" d="M125.747,-139.194C118.449,-131.334 110.184,-122.434 102.762,-114.441"/>
<ellipse fill="none" stroke="#f843b6" cx="128.524" cy="-142.185" rx="4.00002" ry="4.00002"/>
<polygon fill="#f843b6" stroke="#f843b6" points="102.491,-114.149 98.9841,-103.759 99.0888,-110.485 95.6865,-106.821 95.6865,-106.821 95.6865,-106.821 99.0888,-110.485 92.3889,-109.883 102.491,-114.149 102.491,-114.149"/>
</g>
<!-- InvoiceLine -->
<g id="node12" class="node"><title>InvoiceLine</title>
<ellipse fill="none" stroke="black" cx="174.995" cy="-18" rx="53.0913" ry="18"/>
<text text-anchor="middle" x="174.995" y="-14.3" font-family="Times,serif" font-size="14.00">InvoiceLine</text>
</g>
<!-- Product&#45;&gt;InvoiceLine -->
<g id="edge5" class="edge"><title>Product&#45;&gt;InvoiceLine</title>
<path fill="none" stroke="#f4ad5a" d="M151.116,-135.929C156.263,-110.725 164.173,-71.9942 169.462,-46.0947"/>
<ellipse fill="none" stroke="#f4ad5a" cx="150.294" cy="-139.952" rx="4.00001" ry="4.00001"/>
<polygon fill="#f4ad5a" stroke="#f4ad5a" points="169.484,-45.987 175.894,-37.0897 170.484,-41.0881 171.485,-36.1893 171.485,-36.1893 171.485,-36.1893 170.484,-41.0881 167.076,-35.2888 169.484,-45.987 169.484,-45.987"/>
</g>
<!-- Component -->
<g id="node4" class="node"><title>Component</title>
<ellipse fill="none" stroke="black" cx="51.9954" cy="-18" rx="51.9908" ry="18"/>
<text text-anchor="middle" x="51.9954" y="-14.3" font-family="Times,serif" font-size="14.00">Component</text>
</g>
<!-- ProductComponent -->
<g id="node5" class="node"><title>ProductComponent</title>
<ellipse fill="none" stroke="black" cx="467.995" cy="-255" rx="79.0865" ry="18"/>
<text text-anchor="middle" x="467.995" y="-251.3" font-family="Times,serif" font-size="14.00">ProductComponent</text>
</g>
<!-- User -->
<g id="node6" class="node"><title>User</title>
<ellipse fill="none" stroke="black" cx="329.995" cy="-162" rx="27.0966" ry="18"/>
<text text-anchor="middle" x="329.995" y="-158.3" font-family="Times,serif" font-size="14.00">User</text>
</g>
<!-- UserRole -->
<g id="node8" class="node"><title>UserRole</title>
<ellipse fill="none" stroke="black" cx="217.995" cy="-90" rx="44.393" ry="18"/>
<text text-anchor="middle" x="217.995" y="-86.3" font-family="Times,serif" font-size="14.00">UserRole</text>
</g>
<!-- User&#45;&gt;UserRole -->
<g id="edge6" class="edge"><title>User&#45;&gt;UserRole</title>
<path fill="none" stroke="#512f22" d="M303.824,-144.643C287.69,-134.559 266.891,-121.56 249.809,-110.883"/>
<ellipse fill="none" stroke="#512f22" cx="307.35" cy="-146.847" rx="4.00002" ry="4.00002"/>
<polygon fill="#512f22" stroke="#512f22" points="249.739,-110.84 243.644,-101.724 245.499,-108.19 241.259,-105.54 241.259,-105.54 241.259,-105.54 245.499,-108.19 238.874,-109.356 249.739,-110.84 249.739,-110.84"/>
</g>
<!-- User&#45;&gt;Invoice -->
<g id="edge7" class="edge"><title>User&#45;&gt;Invoice</title>
<path fill="none" stroke="#85926a" d="M355.557,-143.959C370.645,-133.9 389.804,-121.128 405.526,-110.646"/>
<ellipse fill="none" stroke="#85926a" cx="352.095" cy="-146.267" rx="4.00002" ry="4.00002"/>
<polygon fill="#85926a" stroke="#85926a" points="405.539,-110.638 416.356,-108.835 409.699,-107.864 413.86,-105.091 413.86,-105.091 413.86,-105.091 409.699,-107.864 411.363,-101.346 405.539,-110.638 405.539,-110.638"/>
</g>
<!-- AccessKey -->
<g id="node11" class="node"><title>AccessKey</title>
<ellipse fill="none" stroke="black" cx="329.995" cy="-90" rx="50.0912" ry="18"/>
<text text-anchor="middle" x="329.995" y="-86.3" font-family="Times,serif" font-size="14.00">AccessKey</text>
</g>
<!-- User&#45;&gt;AccessKey -->
<g id="edge8" class="edge"><title>User&#45;&gt;AccessKey</title>
<path fill="none" stroke="#877f1d" d="M329.995,-135.64C329.995,-130.063 329.995,-124.132 329.995,-118.476"/>
<ellipse fill="none" stroke="#877f1d" cx="329.995" cy="-139.697" rx="4" ry="4"/>
<polygon fill="#877f1d" stroke="#877f1d" points="329.995,-118.104 334.495,-108.104 329.995,-113.104 329.995,-108.104 329.995,-108.104 329.995,-108.104 329.995,-113.104 325.495,-108.104 329.995,-118.104 329.995,-118.104"/>
</g>
<!-- Variant&#45;&gt;Component -->
<g id="edge10" class="edge"><title>Variant&#45;&gt;Component</title>
<path fill="none" stroke="#ac71e7" d="M70.8651,-64.5475C68.33,-58.4284 65.5984,-51.8347 63.0221,-45.6163"/>
<ellipse fill="none" stroke="#ac71e7" cx="72.4443" cy="-68.3595" rx="4.00002" ry="4.00002"/>
<polygon fill="#ac71e7" stroke="#ac71e7" points="62.9798,-45.5139 63.3097,-34.5529 61.066,-40.8946 59.1523,-36.2753 59.1523,-36.2753 59.1523,-36.2753 61.066,-40.8946 54.9949,-37.9977 62.9798,-45.5139 62.9798,-45.5139"/>
</g>
<!-- Variant&#45;&gt;InvoiceLine -->
<g id="edge9" class="edge"><title>Variant&#45;&gt;InvoiceLine</title>
<path fill="none" stroke="#29c829" d="M106.988,-69.6439C118.994,-60.7031 133.303,-50.0474 145.691,-40.8221"/>
<ellipse fill="none" stroke="#29c829" cx="103.68" cy="-72.1069" rx="4.00002" ry="4.00002"/>
<polygon fill="#29c829" stroke="#29c829" points="145.889,-40.6753 156.597,-38.3118 149.899,-37.6889 153.909,-34.7026 153.909,-34.7026 153.909,-34.7026 149.899,-37.6889 151.221,-31.0934 145.889,-40.6753 145.889,-40.6753"/>
</g>
<!-- Invoice&#45;&gt;InvoiceLine -->
<g id="edge11" class="edge"><title>Invoice&#45;&gt;InvoiceLine</title>
<path fill="none" stroke="#a2bf62" d="M399.374,-75.394C395.885,-74.1943 392.383,-73.0419 388.995,-72 335.031,-55.402 272.204,-40.3349 228.645,-30.5453"/>
<ellipse fill="none" stroke="#a2bf62" cx="403.174" cy="-76.7373" rx="4.00001" ry="4.00001"/>
<polygon fill="#a2bf62" stroke="#a2bf62" points="228.591,-30.5331 219.811,-23.9635 223.711,-29.4443 218.831,-28.3555 218.831,-28.3555 218.831,-28.3555 223.711,-29.4443 217.851,-32.7475 228.591,-30.5331 228.591,-30.5331"/>
</g>
<!-- Invoice&#45;&gt;Transaction -->
<g id="edge12" class="edge"><title>Invoice&#45;&gt;Transaction</title>
<path fill="none" stroke="#f34b8e" d="M458.791,-68.4359C468.572,-59.9834 479.929,-50.1688 489.933,-41.523"/>
<ellipse fill="none" stroke="#f34b8e" cx="455.598" cy="-71.1956" rx="4.00002" ry="4.00002"/>
<polygon fill="#f34b8e" stroke="#f34b8e" points="490.044,-41.4269 500.553,-38.293 493.827,-38.1575 497.61,-34.8882 497.61,-34.8882 497.61,-34.8882 493.827,-38.1575 494.668,-31.4834 490.044,-41.4269 490.044,-41.4269"/>
</g>
<!-- Account -->
<g id="node10" class="node"><title>Account</title>
<ellipse fill="none" stroke="black" cx="329.995" cy="-255" rx="40.0939" ry="18"/>
<text text-anchor="middle" x="329.995" y="-251.3" font-family="Times,serif" font-size="14.00">Account</text>
</g>
<!-- Account&#45;&gt;Customer -->
<g id="edge16" class="edge"><title>Account&#45;&gt;Customer</title>
<path fill="none" stroke="#85c0a2" d="M354.125,-233.719C362.072,-227.579 371.145,-221.115 379.995,-216 406.479,-200.695 438.234,-187.367 463.24,-177.904"/>
<ellipse fill="none" stroke="#85c0a2" cx="350.883" cy="-236.283" rx="4.00002" ry="4.00002"/>
<polygon fill="#85c0a2" stroke="#85c0a2" points="463.44,-177.83 474.381,-178.562 468.126,-176.087 472.813,-174.344 472.813,-174.344 472.813,-174.344 468.126,-176.087 471.245,-170.127 463.44,-177.83 463.44,-177.83"/>
</g>
<!-- Account&#45;&gt;Product -->
<g id="edge14" class="edge"><title>Account&#45;&gt;Product</title>
<path fill="none" stroke="#e5f88b" d="M306.47,-233.566C298.689,-227.418 289.769,-220.987 280.995,-216 251.069,-198.99 214.606,-185.033 187.122,-175.719"/>
<ellipse fill="none" stroke="#e5f88b" cx="309.603" cy="-236.107" rx="4.00002" ry="4.00002"/>
<polygon fill="#e5f88b" stroke="#e5f88b" points="186.922,-175.652 178.85,-168.23 182.176,-174.076 177.431,-172.5 177.431,-172.5 177.431,-172.5 182.176,-174.076 176.013,-176.771 186.922,-175.652 186.922,-175.652"/>
</g>
<!-- Account&#45;&gt;User -->
<g id="edge13" class="edge"><title>Account&#45;&gt;User</title>
<path fill="none" stroke="#0024d0" d="M329.995,-228.729C329.995,-216.725 329.995,-202.362 329.995,-190.129"/>
<ellipse fill="none" stroke="#0024d0" cx="329.995" cy="-232.884" rx="4" ry="4"/>
<polygon fill="#0024d0" stroke="#0024d0" points="329.995,-190.04 334.495,-180.04 329.995,-185.04 329.995,-180.04 329.995,-180.04 329.995,-180.04 329.995,-185.04 325.495,-180.04 329.995,-190.04 329.995,-190.04"/>
</g>
<!-- Account&#45;&gt;Invoice -->
<g id="edge15" class="edge"><title>Account&#45;&gt;Invoice</title>
<path fill="none" stroke="#7597bf" d="M345.215,-230.373C364.82,-199.939 398.753,-147.262 418.813,-116.121"/>
<ellipse fill="none" stroke="#7597bf" cx="342.807" cy="-234.111" rx="4.00002" ry="4.00002"/>
<polygon fill="#7597bf" stroke="#7597bf" points="418.906,-115.977 428.104,-110.007 421.614,-111.773 424.321,-107.57 424.321,-107.57 424.321,-107.57 421.614,-111.773 420.538,-105.133 418.906,-115.977 418.906,-115.977"/>
</g>
<!-- Role -->
<g id="node15" class="node"><title>Role</title>
<ellipse fill="none" stroke="black" cx="243.995" cy="-162" rx="27.0966" ry="18"/>
<text text-anchor="middle" x="243.995" y="-158.3" font-family="Times,serif" font-size="14.00">Role</text>
</g>
<!-- Account&#45;&gt;Role -->
<g id="edge17" class="edge"><title>Account&#45;&gt;Role</title>
<path fill="none" stroke="#4c3d8c" d="M309.434,-232.243C296.004,-218.033 278.518,-199.53 265.001,-185.227"/>
<ellipse fill="none" stroke="#4c3d8c" cx="312.268" cy="-235.242" rx="4.00002" ry="4.00002"/>
<polygon fill="#4c3d8c" stroke="#4c3d8c" points="264.819,-185.034 261.221,-174.675 261.385,-181.4 257.95,-177.766 257.95,-177.766 257.95,-177.766 261.385,-181.4 254.68,-180.857 264.819,-185.034 264.819,-185.034"/>
</g>
<!-- Role&#45;&gt;UserRole -->
<g id="edge18" class="edge"><title>Role&#45;&gt;UserRole</title>
<path fill="none" stroke="#07d920" d="M234.999,-136.778C232.683,-130.544 230.18,-123.805 227.825,-117.463"/>
<ellipse fill="none" stroke="#07d920" cx="236.441" cy="-140.661" rx="4.00001" ry="4.00001"/>
<polygon fill="#07d920" stroke="#07d920" points="227.775,-117.33 228.512,-106.389 226.034,-112.643 224.293,-107.956 224.293,-107.956 224.293,-107.956 226.034,-112.643 220.075,-109.523 227.775,-117.33 227.775,-117.33"/>
</g>
<!-- ApplicationRecord -->
<g id="node16" class="node"><title>ApplicationRecord</title>
<ellipse fill="none" stroke="black" cx="642.995" cy="-255" rx="77.1866" ry="18"/>
<text text-anchor="middle" x="642.995" y="-251.3" font-family="Times,serif" font-size="14.00">ApplicationRecord</text>
</g>
</g>
</svg>
