<?xml version="1.0" encoding="UTF-8" standalone="no"?>
<!DOCTYPE svg PUBLIC "-//W3C//DTD SVG 1.1//EN"
 "http://www.w3.org/Graphics/SVG/1.1/DTD/svg11.dtd">
<!-- Generated by graphviz version 2.40.1 (20161225.0304)
 -->
<!-- Title: models_diagram Pages: 1 -->
<svg width="940pt" height="414pt"
 viewBox="0.00 0.00 940.08 414.00" xmlns="http://www.w3.org/2000/svg" xmlns:xlink="http://www.w3.org/1999/xlink">
<g id="graph0" class="graph" transform="scale(1 1) rotate(0) translate(4 410)">
<title>models_diagram</title>
<polygon fill="transparent" stroke="transparent" points="-4,4 -4,-410 936.0835,-410 936.0835,4 -4,4"/>
<!-- _diagram_info -->
<g id="node1" class="node">
<title>_diagram_info</title>
<text text-anchor="start" x="8" y="-356.6" font-family="Times,serif" font-size="13.00" fill="#000000">Models diagram</text>
<text text-anchor="start" x="8" y="-343.6" font-family="Times,serif" font-size="13.00" fill="#000000">Date: Dec 25 2017 &#45; 09:07</text>
<text text-anchor="start" x="8" y="-330.6" font-family="Times,serif" font-size="13.00" fill="#000000">Migration version: 20171224080730</text>
<text text-anchor="start" x="8" y="-317.6" font-family="Times,serif" font-size="13.00" fill="#000000">Generated by RailRoady 1.5.3</text>
<text text-anchor="start" x="8" y="-304.6" font-family="Times,serif" font-size="13.00" fill="#000000">http://railroady.prestonlee.com</text>
</g>
<!-- Account -->
<g id="node2" class="node">
<title>Account</title>
<path fill="none" stroke="#000000" d="M237.8254,-263.5C237.8254,-263.5 461.55,-263.5 461.55,-263.5 467.55,-263.5 473.55,-269.5 473.55,-275.5 473.55,-275.5 473.55,-393.5 473.55,-393.5 473.55,-399.5 467.55,-405.5 461.55,-405.5 461.55,-405.5 237.8254,-405.5 237.8254,-405.5 231.8254,-405.5 225.8254,-399.5 225.8254,-393.5 225.8254,-393.5 225.8254,-275.5 225.8254,-275.5 225.8254,-269.5 231.8254,-263.5 237.8254,-263.5"/>
<text text-anchor="middle" x="349.6877" y="-390.3" font-family="Times,serif" font-size="14.00" fill="#000000">Account</text>
<polyline fill="none" stroke="#000000" points="225.8254,-383.5 473.55,-383.5 "/>
<text text-anchor="start" x="233.8254" y="-368.3" font-family="Times,serif" font-size="14.00" fill="#000000">updated_at :timestamp without time zone</text>
<text text-anchor="start" x="233.8254" y="-354.3" font-family="Times,serif" font-size="14.00" fill="#000000">name :character varying</text>
<text text-anchor="start" x="233.8254" y="-340.3" font-family="Times,serif" font-size="14.00" fill="#000000">company :character varying</text>
<text text-anchor="start" x="233.8254" y="-326.3" font-family="Times,serif" font-size="14.00" fill="#000000">account_status :integer</text>
<text text-anchor="start" x="233.8254" y="-312.3" font-family="Times,serif" font-size="14.00" fill="#000000">account_type :integer</text>
<text text-anchor="start" x="233.8254" y="-298.3" font-family="Times,serif" font-size="14.00" fill="#000000">status :integer</text>
<text text-anchor="start" x="233.8254" y="-284.3" font-family="Times,serif" font-size="14.00" fill="#000000">created_at :timestamp without time zone</text>
<text text-anchor="start" x="233.8254" y="-270.3" font-family="Times,serif" font-size="14.00" fill="#000000">id :bigint</text>
</g>
<!-- User -->
<g id="node7" class="node">
<title>User</title>
<path fill="none" stroke="#000000" d="M237.8254,-.5C237.8254,-.5 461.55,-.5 461.55,-.5 467.55,-.5 473.55,-6.5 473.55,-12.5 473.55,-12.5 473.55,-214.5 473.55,-214.5 473.55,-220.5 467.55,-226.5 461.55,-226.5 461.55,-226.5 237.8254,-226.5 237.8254,-226.5 231.8254,-226.5 225.8254,-220.5 225.8254,-214.5 225.8254,-214.5 225.8254,-12.5 225.8254,-12.5 225.8254,-6.5 231.8254,-.5 237.8254,-.5"/>
<text text-anchor="middle" x="349.6877" y="-211.3" font-family="Times,serif" font-size="14.00" fill="#000000">User</text>
<polyline fill="none" stroke="#000000" points="225.8254,-204.5 473.55,-204.5 "/>
<text text-anchor="start" x="233.8254" y="-189.3" font-family="Times,serif" font-size="14.00" fill="#000000">updated_at :timestamp without time zone</text>
<text text-anchor="start" x="233.8254" y="-175.3" font-family="Times,serif" font-size="14.00" fill="#000000">account_id :integer</text>
<text text-anchor="start" x="233.8254" y="-161.3" font-family="Times,serif" font-size="14.00" fill="#000000">email :character varying</text>
<text text-anchor="start" x="233.8254" y="-147.3" font-family="Times,serif" font-size="14.00" fill="#000000">first_name :character varying</text>
<text text-anchor="start" x="233.8254" y="-133.3" font-family="Times,serif" font-size="14.00" fill="#000000">middle_name :character varying</text>
<text text-anchor="start" x="233.8254" y="-119.3" font-family="Times,serif" font-size="14.00" fill="#000000">last_name :character varying</text>
<text text-anchor="start" x="233.8254" y="-105.3" font-family="Times,serif" font-size="14.00" fill="#000000">suffix :character varying</text>
<text text-anchor="start" x="233.8254" y="-91.3" font-family="Times,serif" font-size="14.00" fill="#000000">title :character varying</text>
<text text-anchor="start" x="233.8254" y="-77.3" font-family="Times,serif" font-size="14.00" fill="#000000">password_digest :character varying</text>
<text text-anchor="start" x="233.8254" y="-63.3" font-family="Times,serif" font-size="14.00" fill="#000000">user_type :integer</text>
<text text-anchor="start" x="233.8254" y="-49.3" font-family="Times,serif" font-size="14.00" fill="#000000">user_status :integer</text>
<text text-anchor="start" x="233.8254" y="-35.3" font-family="Times,serif" font-size="14.00" fill="#000000">status :integer</text>
<text text-anchor="start" x="233.8254" y="-21.3" font-family="Times,serif" font-size="14.00" fill="#000000">created_at :timestamp without time zone</text>
<text text-anchor="start" x="233.8254" y="-7.3" font-family="Times,serif" font-size="14.00" fill="#000000">id :bigint</text>
</g>
<!-- Account&#45;&gt;User -->
<g id="edge1" class="edge">
<title>Account&#45;&gt;User</title>
<path fill="none" stroke="#027448" d="M349.6877,-255.2841C349.6877,-249.3328 349.6877,-243.2496 349.6877,-237.1117"/>
<ellipse fill="none" stroke="#027448" cx="349.6878" cy="-259.3577" rx="4" ry="4"/>
<polygon fill="#027448" stroke="#027448" points="349.6878,-236.7439 354.1877,-226.7438 349.6878,-231.7439 349.6877,-226.7439 349.6877,-226.7439 349.6877,-226.7439 349.6878,-231.7439 345.1877,-226.7439 349.6878,-236.7439 349.6878,-236.7439"/>
</g>
<!-- ActiveRecordLike -->
<g id="node3" class="node">
<title>ActiveRecordLike</title>
<polygon fill="none" stroke="#000000" points="491.9875,-312.5 491.9875,-356.5 611.3879,-356.5 611.3879,-312.5 491.9875,-312.5"/>
<text text-anchor="middle" x="551.6877" y="-341.3" font-family="Times,serif" font-size="14.00" fill="#000000">ActiveRecordLike</text>
<polyline fill="none" stroke="#000000" points="491.9875,-334.5 611.3879,-334.5 "/>
<text text-anchor="middle" x="551.6877" y="-319.3" font-family="Times,serif" font-size="14.00" fill="#000000"> </text>
</g>
<!-- SignUp -->
<g id="node4" class="node">
<title>SignUp</title>
<polygon fill="none" stroke="#000000" points="629.2947,-312.5 629.2947,-356.5 688.0808,-356.5 688.0808,-312.5 629.2947,-312.5"/>
<text text-anchor="middle" x="658.6877" y="-341.3" font-family="Times,serif" font-size="14.00" fill="#000000">SignUp</text>
<polyline fill="none" stroke="#000000" points="629.2947,-334.5 688.0808,-334.5 "/>
<text text-anchor="middle" x="658.6877" y="-319.3" font-family="Times,serif" font-size="14.00" fill="#000000"> </text>
</g>
<!-- SignIn -->
<g id="node5" class="node">
<title>SignIn</title>
<polygon fill="none" stroke="#000000" points="705.6877,-312.5 705.6877,-356.5 759.6877,-356.5 759.6877,-312.5 705.6877,-312.5"/>
<text text-anchor="middle" x="732.3567" y="-341.3" font-family="Times,serif" font-size="14.00" fill="#000000">SignIn</text>
<polyline fill="none" stroke="#000000" points="705.6877,-334.5 759.0256,-334.5 "/>
<text text-anchor="middle" x="732.3567" y="-319.3" font-family="Times,serif" font-size="14.00" fill="#000000"> </text>
</g>
<!-- ApplicationRecord -->
<g id="node6" class="node">
<title>ApplicationRecord</title>
<ellipse fill="none" stroke="#000000" cx="854.6877" cy="-334.5" rx="77.2916" ry="18"/>
<text text-anchor="middle" x="854.6877" y="-330.3" font-family="Times,serif" font-size="14.00" fill="#000000">ApplicationRecord</text>
</g>
</g>
</svg>
