<?xml version="1.0" encoding="UTF-8" standalone="no"?>
<!DOCTYPE svg PUBLIC "-//W3C//DTD SVG 1.1//EN"
 "http://www.w3.org/Graphics/SVG/1.1/DTD/svg11.dtd">
<!-- Generated by graphviz version 2.40.1 (20161225.0304)
 -->
<!-- Title: models_diagram Pages: 1 -->
<svg width="718pt" height="313pt"
 viewBox="0.00 0.00 718.39 313.00" xmlns="http://www.w3.org/2000/svg" xmlns:xlink="http://www.w3.org/1999/xlink">
<g id="graph0" class="graph" transform="scale(1 1) rotate(0) translate(4 309)">
<title>models_diagram</title>
<polygon fill="transparent" stroke="transparent" points="-4,4 -4,-309 714.3928,-309 714.3928,4 -4,4"/>
<!-- _diagram_info -->
<g id="node1" class="node">
<title>_diagram_info</title>
<text text-anchor="start" x="113.1978" y="-290.6" font-family="Times,serif" font-size="13.00" fill="#000000">Models diagram</text>
<text text-anchor="start" x="113.1978" y="-277.6" font-family="Times,serif" font-size="13.00" fill="#000000">Date: May 09 2018 &#45; 22:52</text>
<text text-anchor="start" x="113.1978" y="-264.6" font-family="Times,serif" font-size="13.00" fill="#000000">Migration version: 20180509142140</text>
<text text-anchor="start" x="113.1978" y="-251.6" font-family="Times,serif" font-size="13.00" fill="#000000">Generated by RailRoady 1.5.3</text>
<text text-anchor="start" x="113.1978" y="-238.6" font-family="Times,serif" font-size="13.00" fill="#000000">http://railroady.prestonlee.com</text>
</g>
<!-- Variant -->
<g id="node2" class="node">
<title>Variant</title>
<ellipse fill="none" stroke="#000000" cx="199.8855" cy="-104" rx="35.7887" ry="18"/>
<text text-anchor="middle" x="199.8855" y="-99.8" font-family="Times,serif" font-size="14.00" fill="#000000">Variant</text>
</g>
<!-- InvoiceLine -->
<g id="node6" class="node">
<title>InvoiceLine</title>
<ellipse fill="none" stroke="#000000" cx="263.8855" cy="-18" rx="46.8719" ry="18"/>
<text text-anchor="middle" x="263.8855" y="-13.8" font-family="Times,serif" font-size="14.00" fill="#000000">InvoiceLine</text>
</g>
<!-- Variant&#45;&gt;InvoiceLine -->
<g id="edge1" class="edge">
<title>Variant&#45;&gt;InvoiceLine</title>
<path fill="none" stroke="#c39a33" d="M217.4685,-80.3728C225.9564,-68.9672 236.1553,-55.2625 244.8285,-43.6078"/>
<ellipse fill="none" stroke="#c39a33" cx="214.9179" cy="-83.8002" rx="4" ry="4"/>
<polygon fill="#c39a33" stroke="#c39a33" points="244.8579,-43.5683 254.4381,-38.2325 247.843,-39.5571 250.828,-35.546 250.828,-35.546 250.828,-35.546 247.843,-39.5571 247.218,-32.8594 244.8579,-43.5683 244.8579,-43.5683"/>
</g>
<!-- ProductComponent -->
<g id="node11" class="node">
<title>ProductComponent</title>
<ellipse fill="none" stroke="#000000" cx="78.8855" cy="-18" rx="78.7712" ry="18"/>
<text text-anchor="middle" x="78.8855" y="-13.8" font-family="Times,serif" font-size="14.00" fill="#000000">ProductComponent</text>
</g>
<!-- Variant&#45;&gt;ProductComponent -->
<g id="edge2" class="edge">
<title>Variant&#45;&gt;ProductComponent</title>
<path fill="none" stroke="#2d594b" d="M199.7314,-77.648C198.4418,-69.2363 195.6239,-60.4473 189.8855,-54 183.172,-46.4571 164.8555,-39.3298 144.9904,-33.4382"/>
<ellipse fill="none" stroke="#2d594b" cx="200.1587" cy="-81.8538" rx="4" ry="4"/>
<polygon fill="#2d594b" stroke="#2d594b" points="144.7785,-33.3781 136.3864,-26.3196 139.9684,-32.0134 135.1582,-30.6488 135.1582,-30.6488 135.1582,-30.6488 139.9684,-32.0134 133.93,-34.9779 144.7785,-33.3781 144.7785,-33.3781"/>
</g>
<!-- Variant&#45;&gt;ProductComponent -->
<g id="edge3" class="edge">
<title>Variant&#45;&gt;ProductComponent</title>
<path fill="none" stroke="#fe7a20" d="M156.5954,-100.687C112.5548,-96.3108 48.6734,-86.8422 33.4714,-68 26.1506,-58.9261 31.3658,-49.3588 40.4842,-41.0499"/>
<ellipse fill="none" stroke="#fe7a20" cx="160.5897" cy="-101.067" rx="4" ry="4"/>
<polygon fill="#fe7a20" stroke="#fe7a20" points="40.647,-40.9202 51.2725,-38.2094 44.5579,-37.8049 48.4687,-34.6896 48.4687,-34.6896 48.4687,-34.6896 44.5579,-37.8049 45.665,-31.1698 40.647,-40.9202 40.647,-40.9202"/>
<text text-anchor="middle" x="110.0925" y="-56.8" font-family="Times,serif" font-size="14.00" fill="#000000">child_product_components</text>
</g>
<!-- Account -->
<g id="node3" class="node">
<title>Account</title>
<ellipse fill="none" stroke="#000000" cx="370.8855" cy="-268.5" rx="40.1317" ry="18"/>
<text text-anchor="middle" x="370.8855" y="-264.3" font-family="Times,serif" font-size="14.00" fill="#000000">Account</text>
</g>
<!-- Customer -->
<g id="node4" class="node">
<title>Customer</title>
<ellipse fill="none" stroke="#000000" cx="418.8855" cy="-177" rx="44.4923" ry="18"/>
<text text-anchor="middle" x="418.8855" y="-172.8" font-family="Times,serif" font-size="14.00" fill="#000000">Customer</text>
</g>
<!-- Account&#45;&gt;Customer -->
<g id="edge7" class="edge">
<title>Account&#45;&gt;Customer</title>
<path fill="none" stroke="#af440a" d="M383.9171,-243.6584C390.3594,-231.3779 398.145,-216.5366 404.7329,-203.9783"/>
<ellipse fill="none" stroke="#af440a" cx="381.9986" cy="-247.3157" rx="4" ry="4"/>
<polygon fill="#af440a" stroke="#af440a" points="404.8497,-203.7556 413.4802,-196.9907 407.1725,-199.3279 409.4952,-194.9002 409.4952,-194.9002 409.4952,-194.9002 407.1725,-199.3279 405.5103,-192.8097 404.8497,-203.7556 404.8497,-203.7556"/>
</g>
<!-- Product -->
<g id="node5" class="node">
<title>Product</title>
<ellipse fill="none" stroke="#000000" cx="263.8855" cy="-177" rx="37.7352" ry="18"/>
<text text-anchor="middle" x="263.8855" y="-172.8" font-family="Times,serif" font-size="14.00" fill="#000000">Product</text>
</g>
<!-- Account&#45;&gt;Product -->
<g id="edge5" class="edge">
<title>Account&#45;&gt;Product</title>
<path fill="none" stroke="#5953e7" d="M345.9435,-247.1711C329.2167,-232.8674 307.2213,-214.0582 290.2135,-199.5142"/>
<ellipse fill="none" stroke="#5953e7" cx="349.2075" cy="-249.9622" rx="4" ry="4"/>
<polygon fill="#5953e7" stroke="#5953e7" points="289.91,-199.2546 285.2345,-189.3354 286.1099,-196.005 282.3099,-192.7554 282.3099,-192.7554 282.3099,-192.7554 286.1099,-196.005 279.3853,-196.1755 289.91,-199.2546 289.91,-199.2546"/>
</g>
<!-- Invoice -->
<g id="node9" class="node">
<title>Invoice</title>
<ellipse fill="none" stroke="#000000" cx="418.8855" cy="-104" rx="30.9619" ry="18"/>
<text text-anchor="middle" x="418.8855" y="-99.8" font-family="Times,serif" font-size="14.00" fill="#000000">Invoice</text>
</g>
<!-- Account&#45;&gt;Invoice -->
<g id="edge6" class="edge">
<title>Account&#45;&gt;Invoice</title>
<path fill="none" stroke="#057cb1" d="M363.751,-242.3835C358.8705,-219.5299 355.0428,-185.8778 365.8855,-159 371.2619,-145.6725 381.5847,-133.7722 391.7023,-124.4792"/>
<ellipse fill="none" stroke="#057cb1" cx="364.673" cy="-246.3843" rx="4" ry="4"/>
<polygon fill="#057cb1" stroke="#057cb1" points="391.7482,-124.4396 402.2566,-121.3053 395.5311,-121.1701 399.314,-117.9006 399.314,-117.9006 399.314,-117.9006 395.5311,-121.1701 396.3715,-114.496 391.7482,-124.4396 391.7482,-124.4396"/>
</g>
<!-- User -->
<g id="node14" class="node">
<title>User</title>
<ellipse fill="none" stroke="#000000" cx="536.8855" cy="-177" rx="27" ry="18"/>
<text text-anchor="middle" x="536.8855" y="-172.8" font-family="Times,serif" font-size="14.00" fill="#000000">User</text>
</g>
<!-- Account&#45;&gt;User -->
<g id="edge4" class="edge">
<title>Account&#45;&gt;User</title>
<path fill="none" stroke="#9a9514" d="M396.7226,-247.7456C404.0097,-242.3138 412.0829,-236.6753 419.8855,-232 447.1295,-215.6755 480.0025,-200.5934 503.9578,-190.368"/>
<ellipse fill="none" stroke="#9a9514" cx="393.4659" cy="-250.2215" rx="4" ry="4"/>
<polygon fill="#9a9514" stroke="#9a9514" points="504.0975,-190.3092 515.0602,-190.5746 508.7054,-188.3683 513.3134,-186.4275 513.3134,-186.4275 513.3134,-186.4275 508.7054,-188.3683 511.5666,-182.2803 504.0975,-190.3092 504.0975,-190.3092"/>
</g>
<!-- Transaction -->
<g id="node8" class="node">
<title>Transaction</title>
<ellipse fill="none" stroke="#000000" cx="448.8855" cy="-18" rx="51.5866" ry="18"/>
<text text-anchor="middle" x="448.8855" y="-13.8" font-family="Times,serif" font-size="14.00" fill="#000000">Transaction</text>
</g>
<!-- Customer&#45;&gt;Transaction -->
<g id="edge10" class="edge">
<title>Customer&#45;&gt;Transaction</title>
<path fill="none" stroke="#e07949" d="M440.6404,-153.9385C447.915,-144.7271 455.1248,-133.5649 458.8855,-122 466.984,-97.0957 462.7674,-67.2039 457.5505,-45.871"/>
<ellipse fill="none" stroke="#e07949" cx="437.9343" cy="-157.2004" rx="4" ry="4"/>
<polygon fill="#e07949" stroke="#e07949" points="457.5338,-45.8082 459.3069,-34.9866 456.2462,-40.9768 454.9587,-36.1454 454.9587,-36.1454 454.9587,-36.1454 456.2462,-40.9768 450.6104,-37.3043 457.5338,-45.8082 457.5338,-45.8082"/>
</g>
<!-- Customer&#45;&gt;Invoice -->
<g id="edge9" class="edge">
<title>Customer&#45;&gt;Invoice</title>
<path fill="none" stroke="#fb1456" d="M418.8855,-150.9079C418.8855,-144.9427 418.8855,-138.5729 418.8855,-132.512"/>
<ellipse fill="none" stroke="#fb1456" cx="418.8855" cy="-154.9551" rx="4" ry="4"/>
<polygon fill="#fb1456" stroke="#fb1456" points="418.8856,-132.0904 423.3855,-122.0903 418.8855,-127.0904 418.8855,-122.0904 418.8855,-122.0904 418.8855,-122.0904 418.8855,-127.0904 414.3855,-122.0904 418.8856,-132.0904 418.8856,-132.0904"/>
</g>
<!-- Address -->
<g id="node13" class="node">
<title>Address</title>
<ellipse fill="none" stroke="#000000" cx="330.8855" cy="-104" rx="39.18" ry="18"/>
<text text-anchor="middle" x="330.8855" y="-99.8" font-family="Times,serif" font-size="14.00" fill="#000000">Address</text>
</g>
<!-- Customer&#45;&gt;Address -->
<g id="edge8" class="edge">
<title>Customer&#45;&gt;Address</title>
<path fill="none" stroke="#ad3a2f" d="M392.8741,-155.4223C381.8295,-146.2603 368.9582,-135.583 357.8155,-126.3396"/>
<ellipse fill="none" stroke="#ad3a2f" cx="396.2768" cy="-158.2451" rx="4" ry="4"/>
<polygon fill="#ad3a2f" stroke="#ad3a2f" points="357.7547,-126.2893 352.9313,-116.4412 353.9065,-123.0969 350.0582,-119.9046 350.0582,-119.9046 350.0582,-119.9046 353.9065,-123.0969 347.1851,-123.3681 357.7547,-126.2893 357.7547,-126.2893"/>
</g>
<!-- Product&#45;&gt;Variant -->
<g id="edge11" class="edge">
<title>Product&#45;&gt;Variant</title>
<path fill="none" stroke="#0063ef" d="M243.6693,-153.9409C236.4759,-145.7359 228.3591,-136.4777 221.0856,-128.1814"/>
<ellipse fill="none" stroke="#0063ef" cx="246.4048" cy="-157.0611" rx="4" ry="4"/>
<polygon fill="#0063ef" stroke="#0063ef" points="221.0205,-128.1071 217.8118,-117.6211 217.7243,-124.3474 214.4281,-120.5877 214.4281,-120.5877 214.4281,-120.5877 217.7243,-124.3474 211.0444,-123.5542 221.0205,-128.1071 221.0205,-128.1071"/>
</g>
<!-- Product&#45;&gt;InvoiceLine -->
<g id="edge12" class="edge">
<title>Product&#45;&gt;InvoiceLine</title>
<path fill="none" stroke="#42784d" d="M263.8855,-150.6239C263.8855,-121.749 263.8855,-75.6357 263.8855,-46.0968"/>
<ellipse fill="none" stroke="#42784d" cx="263.8855" cy="-154.7607" rx="4" ry="4"/>
<polygon fill="#42784d" stroke="#42784d" points="263.8856,-46.0266 268.3855,-36.0266 263.8855,-41.0266 263.8855,-36.0266 263.8855,-36.0266 263.8855,-36.0266 263.8855,-41.0266 259.3855,-36.0267 263.8856,-46.0266 263.8856,-46.0266"/>
</g>
<!-- Role -->
<g id="node7" class="node">
<title>Role</title>
<ellipse fill="none" stroke="#000000" cx="666.8855" cy="-177" rx="27" ry="18"/>
<text text-anchor="middle" x="666.8855" y="-172.8" font-family="Times,serif" font-size="14.00" fill="#000000">Role</text>
</g>
<!-- UserRole -->
<g id="node15" class="node">
<title>UserRole</title>
<ellipse fill="none" stroke="#000000" cx="666.8855" cy="-104" rx="43.5146" ry="18"/>
<text text-anchor="middle" x="666.8855" y="-99.8" font-family="Times,serif" font-size="14.00" fill="#000000">UserRole</text>
</g>
<!-- Role&#45;&gt;UserRole -->
<g id="edge13" class="edge">
<title>Role&#45;&gt;UserRole</title>
<path fill="none" stroke="#e2ea78" d="M666.8855,-150.9079C666.8855,-144.9427 666.8855,-138.5729 666.8855,-132.512"/>
<ellipse fill="none" stroke="#e2ea78" cx="666.8855" cy="-154.9551" rx="4" ry="4"/>
<polygon fill="#e2ea78" stroke="#e2ea78" points="666.8856,-132.0904 671.3855,-122.0903 666.8855,-127.0904 666.8855,-122.0904 666.8855,-122.0904 666.8855,-122.0904 666.8855,-127.0904 662.3855,-122.0904 666.8856,-132.0904 666.8856,-132.0904"/>
</g>
<!-- Invoice&#45;&gt;InvoiceLine -->
<g id="edge14" class="edge">
<title>Invoice&#45;&gt;InvoiceLine</title>
<path fill="none" stroke="#f14845" d="M389.0673,-87.4557C363.4717,-73.2543 326.5268,-52.7558 299.4055,-37.7079"/>
<ellipse fill="none" stroke="#f14845" cx="392.8495" cy="-89.5542" rx="4" ry="4"/>
<polygon fill="#f14845" stroke="#f14845" points="299.3593,-37.6823 292.7983,-28.8957 294.9871,-35.2564 290.615,-32.8306 290.615,-32.8306 290.615,-32.8306 294.9871,-35.2564 288.4318,-36.7655 299.3593,-37.6823 299.3593,-37.6823"/>
</g>
<!-- Invoice&#45;&gt;Transaction -->
<g id="edge15" class="edge">
<title>Invoice&#45;&gt;Transaction</title>
<path fill="none" stroke="#34e91c" d="M427.7702,-78.5306C431.376,-68.1938 435.5508,-56.2262 439.2314,-45.675"/>
<ellipse fill="none" stroke="#34e91c" cx="426.419" cy="-82.4039" rx="4" ry="4"/>
<polygon fill="#34e91c" stroke="#34e91c" points="439.2804,-45.5343 446.8231,-37.5745 440.9273,-40.8133 442.5742,-36.0923 442.5742,-36.0923 442.5742,-36.0923 440.9273,-40.8133 438.3253,-34.6101 439.2804,-45.5343 439.2804,-45.5343"/>
</g>
<!-- AccessKey -->
<g id="node10" class="node">
<title>AccessKey</title>
<ellipse fill="none" stroke="#000000" cx="555.8855" cy="-104" rx="49.7706" ry="18"/>
<text text-anchor="middle" x="555.8855" y="-99.8" font-family="Times,serif" font-size="14.00" fill="#000000">AccessKey</text>
</g>
<!-- ApplicationRecord -->
<g id="node12" class="node">
<title>ApplicationRecord</title>
<ellipse fill="none" stroke="#000000" cx="505.8855" cy="-268.5" rx="77.2916" ry="18"/>
<text text-anchor="middle" x="505.8855" y="-264.3" font-family="Times,serif" font-size="14.00" fill="#000000">ApplicationRecord</text>
</g>
<!-- User&#45;&gt;Invoice -->
<g id="edge17" class="edge">
<title>User&#45;&gt;Invoice</title>
<path fill="none" stroke="#4491cf" d="M510.0227,-160.3815C491.7578,-149.082 467.5796,-134.1243 448.7165,-122.4547"/>
<ellipse fill="none" stroke="#4491cf" cx="513.4667" cy="-162.5121" rx="4" ry="4"/>
<polygon fill="#4491cf" stroke="#4491cf" points="448.7031,-122.4465 442.5664,-113.3585 444.451,-119.816 440.1989,-117.1854 440.1989,-117.1854 440.1989,-117.1854 444.451,-119.816 437.8314,-121.0123 448.7031,-122.4465 448.7031,-122.4465"/>
</g>
<!-- User&#45;&gt;AccessKey -->
<g id="edge18" class="edge">
<title>User&#45;&gt;AccessKey</title>
<path fill="none" stroke="#fe55c2" d="M543.6014,-151.1968C545.2053,-145.0345 546.9253,-138.426 548.5553,-132.1634"/>
<ellipse fill="none" stroke="#fe55c2" cx="542.5897" cy="-155.084" rx="4" ry="4"/>
<polygon fill="#fe55c2" stroke="#fe55c2" points="548.6582,-131.7679 555.532,-123.2239 549.9176,-126.9292 551.177,-122.0904 551.177,-122.0904 551.177,-122.0904 549.9176,-126.9292 546.8221,-120.9569 548.6582,-131.7679 548.6582,-131.7679"/>
</g>
<!-- User&#45;&gt;UserRole -->
<g id="edge16" class="edge">
<title>User&#45;&gt;UserRole</title>
<path fill="none" stroke="#d160cd" d="M565.0274,-161.1972C584.5938,-150.21 610.8159,-135.4853 631.754,-123.7277"/>
<ellipse fill="none" stroke="#d160cd" cx="561.26" cy="-163.3128" rx="4" ry="4"/>
<polygon fill="#d160cd" stroke="#d160cd" points="631.9443,-123.6209 642.8669,-122.6483 636.3039,-121.1727 640.6636,-118.7246 640.6636,-118.7246 640.6636,-118.7246 636.3039,-121.1727 638.4603,-114.8009 631.9443,-123.6209 631.9443,-123.6209"/>
</g>
</g>
</svg>
