<?xml version="1.0" encoding="UTF-8" standalone="no"?>
<!DOCTYPE svg PUBLIC "-//W3C//DTD SVG 1.1//EN"
 "http://www.w3.org/Graphics/SVG/1.1/DTD/svg11.dtd">
<!-- Generated by graphviz version 2.40.1 (20161225.0304)
 -->
<!-- Title: models_diagram Pages: 1 -->
<svg width="486pt" height="297pt"
 viewBox="0.00 0.00 486.08 297.00" xmlns="http://www.w3.org/2000/svg" xmlns:xlink="http://www.w3.org/1999/xlink">
<g id="graph0" class="graph" transform="scale(1 1) rotate(0) translate(4 293)">
<title>models_diagram</title>
<polygon fill="transparent" stroke="transparent" points="-4,4 -4,-293 482.0835,-293 482.0835,4 -4,4"/>
<!-- _diagram_info -->
<g id="node1" class="node">
<title>_diagram_info</title>
<text text-anchor="start" x="8" y="-274.6" font-family="Times,serif" font-size="13.00" fill="#000000">Models diagram</text>
<text text-anchor="start" x="8" y="-261.6" font-family="Times,serif" font-size="13.00" fill="#000000">Date: Apr 26 2018 &#45; 20:50</text>
<text text-anchor="start" x="8" y="-248.6" font-family="Times,serif" font-size="13.00" fill="#000000">Migration version: 20180420105539</text>
<text text-anchor="start" x="8" y="-235.6" font-family="Times,serif" font-size="13.00" fill="#000000">Generated by RailRoady 1.5.3</text>
<text text-anchor="start" x="8" y="-222.6" font-family="Times,serif" font-size="13.00" fill="#000000">http://railroady.prestonlee.com</text>
</g>
<!-- Variant -->
<g id="node2" class="node">
<title>Variant</title>
<ellipse fill="none" stroke="#000000" cx="127.6877" cy="-90" rx="35.7887" ry="18"/>
<text text-anchor="middle" x="127.6877" y="-85.8" font-family="Times,serif" font-size="14.00" fill="#000000">Variant</text>
</g>
<!-- OrderLine -->
<g id="node6" class="node">
<title>OrderLine</title>
<ellipse fill="none" stroke="#000000" cx="127.6877" cy="-18" rx="46.8719" ry="18"/>
<text text-anchor="middle" x="127.6877" y="-13.8" font-family="Times,serif" font-size="14.00" fill="#000000">OrderLine</text>
</g>
<!-- Variant&#45;&gt;OrderLine -->
<g id="edge1" class="edge">
<title>Variant&#45;&gt;OrderLine</title>
<path fill="none" stroke="#f2e4c7" d="M127.6877,-63.8144C127.6877,-58.2775 127.6877,-52.4053 127.6877,-46.7785"/>
<ellipse fill="none" stroke="#f2e4c7" cx="127.6878" cy="-67.8314" rx="4" ry="4"/>
<polygon fill="#f2e4c7" stroke="#f2e4c7" points="127.6878,-46.4133 132.1877,-36.4132 127.6878,-41.4133 127.6877,-36.4133 127.6877,-36.4133 127.6877,-36.4133 127.6878,-41.4133 123.1877,-36.4133 127.6878,-46.4133 127.6878,-46.4133"/>
</g>
<!-- Account -->
<g id="node3" class="node">
<title>Account</title>
<ellipse fill="none" stroke="#000000" cx="265.6877" cy="-252.5" rx="40.1317" ry="18"/>
<text text-anchor="middle" x="265.6877" y="-248.3" font-family="Times,serif" font-size="14.00" fill="#000000">Account</text>
</g>
<!-- Product -->
<g id="node5" class="node">
<title>Product</title>
<ellipse fill="none" stroke="#000000" cx="110.6877" cy="-162" rx="37.7352" ry="18"/>
<text text-anchor="middle" x="110.6877" y="-157.8" font-family="Times,serif" font-size="14.00" fill="#000000">Product</text>
</g>
<!-- Account&#45;&gt;Product -->
<g id="edge3" class="edge">
<title>Account&#45;&gt;Product</title>
<path fill="none" stroke="#8a3ecc" d="M238.9191,-231.2905C231.854,-226.0484 224.1223,-220.6166 216.6877,-216 194.4735,-202.2056 168.3048,-188.8474 147.5267,-178.8681"/>
<ellipse fill="none" stroke="#8a3ecc" cx="242.5345" cy="-234.0213" rx="4" ry="4"/>
<polygon fill="#8a3ecc" stroke="#8a3ecc" points="147.4264,-178.8206 140.3231,-170.4663 142.9097,-176.676 138.3929,-174.5314 138.3929,-174.5314 138.3929,-174.5314 142.9097,-176.676 136.4628,-178.5964 147.4264,-178.8206 147.4264,-178.8206"/>
</g>
<!-- Order -->
<g id="node8" class="node">
<title>Order</title>
<ellipse fill="none" stroke="#000000" cx="316.6877" cy="-90" rx="30.9619" ry="18"/>
<text text-anchor="middle" x="316.6877" y="-85.8" font-family="Times,serif" font-size="14.00" fill="#000000">Order</text>
</g>
<!-- Account&#45;&gt;Order -->
<g id="edge4" class="edge">
<title>Account&#45;&gt;Order</title>
<path fill="none" stroke="#e0960b" d="M280.2457,-227.7853C287.7035,-214.1159 296.3204,-196.5833 301.6877,-180 308.1813,-159.937 311.9776,-136.4024 314.1259,-118.4324"/>
<ellipse fill="none" stroke="#e0960b" cx="278.1978" cy="-231.4578" rx="4" ry="4"/>
<polygon fill="#e0960b" stroke="#e0960b" points="314.1464,-118.2444 319.7075,-108.7933 314.6903,-113.2741 315.2342,-108.3038 315.2342,-108.3038 315.2342,-108.3038 314.6903,-113.2741 310.7608,-107.8143 314.1464,-118.2444 314.1464,-118.2444"/>
</g>
<!-- User -->
<g id="node11" class="node">
<title>User</title>
<ellipse fill="none" stroke="#000000" cx="265.6877" cy="-162" rx="27" ry="18"/>
<text text-anchor="middle" x="265.6877" y="-157.8" font-family="Times,serif" font-size="14.00" fill="#000000">User</text>
</g>
<!-- Account&#45;&gt;User -->
<g id="edge2" class="edge">
<title>Account&#45;&gt;User</title>
<path fill="none" stroke="#8c49fa" d="M265.6877,-225.9687C265.6877,-214.8402 265.6877,-201.878 265.6877,-190.5429"/>
<ellipse fill="none" stroke="#8c49fa" cx="265.6878" cy="-230.186" rx="4" ry="4"/>
<polygon fill="#8c49fa" stroke="#8c49fa" points="265.6878,-190.2868 270.1877,-180.2867 265.6878,-185.2868 265.6877,-180.2868 265.6877,-180.2868 265.6877,-180.2868 265.6878,-185.2868 261.1877,-180.2868 265.6878,-190.2868 265.6878,-190.2868"/>
</g>
<!-- Customer -->
<g id="node4" class="node">
<title>Customer</title>
<ellipse fill="none" stroke="#000000" cx="400.6877" cy="-162" rx="44.4923" ry="18"/>
<text text-anchor="middle" x="400.6877" y="-157.8" font-family="Times,serif" font-size="14.00" fill="#000000">Customer</text>
</g>
<!-- Customer&#45;&gt;Order -->
<g id="edge6" class="edge">
<title>Customer&#45;&gt;Order</title>
<path fill="none" stroke="#a84ba0" d="M375.3516,-140.2833C364.7721,-131.2151 352.5088,-120.7038 341.9384,-111.6434"/>
<ellipse fill="none" stroke="#a84ba0" cx="378.5898" cy="-143.0589" rx="4" ry="4"/>
<polygon fill="#a84ba0" stroke="#a84ba0" points="341.8335,-111.5536 337.1695,-101.6289 338.0373,-108.2996 334.241,-105.0456 334.241,-105.0456 334.241,-105.0456 338.0373,-108.2996 331.3124,-108.4623 341.8335,-111.5536 341.8335,-111.5536"/>
</g>
<!-- Address -->
<g id="node10" class="node">
<title>Address</title>
<ellipse fill="none" stroke="#000000" cx="404.6877" cy="-90" rx="39.18" ry="18"/>
<text text-anchor="middle" x="404.6877" y="-85.8" font-family="Times,serif" font-size="14.00" fill="#000000">Address</text>
</g>
<!-- Customer&#45;&gt;Address -->
<g id="edge5" class="edge">
<title>Customer&#45;&gt;Address</title>
<path fill="none" stroke="#acf8c8" d="M402.1425,-135.8144C402.4501,-130.2775 402.7763,-124.4053 403.0889,-118.7785"/>
<ellipse fill="none" stroke="#acf8c8" cx="401.919" cy="-139.8375" rx="4" ry="4"/>
<polygon fill="#acf8c8" stroke="#acf8c8" points="403.11,-118.3979 408.1579,-108.6629 403.3874,-113.4056 403.6648,-108.4133 403.6648,-108.4133 403.6648,-108.4133 403.3874,-113.4056 399.1717,-108.1636 403.11,-118.3979 403.11,-118.3979"/>
</g>
<!-- Product&#45;&gt;Variant -->
<g id="edge7" class="edge">
<title>Product&#45;&gt;Variant</title>
<path fill="none" stroke="#062fa9" d="M116.8341,-135.9684C118.2079,-130.1499 119.6708,-123.9543 121.063,-118.0578"/>
<ellipse fill="none" stroke="#062fa9" cx="115.8968" cy="-139.9384" rx="4" ry="4"/>
<polygon fill="#062fa9" stroke="#062fa9" points="121.1602,-117.6458 127.8378,-108.9475 122.3092,-112.7796 123.4582,-107.9134 123.4582,-107.9134 123.4582,-107.9134 122.3092,-112.7796 119.0786,-106.8793 121.1602,-117.6458 121.1602,-117.6458"/>
</g>
<!-- Product&#45;&gt;OrderLine -->
<g id="edge8" class="edge">
<title>Product&#45;&gt;OrderLine</title>
<path fill="none" stroke="#0609b9" d="M94.4018,-137.5912C84.3414,-119.3727 74.7426,-93.9448 82.6877,-72 86.6318,-61.1063 93.8394,-50.8658 101.3475,-42.2923"/>
<ellipse fill="none" stroke="#0609b9" cx="96.6724" cy="-141.4737" rx="4" ry="4"/>
<polygon fill="#0609b9" stroke="#0609b9" points="101.4134,-42.2218 111.5296,-37.9894 104.8278,-38.5691 108.2422,-34.9164 108.2422,-34.9164 108.2422,-34.9164 104.8278,-38.5691 104.9548,-31.8435 101.4134,-42.2218 101.4134,-42.2218"/>
</g>
<!-- Role -->
<g id="node7" class="node">
<title>Role</title>
<ellipse fill="none" stroke="#000000" cx="193.6877" cy="-162" rx="27" ry="18"/>
<text text-anchor="middle" x="193.6877" y="-157.8" font-family="Times,serif" font-size="14.00" fill="#000000">Role</text>
</g>
<!-- UserRole -->
<g id="node12" class="node">
<title>UserRole</title>
<ellipse fill="none" stroke="#000000" cx="224.6877" cy="-90" rx="43.5146" ry="18"/>
<text text-anchor="middle" x="224.6877" y="-85.8" font-family="Times,serif" font-size="14.00" fill="#000000">UserRole</text>
</g>
<!-- Role&#45;&gt;UserRole -->
<g id="edge9" class="edge">
<title>Role&#45;&gt;UserRole</title>
<path fill="none" stroke="#eff956" d="M204.393,-137.1363C207.1884,-130.6436 210.2147,-123.6148 213.0558,-117.0162"/>
<ellipse fill="none" stroke="#eff956" cx="202.7738" cy="-140.8969" rx="4" ry="4"/>
<polygon fill="#eff956" stroke="#eff956" points="213.0826,-116.9537 221.1704,-109.5485 215.0599,-112.3613 217.0373,-107.7689 217.0373,-107.7689 217.0373,-107.7689 215.0599,-112.3613 212.9041,-105.9893 213.0826,-116.9537 213.0826,-116.9537"/>
</g>
<!-- Order&#45;&gt;OrderLine -->
<g id="edge10" class="edge">
<title>Order&#45;&gt;OrderLine</title>
<path fill="none" stroke="#fe02dc" d="M285.0748,-75.1304C282.5865,-74.0455 280.1028,-72.9898 277.6877,-72 242.944,-57.7598 202.8992,-43.4474 172.929,-33.1384"/>
<ellipse fill="none" stroke="#fe02dc" cx="288.8369" cy="-76.8078" rx="4" ry="4"/>
<polygon fill="#fe02dc" stroke="#fe02dc" points="172.6355,-33.0381 164.63,-25.5439 167.9046,-31.4199 163.1737,-29.8017 163.1737,-29.8017 163.1737,-29.8017 167.9046,-31.4199 161.7173,-34.0596 172.6355,-33.0381 172.6355,-33.0381"/>
</g>
<!-- ApplicationRecord -->
<g id="node9" class="node">
<title>ApplicationRecord</title>
<ellipse fill="none" stroke="#000000" cx="400.6877" cy="-252.5" rx="77.2916" ry="18"/>
<text text-anchor="middle" x="400.6877" y="-248.3" font-family="Times,serif" font-size="14.00" fill="#000000">ApplicationRecord</text>
</g>
<!-- User&#45;&gt;Order -->
<g id="edge12" class="edge">
<title>User&#45;&gt;Order</title>
<path fill="none" stroke="#239549" d="M281.9347,-139.0631C287.331,-131.4449 293.3668,-122.9237 298.8747,-115.1478"/>
<ellipse fill="none" stroke="#239549" cx="279.5725" cy="-142.398" rx="4" ry="4"/>
<polygon fill="#239549" stroke="#239549" points="299.0267,-114.9332 308.479,-109.374 301.9168,-110.853 304.8069,-106.7729 304.8069,-106.7729 304.8069,-106.7729 301.9168,-110.853 301.1348,-104.1718 299.0267,-114.9332 299.0267,-114.9332"/>
</g>
<!-- User&#45;&gt;UserRole -->
<g id="edge11" class="edge">
<title>User&#45;&gt;UserRole</title>
<path fill="none" stroke="#597c6d" d="M251.8652,-137.7263C248.0139,-130.9629 243.8095,-123.5797 239.8838,-116.6857"/>
<ellipse fill="none" stroke="#597c6d" cx="253.9919" cy="-141.4611" rx="4" ry="4"/>
<polygon fill="#597c6d" stroke="#597c6d" points="239.711,-116.3823 238.673,-105.4656 237.2368,-112.0374 234.7626,-107.6924 234.7626,-107.6924 234.7626,-107.6924 237.2368,-112.0374 230.8522,-109.9192 239.711,-116.3823 239.711,-116.3823"/>
</g>
</g>
</svg>
