<?xml version="1.0" encoding="UTF-8" standalone="no"?>
<!DOCTYPE svg PUBLIC "-//W3C//DTD SVG 1.1//EN"
 "http://www.w3.org/Graphics/SVG/1.1/DTD/svg11.dtd">
<!-- Generated by graphviz version 2.40.1 (20161225.0304)
 -->
<!-- Title: models_diagram Pages: 1 -->
<svg width="669pt" height="300pt"
 viewBox="0.00 0.00 668.75 300.00" xmlns="http://www.w3.org/2000/svg" xmlns:xlink="http://www.w3.org/1999/xlink">
<g id="graph0" class="graph" transform="scale(1 1) rotate(0) translate(4 296)">
<title>models_diagram</title>
<polygon fill="transparent" stroke="transparent" points="-4,4 -4,-296 664.7527,-296 664.7527,4 -4,4"/>
<!-- _diagram_info -->
<g id="node1" class="node">
<title>_diagram_info</title>
<text text-anchor="start" x="8" y="-277.6" font-family="Times,serif" font-size="13.00" fill="#000000">Models diagram</text>
<text text-anchor="start" x="8" y="-264.6" font-family="Times,serif" font-size="13.00" fill="#000000">Date: May 08 2018 &#45; 22:59</text>
<text text-anchor="start" x="8" y="-251.6" font-family="Times,serif" font-size="13.00" fill="#000000">Migration version: 20180426125629</text>
<text text-anchor="start" x="8" y="-238.6" font-family="Times,serif" font-size="13.00" fill="#000000">Generated by RailRoady 1.5.3</text>
<text text-anchor="start" x="8" y="-225.6" font-family="Times,serif" font-size="13.00" fill="#000000">http://railroady.prestonlee.com</text>
</g>
<!-- Variant -->
<g id="node2" class="node">
<title>Variant</title>
<ellipse fill="none" stroke="#000000" cx="489.6877" cy="-91" rx="35.7887" ry="18"/>
<text text-anchor="middle" x="489.6877" y="-86.8" font-family="Times,serif" font-size="14.00" fill="#000000">Variant</text>
</g>
<!-- Variant&#45;&gt;Variant -->
<g id="edge2" class="edge">
<title>Variant&#45;&gt;Variant</title>
<path fill="none" stroke="#2a58a5" d="M531.3581,-97.2941C538.4344,-96.4285 543.3318,-94.3305 543.3318,-91 543.3318,-87.9529 539.2325,-85.9375 533.1158,-84.9537"/>
<ellipse fill="none" stroke="#2a58a5" cx="526.9471" cy="-97.5331" rx="4" ry="4"/>
<polygon fill="#2a58a5" stroke="#2a58a5" points="532.9291,-84.9409 523.2636,-79.7611 527.941,-84.5956 522.9529,-84.2504 522.9529,-84.2504 522.9529,-84.2504 527.941,-84.5956 522.6422,-88.7397 532.9291,-84.9409 532.9291,-84.9409"/>
<text text-anchor="middle" x="602.0422" y="-86.8" font-family="Times,serif" font-size="14.00" fill="#000000">component_products</text>
</g>
<!-- OrderLine -->
<g id="node6" class="node">
<title>OrderLine</title>
<ellipse fill="none" stroke="#000000" cx="425.6877" cy="-18" rx="46.8719" ry="18"/>
<text text-anchor="middle" x="425.6877" y="-13.8" font-family="Times,serif" font-size="14.00" fill="#000000">OrderLine</text>
</g>
<!-- Variant&#45;&gt;OrderLine -->
<g id="edge1" class="edge">
<title>Variant&#45;&gt;OrderLine</title>
<path fill="none" stroke="#37262a" d="M469.87,-68.3954C462.7728,-60.3002 454.7359,-51.133 447.4808,-42.8577"/>
<ellipse fill="none" stroke="#37262a" cx="472.5282" cy="-71.4274" rx="4" ry="4"/>
<polygon fill="#37262a" stroke="#37262a" points="447.413,-42.7804 444.2044,-32.2944 444.1168,-39.0207 440.8206,-35.261 440.8206,-35.261 440.8206,-35.261 444.1168,-39.0207 437.4369,-38.2275 447.413,-42.7804 447.413,-42.7804"/>
</g>
<!-- Account -->
<g id="node3" class="node">
<title>Account</title>
<ellipse fill="none" stroke="#000000" cx="265.6877" cy="-255.5" rx="40.1317" ry="18"/>
<text text-anchor="middle" x="265.6877" y="-251.3" font-family="Times,serif" font-size="14.00" fill="#000000">Account</text>
</g>
<!-- Customer -->
<g id="node4" class="node">
<title>Customer</title>
<ellipse fill="none" stroke="#000000" cx="173.6877" cy="-164" rx="44.4923" ry="18"/>
<text text-anchor="middle" x="173.6877" y="-159.8" font-family="Times,serif" font-size="14.00" fill="#000000">Customer</text>
</g>
<!-- Account&#45;&gt;Customer -->
<g id="edge6" class="edge">
<title>Account&#45;&gt;Customer</title>
<path fill="none" stroke="#53711d" d="M243.0808,-233.0159C229.3484,-219.3582 211.8259,-201.9309 197.8247,-188.0058"/>
<ellipse fill="none" stroke="#53711d" cx="245.9774" cy="-235.8968" rx="4" ry="4"/>
<polygon fill="#53711d" stroke="#53711d" points="197.5453,-187.7279 193.6283,-177.4855 194.0002,-184.202 190.455,-180.6761 190.455,-180.6761 190.455,-180.6761 194.0002,-184.202 187.2817,-183.8668 197.5453,-187.7279 197.5453,-187.7279"/>
</g>
<!-- Product -->
<g id="node5" class="node">
<title>Product</title>
<ellipse fill="none" stroke="#000000" cx="455.6877" cy="-164" rx="37.7352" ry="18"/>
<text text-anchor="middle" x="455.6877" y="-159.8" font-family="Times,serif" font-size="14.00" fill="#000000">Product</text>
</g>
<!-- Account&#45;&gt;Product -->
<g id="edge4" class="edge">
<title>Account&#45;&gt;Product</title>
<path fill="none" stroke="#57ae9a" d="M291.3214,-234.3927C298.608,-228.96 306.7318,-223.4093 314.6877,-219 319.425,-216.3745 376.5649,-194.3101 416.6311,-178.9395"/>
<ellipse fill="none" stroke="#57ae9a" cx="288.0701" cy="-236.8813" rx="4" ry="4"/>
<polygon fill="#57ae9a" stroke="#57ae9a" points="416.8172,-178.8682 427.7654,-179.4904 421.4859,-177.0784 426.1546,-175.2886 426.1546,-175.2886 426.1546,-175.2886 421.4859,-177.0784 424.5438,-171.0868 416.8172,-178.8682 416.8172,-178.8682"/>
</g>
<!-- Order -->
<g id="node9" class="node">
<title>Order</title>
<ellipse fill="none" stroke="#000000" cx="261.6877" cy="-91" rx="30.9619" ry="18"/>
<text text-anchor="middle" x="261.6877" y="-86.8" font-family="Times,serif" font-size="14.00" fill="#000000">Order</text>
</g>
<!-- Account&#45;&gt;Order -->
<g id="edge5" class="edge">
<title>Account&#45;&gt;Order</title>
<path fill="none" stroke="#2078a6" d="M265.0497,-229.2601C264.3181,-199.1714 263.1232,-150.0336 262.3725,-119.161"/>
<ellipse fill="none" stroke="#2078a6" cx="265.1471" cy="-233.2683" rx="4" ry="4"/>
<polygon fill="#2078a6" stroke="#2078a6" points="262.3702,-119.0609 266.6257,-108.9544 262.2486,-114.0624 262.127,-109.0639 262.127,-109.0639 262.127,-109.0639 262.2486,-114.0624 257.6283,-109.1733 262.3702,-119.0609 262.3702,-119.0609"/>
</g>
<!-- User -->
<g id="node12" class="node">
<title>User</title>
<ellipse fill="none" stroke="#000000" cx="300.6877" cy="-164" rx="27" ry="18"/>
<text text-anchor="middle" x="300.6877" y="-159.8" font-family="Times,serif" font-size="14.00" fill="#000000">User</text>
</g>
<!-- Account&#45;&gt;User -->
<g id="edge3" class="edge">
<title>Account&#45;&gt;User</title>
<path fill="none" stroke="#8011dc" d="M275.5205,-229.7945C280.1024,-217.8161 285.5583,-203.5527 290.2171,-191.3732"/>
<ellipse fill="none" stroke="#8011dc" cx="274.0317" cy="-233.6865" rx="4" ry="4"/>
<polygon fill="#8011dc" stroke="#8011dc" points="290.3336,-191.0686 298.1093,-183.3363 292.12,-186.3986 293.9063,-181.7286 293.9063,-181.7286 293.9063,-181.7286 292.12,-186.3986 289.7033,-180.1208 290.3336,-191.0686 290.3336,-191.0686"/>
</g>
<!-- Transaction -->
<g id="node8" class="node">
<title>Transaction</title>
<ellipse fill="none" stroke="#000000" cx="183.6877" cy="-18" rx="51.5866" ry="18"/>
<text text-anchor="middle" x="183.6877" y="-13.8" font-family="Times,serif" font-size="14.00" fill="#000000">Transaction</text>
</g>
<!-- Customer&#45;&gt;Transaction -->
<g id="edge9" class="edge">
<title>Customer&#45;&gt;Transaction</title>
<path fill="none" stroke="#aa6ffe" d="M147.7488,-141.7389C138.9972,-132.5921 130.2872,-121.2653 125.6877,-109 120.0698,-94.0187 119.3692,-87.6995 125.6877,-73 131.1465,-60.3008 141.1383,-49.1572 151.3092,-40.2812"/>
<ellipse fill="none" stroke="#aa6ffe" cx="150.627" cy="-144.6018" rx="4" ry="4"/>
<polygon fill="#aa6ffe" stroke="#aa6ffe" points="151.3104,-40.2803 161.8994,-37.4303 155.18,-37.1139 159.0497,-33.9476 159.0497,-33.9476 159.0497,-33.9476 155.18,-37.1139 156.2,-30.4649 151.3104,-40.2803 151.3104,-40.2803"/>
</g>
<!-- Customer&#45;&gt;Order -->
<g id="edge8" class="edge">
<title>Customer&#45;&gt;Order</title>
<path fill="none" stroke="#33a216" d="M199.5006,-142.5871C210.9302,-133.1057 224.3468,-121.976 235.7866,-112.4862"/>
<ellipse fill="none" stroke="#33a216" cx="196.2964" cy="-145.2451" rx="4" ry="4"/>
<polygon fill="#33a216" stroke="#33a216" points="236.0139,-112.2976 246.5836,-109.3764 239.8622,-109.1053 243.7105,-105.913 243.7105,-105.913 243.7105,-105.913 239.8622,-109.1053 240.8374,-102.4495 236.0139,-112.2976 236.0139,-112.2976"/>
</g>
<!-- Address -->
<g id="node11" class="node">
<title>Address</title>
<ellipse fill="none" stroke="#000000" cx="173.6877" cy="-91" rx="39.18" ry="18"/>
<text text-anchor="middle" x="173.6877" y="-86.8" font-family="Times,serif" font-size="14.00" fill="#000000">Address</text>
</g>
<!-- Customer&#45;&gt;Address -->
<g id="edge7" class="edge">
<title>Customer&#45;&gt;Address</title>
<path fill="none" stroke="#b00381" d="M173.6877,-137.9079C173.6877,-131.9427 173.6877,-125.5729 173.6877,-119.512"/>
<ellipse fill="none" stroke="#b00381" cx="173.6878" cy="-141.9551" rx="4" ry="4"/>
<polygon fill="#b00381" stroke="#b00381" points="173.6878,-119.0904 178.1877,-109.0903 173.6878,-114.0904 173.6877,-109.0904 173.6877,-109.0904 173.6877,-109.0904 173.6878,-114.0904 169.1877,-109.0904 173.6878,-119.0904 173.6878,-119.0904"/>
</g>
<!-- Product&#45;&gt;Variant -->
<g id="edge10" class="edge">
<title>Product&#45;&gt;Variant</title>
<path fill="none" stroke="#a06aa7" d="M467.3198,-139.0253C470.4331,-132.3409 473.814,-125.0818 476.982,-118.2799"/>
<ellipse fill="none" stroke="#a06aa7" cx="465.607" cy="-142.7027" rx="4" ry="4"/>
<polygon fill="#a06aa7" stroke="#a06aa7" points="477.1931,-117.8266 485.4945,-110.6615 479.3042,-113.2941 481.4152,-108.7615 481.4152,-108.7615 481.4152,-108.7615 479.3042,-113.2941 477.336,-106.8616 477.1931,-117.8266 477.1931,-117.8266"/>
</g>
<!-- Product&#45;&gt;OrderLine -->
<g id="edge11" class="edge">
<title>Product&#45;&gt;OrderLine</title>
<path fill="none" stroke="#1929b2" d="M450.2713,-137.6398C444.9598,-111.7907 436.8902,-72.5187 431.4597,-46.0902"/>
<ellipse fill="none" stroke="#1929b2" cx="451.1437" cy="-141.8861" rx="4" ry="4"/>
<polygon fill="#1929b2" stroke="#1929b2" points="431.3923,-45.7618 433.7874,-35.0607 430.3859,-40.8641 429.3795,-35.9665 429.3795,-35.9665 429.3795,-35.9665 430.3859,-40.8641 424.9716,-36.8722 431.3923,-45.7618 431.3923,-45.7618"/>
</g>
<!-- Role -->
<g id="node7" class="node">
<title>Role</title>
<ellipse fill="none" stroke="#000000" cx="372.6877" cy="-164" rx="27" ry="18"/>
<text text-anchor="middle" x="372.6877" y="-159.8" font-family="Times,serif" font-size="14.00" fill="#000000">Role</text>
</g>
<!-- UserRole -->
<g id="node13" class="node">
<title>UserRole</title>
<ellipse fill="none" stroke="#000000" cx="353.6877" cy="-91" rx="43.5146" ry="18"/>
<text text-anchor="middle" x="353.6877" y="-86.8" font-family="Times,serif" font-size="14.00" fill="#000000">UserRole</text>
</g>
<!-- Role&#45;&gt;UserRole -->
<g id="edge12" class="edge">
<title>Role&#45;&gt;UserRole</title>
<path fill="none" stroke="#2b4d52" d="M365.9718,-138.1968C364.368,-132.0345 362.6479,-125.426 361.0179,-119.1634"/>
<ellipse fill="none" stroke="#2b4d52" cx="366.9835" cy="-142.084" rx="4" ry="4"/>
<polygon fill="#2b4d52" stroke="#2b4d52" points="360.9151,-118.7679 362.7511,-107.9569 359.6556,-113.9292 358.3962,-109.0904 358.3962,-109.0904 358.3962,-109.0904 359.6556,-113.9292 354.0413,-110.2239 360.9151,-118.7679 360.9151,-118.7679"/>
</g>
<!-- Order&#45;&gt;OrderLine -->
<g id="edge13" class="edge">
<title>Order&#45;&gt;OrderLine</title>
<path fill="none" stroke="#e0e2d1" d="M293.3801,-76.3152C295.8504,-75.1882 298.3083,-74.0725 300.6877,-73 328.8338,-60.3139 360.6876,-46.3034 385.1951,-35.5981"/>
<ellipse fill="none" stroke="#e0e2d1" cx="289.6342" cy="-78.0319" rx="4" ry="4"/>
<polygon fill="#e0e2d1" stroke="#e0e2d1" points="385.375,-35.5197 396.3401,-35.645 389.9577,-33.5201 394.5405,-31.5205 394.5405,-31.5205 394.5405,-31.5205 389.9577,-33.5201 392.7409,-27.396 385.375,-35.5197 385.375,-35.5197"/>
</g>
<!-- Order&#45;&gt;Transaction -->
<g id="edge14" class="edge">
<title>Order&#45;&gt;Transaction</title>
<path fill="none" stroke="#3720f1" d="M239.202,-69.9557C229.8438,-61.1973 218.9296,-50.9828 209.2671,-41.9397"/>
<ellipse fill="none" stroke="#3720f1" cx="242.2255" cy="-72.7853" rx="4" ry="4"/>
<polygon fill="#3720f1" stroke="#3720f1" points="209.1412,-41.8218 204.9149,-31.7031 205.4906,-38.4052 201.84,-34.9886 201.84,-34.9886 201.84,-34.9886 205.4906,-38.4052 198.765,-38.2742 209.1412,-41.8218 209.1412,-41.8218"/>
</g>
<!-- ApplicationRecord -->
<g id="node10" class="node">
<title>ApplicationRecord</title>
<ellipse fill="none" stroke="#000000" cx="400.6877" cy="-255.5" rx="77.2916" ry="18"/>
<text text-anchor="middle" x="400.6877" y="-251.3" font-family="Times,serif" font-size="14.00" fill="#000000">ApplicationRecord</text>
</g>
<!-- User&#45;&gt;Order -->
<g id="edge16" class="edge">
<title>User&#45;&gt;Order</title>
<path fill="none" stroke="#c7b0e8" d="M287.6381,-139.5737C283.8901,-132.5583 279.7838,-124.8722 275.9659,-117.7257"/>
<ellipse fill="none" stroke="#c7b0e8" cx="289.5604" cy="-143.1719" rx="4" ry="4"/>
<polygon fill="#c7b0e8" stroke="#c7b0e8" points="275.7112,-117.249 274.9681,-106.3083 273.3551,-112.8389 270.999,-108.4288 270.999,-108.4288 270.999,-108.4288 273.3551,-112.8389 267.0299,-110.5493 275.7112,-117.249 275.7112,-117.249"/>
</g>
<!-- User&#45;&gt;UserRole -->
<g id="edge15" class="edge">
<title>User&#45;&gt;UserRole</title>
<path fill="none" stroke="#65ebd3" d="M317.5356,-140.7944C323.1604,-133.0471 329.4572,-124.3741 335.1999,-116.4644"/>
<ellipse fill="none" stroke="#65ebd3" cx="315.0643" cy="-144.1983" rx="4" ry="4"/>
<polygon fill="#65ebd3" stroke="#65ebd3" points="335.2806,-116.3531 344.7973,-110.9048 338.2182,-112.307 341.1558,-108.261 341.1558,-108.261 341.1558,-108.261 338.2182,-112.307 337.5143,-105.6171 335.2806,-116.3531 335.2806,-116.3531"/>
</g>
</g>
</svg>
