<?xml version="1.0" encoding="UTF-8" standalone="no"?>
<!DOCTYPE svg PUBLIC "-//W3C//DTD SVG 1.1//EN"
 "http://www.w3.org/Graphics/SVG/1.1/DTD/svg11.dtd">
<!-- Generated by graphviz version 2.40.1 (20161225.0304)
 -->
<!-- Title: models_diagram Pages: 1 -->
<svg width="1015pt" height="677pt"
 viewBox="0.00 0.00 1015.08 677.00" xmlns="http://www.w3.org/2000/svg" xmlns:xlink="http://www.w3.org/1999/xlink">
<g id="graph0" class="graph" transform="scale(1 1) rotate(0) translate(4 673)">
<title>models_diagram</title>
<polygon fill="transparent" stroke="transparent" points="-4,4 -4,-673 1011.0835,-673 1011.0835,4 -4,4"/>
<!-- _diagram_info -->
<g id="node1" class="node">
<title>_diagram_info</title>
<text text-anchor="start" x="8" y="-605.6" font-family="Times,serif" font-size="13.00" fill="#000000">Models diagram</text>
<text text-anchor="start" x="8" y="-592.6" font-family="Times,serif" font-size="13.00" fill="#000000">Date: Apr 23 2018 &#45; 12:51</text>
<text text-anchor="start" x="8" y="-579.6" font-family="Times,serif" font-size="13.00" fill="#000000">Migration version: 20180417043130</text>
<text text-anchor="start" x="8" y="-566.6" font-family="Times,serif" font-size="13.00" fill="#000000">Generated by RailRoady 1.5.3</text>
<text text-anchor="start" x="8" y="-553.6" font-family="Times,serif" font-size="13.00" fill="#000000">http://railroady.prestonlee.com</text>
</g>
<!-- Variant -->
<g id="node2" class="node">
<title>Variant</title>
<path fill="none" stroke="#000000" d="M165.8254,-.5C165.8254,-.5 389.55,-.5 389.55,-.5 395.55,-.5 401.55,-6.5 401.55,-12.5 401.55,-12.5 401.55,-172.5 401.55,-172.5 401.55,-178.5 395.55,-184.5 389.55,-184.5 389.55,-184.5 165.8254,-184.5 165.8254,-184.5 159.8254,-184.5 153.8254,-178.5 153.8254,-172.5 153.8254,-172.5 153.8254,-12.5 153.8254,-12.5 153.8254,-6.5 159.8254,-.5 165.8254,-.5"/>
<text text-anchor="middle" x="277.6877" y="-169.3" font-family="Times,serif" font-size="14.00" fill="#000000">Variant</text>
<polyline fill="none" stroke="#000000" points="153.8254,-162.5 401.55,-162.5 "/>
<text text-anchor="start" x="161.8254" y="-147.3" font-family="Times,serif" font-size="14.00" fill="#000000">updated_at :timestamp without time zone</text>
<text text-anchor="start" x="161.8254" y="-133.3" font-family="Times,serif" font-size="14.00" fill="#000000">product_id :integer</text>
<text text-anchor="start" x="161.8254" y="-119.3" font-family="Times,serif" font-size="14.00" fill="#000000">title :character varying</text>
<text text-anchor="start" x="161.8254" y="-105.3" font-family="Times,serif" font-size="14.00" fill="#000000">sku :character varying</text>
<text text-anchor="start" x="161.8254" y="-91.3" font-family="Times,serif" font-size="14.00" fill="#000000">price :numeric</text>
<text text-anchor="start" x="161.8254" y="-77.3" font-family="Times,serif" font-size="14.00" fill="#000000">compare_at_price :numeric</text>
<text text-anchor="start" x="161.8254" y="-63.3" font-family="Times,serif" font-size="14.00" fill="#000000">barcode :character varying</text>
<text text-anchor="start" x="161.8254" y="-49.3" font-family="Times,serif" font-size="14.00" fill="#000000">variant_status :integer</text>
<text text-anchor="start" x="161.8254" y="-35.3" font-family="Times,serif" font-size="14.00" fill="#000000">status :integer</text>
<text text-anchor="start" x="161.8254" y="-21.3" font-family="Times,serif" font-size="14.00" fill="#000000">created_at :timestamp without time zone</text>
<text text-anchor="start" x="161.8254" y="-7.3" font-family="Times,serif" font-size="14.00" fill="#000000">id :bigint</text>
</g>
<!-- Account -->
<g id="node3" class="node">
<title>Account</title>
<path fill="none" stroke="#000000" d="M237.8254,-512.5C237.8254,-512.5 461.55,-512.5 461.55,-512.5 467.55,-512.5 473.55,-518.5 473.55,-524.5 473.55,-524.5 473.55,-642.5 473.55,-642.5 473.55,-648.5 467.55,-654.5 461.55,-654.5 461.55,-654.5 237.8254,-654.5 237.8254,-654.5 231.8254,-654.5 225.8254,-648.5 225.8254,-642.5 225.8254,-642.5 225.8254,-524.5 225.8254,-524.5 225.8254,-518.5 231.8254,-512.5 237.8254,-512.5"/>
<text text-anchor="middle" x="349.6877" y="-639.3" font-family="Times,serif" font-size="14.00" fill="#000000">Account</text>
<polyline fill="none" stroke="#000000" points="225.8254,-632.5 473.55,-632.5 "/>
<text text-anchor="start" x="233.8254" y="-617.3" font-family="Times,serif" font-size="14.00" fill="#000000">updated_at :timestamp without time zone</text>
<text text-anchor="start" x="233.8254" y="-603.3" font-family="Times,serif" font-size="14.00" fill="#000000">name :character varying</text>
<text text-anchor="start" x="233.8254" y="-589.3" font-family="Times,serif" font-size="14.00" fill="#000000">company :character varying</text>
<text text-anchor="start" x="233.8254" y="-575.3" font-family="Times,serif" font-size="14.00" fill="#000000">account_status :integer</text>
<text text-anchor="start" x="233.8254" y="-561.3" font-family="Times,serif" font-size="14.00" fill="#000000">account_type :integer</text>
<text text-anchor="start" x="233.8254" y="-547.3" font-family="Times,serif" font-size="14.00" fill="#000000">status :integer</text>
<text text-anchor="start" x="233.8254" y="-533.3" font-family="Times,serif" font-size="14.00" fill="#000000">created_at :timestamp without time zone</text>
<text text-anchor="start" x="233.8254" y="-519.3" font-family="Times,serif" font-size="14.00" fill="#000000">id :bigint</text>
</g>
<!-- Account&#45;&gt;Variant -->
<g id="edge4" class="edge">
<title>Account&#45;&gt;Variant</title>
<path fill="none" stroke="#ba32e0" d="M228.3352,-505.0349C216.0214,-492.15 205.2757,-477.7797 197.6877,-462 151.269,-365.4697 168.2492,-323.9862 197.6877,-221 200.2876,-211.9048 203.738,-202.8268 207.7484,-193.9409"/>
<polygon fill="#ba32e0" stroke="#ba32e0" points="228.681,-505.3805 232.5736,-515.6322 232.2177,-508.9148 235.7545,-512.4491 235.7545,-512.4491 235.7545,-512.4491 232.2177,-508.9148 238.9354,-509.266 228.681,-505.3805 228.681,-505.3805"/>
<polygon fill="#ba32e0" stroke="#ba32e0" points="207.8213,-193.7876 216.1815,-186.6914 209.9697,-189.2727 212.1181,-184.7578 212.1181,-184.7578 212.1181,-184.7578 209.9697,-189.2727 208.0547,-182.8242 207.8213,-193.7876 207.8213,-193.7876"/>
</g>
<!-- Product -->
<g id="node4" class="node">
<title>Product</title>
<path fill="none" stroke="#000000" d="M218.8254,-249.5C218.8254,-249.5 442.55,-249.5 442.55,-249.5 448.55,-249.5 454.55,-255.5 454.55,-261.5 454.55,-261.5 454.55,-421.5 454.55,-421.5 454.55,-427.5 448.55,-433.5 442.55,-433.5 442.55,-433.5 218.8254,-433.5 218.8254,-433.5 212.8254,-433.5 206.8254,-427.5 206.8254,-421.5 206.8254,-421.5 206.8254,-261.5 206.8254,-261.5 206.8254,-255.5 212.8254,-249.5 218.8254,-249.5"/>
<text text-anchor="middle" x="330.6877" y="-418.3" font-family="Times,serif" font-size="14.00" fill="#000000">Product</text>
<polyline fill="none" stroke="#000000" points="206.8254,-411.5 454.55,-411.5 "/>
<text text-anchor="start" x="214.8254" y="-396.3" font-family="Times,serif" font-size="14.00" fill="#000000">updated_at :timestamp without time zone</text>
<text text-anchor="start" x="214.8254" y="-382.3" font-family="Times,serif" font-size="14.00" fill="#000000">account_id :integer</text>
<text text-anchor="start" x="214.8254" y="-368.3" font-family="Times,serif" font-size="14.00" fill="#000000">title :character varying</text>
<text text-anchor="start" x="214.8254" y="-354.3" font-family="Times,serif" font-size="14.00" fill="#000000">vendor :character varying</text>
<text text-anchor="start" x="214.8254" y="-340.3" font-family="Times,serif" font-size="14.00" fill="#000000">handle :character varying</text>
<text text-anchor="start" x="214.8254" y="-326.3" font-family="Times,serif" font-size="14.00" fill="#000000">product_type :integer</text>
<text text-anchor="start" x="214.8254" y="-312.3" font-family="Times,serif" font-size="14.00" fill="#000000">status :integer</text>
<text text-anchor="start" x="214.8254" y="-298.3" font-family="Times,serif" font-size="14.00" fill="#000000">product_status :integer</text>
<text text-anchor="start" x="214.8254" y="-284.3" font-family="Times,serif" font-size="14.00" fill="#000000">created_by_id :integer</text>
<text text-anchor="start" x="214.8254" y="-270.3" font-family="Times,serif" font-size="14.00" fill="#000000">created_at :timestamp without time zone</text>
<text text-anchor="start" x="214.8254" y="-256.3" font-family="Times,serif" font-size="14.00" fill="#000000">id :bigint</text>
</g>
<!-- Account&#45;&gt;Product -->
<g id="edge2" class="edge">
<title>Account&#45;&gt;Product</title>
<path fill="none" stroke="#96682e" d="M343.449,-504.0376C341.9416,-484.8389 340.3096,-464.0523 338.7324,-443.9639"/>
<ellipse fill="none" stroke="#96682e" cx="343.7768" cy="-508.2132" rx="4" ry="4"/>
<polygon fill="#96682e" stroke="#96682e" points="338.7214,-443.8222 342.4248,-433.5006 338.33,-438.8376 337.9386,-433.8529 337.9386,-433.8529 337.9386,-433.8529 338.33,-438.8376 333.4524,-434.2052 338.7214,-443.8222 338.7214,-443.8222"/>
</g>
<!-- User -->
<g id="node7" class="node">
<title>User</title>
<path fill="none" stroke="#000000" d="M522.8254,-221.5C522.8254,-221.5 746.55,-221.5 746.55,-221.5 752.55,-221.5 758.55,-227.5 758.55,-233.5 758.55,-233.5 758.55,-449.5 758.55,-449.5 758.55,-455.5 752.55,-461.5 746.55,-461.5 746.55,-461.5 522.8254,-461.5 522.8254,-461.5 516.8254,-461.5 510.8254,-455.5 510.8254,-449.5 510.8254,-449.5 510.8254,-233.5 510.8254,-233.5 510.8254,-227.5 516.8254,-221.5 522.8254,-221.5"/>
<text text-anchor="middle" x="634.6877" y="-446.3" font-family="Times,serif" font-size="14.00" fill="#000000">User</text>
<polyline fill="none" stroke="#000000" points="510.8254,-439.5 758.55,-439.5 "/>
<text text-anchor="start" x="518.8254" y="-424.3" font-family="Times,serif" font-size="14.00" fill="#000000">updated_at :timestamp without time zone</text>
<text text-anchor="start" x="518.8254" y="-410.3" font-family="Times,serif" font-size="14.00" fill="#000000">account_id :integer</text>
<text text-anchor="start" x="518.8254" y="-396.3" font-family="Times,serif" font-size="14.00" fill="#000000">email :character varying</text>
<text text-anchor="start" x="518.8254" y="-382.3" font-family="Times,serif" font-size="14.00" fill="#000000">first_name :character varying</text>
<text text-anchor="start" x="518.8254" y="-368.3" font-family="Times,serif" font-size="14.00" fill="#000000">middle_name :character varying</text>
<text text-anchor="start" x="518.8254" y="-354.3" font-family="Times,serif" font-size="14.00" fill="#000000">last_name :character varying</text>
<text text-anchor="start" x="518.8254" y="-340.3" font-family="Times,serif" font-size="14.00" fill="#000000">suffix :character varying</text>
<text text-anchor="start" x="518.8254" y="-326.3" font-family="Times,serif" font-size="14.00" fill="#000000">title :character varying</text>
<text text-anchor="start" x="518.8254" y="-312.3" font-family="Times,serif" font-size="14.00" fill="#000000">password_digest :character varying</text>
<text text-anchor="start" x="518.8254" y="-298.3" font-family="Times,serif" font-size="14.00" fill="#000000">user_type :integer</text>
<text text-anchor="start" x="518.8254" y="-284.3" font-family="Times,serif" font-size="14.00" fill="#000000">user_status :integer</text>
<text text-anchor="start" x="518.8254" y="-270.3" font-family="Times,serif" font-size="14.00" fill="#000000">token :character varying</text>
<text text-anchor="start" x="518.8254" y="-256.3" font-family="Times,serif" font-size="14.00" fill="#000000">status :integer</text>
<text text-anchor="start" x="518.8254" y="-242.3" font-family="Times,serif" font-size="14.00" fill="#000000">created_at :timestamp without time zone</text>
<text text-anchor="start" x="518.8254" y="-228.3" font-family="Times,serif" font-size="14.00" fill="#000000">id :bigint</text>
</g>
<!-- Account&#45;&gt;User -->
<g id="edge1" class="edge">
<title>Account&#45;&gt;User</title>
<path fill="none" stroke="#9977c4" d="M443.2173,-506.8354C461.0428,-492.0435 479.496,-476.606 496.6877,-462 498.7027,-460.2882 500.7322,-458.5604 502.7733,-456.8197"/>
<ellipse fill="none" stroke="#9977c4" cx="439.7614" cy="-509.7003" rx="4" ry="4"/>
<polygon fill="#9977c4" stroke="#9977c4" points="503.0957,-456.5442 513.621,-453.4673 506.8964,-453.2954 510.6971,-450.0466 510.6971,-450.0466 510.6971,-450.0466 506.8964,-453.2954 507.7732,-446.6259 503.0957,-456.5442 503.0957,-456.5442"/>
</g>
<!-- Order -->
<g id="node9" class="node">
<title>Order</title>
<ellipse fill="none" stroke="#000000" cx="515.6877" cy="-92.5" rx="30.9619" ry="18"/>
<text text-anchor="middle" x="515.6877" y="-88.3" font-family="Times,serif" font-size="14.00" fill="#000000">Order</text>
</g>
<!-- Account&#45;&gt;Order -->
<g id="edge3" class="edge">
<title>Account&#45;&gt;Order</title>
<path fill="none" stroke="#ebba8c" d="M434.9898,-506.0071C446.1496,-492.3429 456.2654,-477.4963 463.6877,-462 478.3843,-431.3167 503.9757,-202.1865 512.6858,-120.9529"/>
<ellipse fill="none" stroke="#ebba8c" cx="432.3656" cy="-509.1355" rx="4" ry="4"/>
<polygon fill="#ebba8c" stroke="#ebba8c" points="512.6935,-120.8806 518.2291,-111.4144 513.224,-115.9088 513.7544,-110.937 513.7544,-110.937 513.7544,-110.937 513.224,-115.9088 509.2798,-110.4596 512.6935,-120.8806 512.6935,-120.8806"/>
</g>
<!-- Product&#45;&gt;Variant -->
<g id="edge5" class="edge">
<title>Product&#45;&gt;Variant</title>
<path fill="none" stroke="#4490ac" d="M309.3989,-241.4824C306.1154,-226.0563 302.7208,-210.1081 299.4276,-194.6363"/>
<ellipse fill="none" stroke="#4490ac" cx="310.2703" cy="-245.5767" rx="4" ry="4"/>
<polygon fill="#4490ac" stroke="#4490ac" points="299.3623,-194.3291 301.6817,-183.6114 298.3213,-189.4387 297.2803,-184.5482 297.2803,-184.5482 297.2803,-184.5482 298.3213,-189.4387 292.8789,-185.4851 299.3623,-194.3291 299.3623,-194.3291"/>
</g>
<!-- Role -->
<g id="node5" class="node">
<title>Role</title>
<path fill="none" stroke="#000000" d="M598.8254,-498.5C598.8254,-498.5 822.55,-498.5 822.55,-498.5 828.55,-498.5 834.55,-504.5 834.55,-510.5 834.55,-510.5 834.55,-656.5 834.55,-656.5 834.55,-662.5 828.55,-668.5 822.55,-668.5 822.55,-668.5 598.8254,-668.5 598.8254,-668.5 592.8254,-668.5 586.8254,-662.5 586.8254,-656.5 586.8254,-656.5 586.8254,-510.5 586.8254,-510.5 586.8254,-504.5 592.8254,-498.5 598.8254,-498.5"/>
<text text-anchor="middle" x="710.6877" y="-653.3" font-family="Times,serif" font-size="14.00" fill="#000000">Role</text>
<polyline fill="none" stroke="#000000" points="586.8254,-646.5 834.55,-646.5 "/>
<text text-anchor="start" x="594.8254" y="-631.3" font-family="Times,serif" font-size="14.00" fill="#000000">updated_at :timestamp without time zone</text>
<text text-anchor="start" x="594.8254" y="-617.3" font-family="Times,serif" font-size="14.00" fill="#000000">name :character varying</text>
<text text-anchor="start" x="594.8254" y="-603.3" font-family="Times,serif" font-size="14.00" fill="#000000">description :character varying</text>
<text text-anchor="start" x="594.8254" y="-589.3" font-family="Times,serif" font-size="14.00" fill="#000000">level :integer</text>
<text text-anchor="start" x="594.8254" y="-575.3" font-family="Times,serif" font-size="14.00" fill="#000000">role_type :integer</text>
<text text-anchor="start" x="594.8254" y="-561.3" font-family="Times,serif" font-size="14.00" fill="#000000">role_status :integer</text>
<text text-anchor="start" x="594.8254" y="-547.3" font-family="Times,serif" font-size="14.00" fill="#000000">code :character varying</text>
<text text-anchor="start" x="594.8254" y="-533.3" font-family="Times,serif" font-size="14.00" fill="#000000">status :integer</text>
<text text-anchor="start" x="594.8254" y="-519.3" font-family="Times,serif" font-size="14.00" fill="#000000">created_at :timestamp without time zone</text>
<text text-anchor="start" x="594.8254" y="-505.3" font-family="Times,serif" font-size="14.00" fill="#000000">id :bigint</text>
</g>
<!-- Role&#45;&gt;User -->
<g id="edge7" class="edge">
<title>Role&#45;&gt;User</title>
<path fill="none" stroke="#efdd63" d="M680.8111,-488.3664C679.0461,-482.7463 677.2566,-477.0481 675.4587,-471.3234"/>
<polygon fill="#efdd63" stroke="#efdd63" points="680.8967,-488.6393 679.5997,-499.5282 682.3948,-493.4096 683.893,-498.1799 683.893,-498.1799 683.893,-498.1799 682.3948,-493.4096 688.1863,-496.8315 680.8967,-488.6393 680.8967,-488.6393"/>
<polygon fill="#efdd63" stroke="#efdd63" points="675.4244,-471.2139 676.7214,-460.325 673.9263,-466.4436 672.4281,-461.6733 672.4281,-461.6733 672.4281,-461.6733 673.9263,-466.4436 668.1349,-463.0216 675.4244,-471.2139 675.4244,-471.2139"/>
</g>
<!-- UserRole -->
<g id="node8" class="node">
<title>UserRole</title>
<path fill="none" stroke="#000000" d="M641.8254,-35.5C641.8254,-35.5 865.55,-35.5 865.55,-35.5 871.55,-35.5 877.55,-41.5 877.55,-47.5 877.55,-47.5 877.55,-137.5 877.55,-137.5 877.55,-143.5 871.55,-149.5 865.55,-149.5 865.55,-149.5 641.8254,-149.5 641.8254,-149.5 635.8254,-149.5 629.8254,-143.5 629.8254,-137.5 629.8254,-137.5 629.8254,-47.5 629.8254,-47.5 629.8254,-41.5 635.8254,-35.5 641.8254,-35.5"/>
<text text-anchor="middle" x="753.6877" y="-134.3" font-family="Times,serif" font-size="14.00" fill="#000000">UserRole</text>
<polyline fill="none" stroke="#000000" points="629.8254,-127.5 877.55,-127.5 "/>
<text text-anchor="start" x="637.8254" y="-112.3" font-family="Times,serif" font-size="14.00" fill="#000000">id :bigint</text>
<text text-anchor="start" x="637.8254" y="-98.3" font-family="Times,serif" font-size="14.00" fill="#000000">role_id :integer</text>
<text text-anchor="start" x="637.8254" y="-84.3" font-family="Times,serif" font-size="14.00" fill="#000000">user_id :integer</text>
<text text-anchor="start" x="637.8254" y="-70.3" font-family="Times,serif" font-size="14.00" fill="#000000">status :integer</text>
<text text-anchor="start" x="637.8254" y="-56.3" font-family="Times,serif" font-size="14.00" fill="#000000">created_at :timestamp without time zone</text>
<text text-anchor="start" x="637.8254" y="-42.3" font-family="Times,serif" font-size="14.00" fill="#000000">updated_at :timestamp without time zone</text>
</g>
<!-- Role&#45;&gt;UserRole -->
<g id="edge6" class="edge">
<title>Role&#45;&gt;UserRole</title>
<path fill="none" stroke="#80a092" d="M759.1695,-490.6391C762.6192,-481.1563 765.5677,-471.5106 767.6877,-462 790.7654,-358.472 778.2213,-234.6595 766.4242,-159.8736"/>
<ellipse fill="none" stroke="#80a092" cx="757.7197" cy="-494.4634" rx="4" ry="4"/>
<polygon fill="#80a092" stroke="#80a092" points="766.3678,-159.5249 769.2104,-148.9338 765.5681,-154.5892 764.7683,-149.6536 764.7683,-149.6536 764.7683,-149.6536 765.5681,-154.5892 760.3263,-150.3734 766.3678,-159.5249 766.3678,-159.5249"/>
</g>
<!-- ApplicationRecord -->
<g id="node6" class="node">
<title>ApplicationRecord</title>
<ellipse fill="none" stroke="#000000" cx="929.6877" cy="-583.5" rx="77.2916" ry="18"/>
<text text-anchor="middle" x="929.6877" y="-579.3" font-family="Times,serif" font-size="14.00" fill="#000000">ApplicationRecord</text>
</g>
<!-- User&#45;&gt;UserRole -->
<g id="edge8" class="edge">
<title>User&#45;&gt;UserRole</title>
<path fill="none" stroke="#cffd1a" d="M695.5977,-214.0498C704.6958,-195.0126 713.7499,-176.0674 721.9085,-158.996"/>
<ellipse fill="none" stroke="#cffd1a" cx="693.8212" cy="-217.7671" rx="4" ry="4"/>
<polygon fill="#cffd1a" stroke="#cffd1a" points="722.0315,-158.7385 730.4037,-151.6564 724.1876,-154.2272 726.3436,-149.7159 726.3436,-149.7159 726.3436,-149.7159 724.1876,-154.2272 722.2834,-147.7755 722.0315,-158.7385 722.0315,-158.7385"/>
</g>
<!-- User&#45;&gt;Order -->
<g id="edge9" class="edge">
<title>User&#45;&gt;Order</title>
<path fill="none" stroke="#bc5825" d="M573.743,-213.9769C556.5672,-178.0376 539.5519,-142.4343 528.4269,-119.1559"/>
<ellipse fill="none" stroke="#bc5825" cx="575.5543" cy="-217.7671" rx="4" ry="4"/>
<polygon fill="#bc5825" stroke="#bc5825" points="528.3484,-118.9915 528.0965,-108.0285 526.1924,-114.4803 524.0364,-109.969 524.0364,-109.969 524.0364,-109.969 526.1924,-114.4803 519.9762,-111.9094 528.3484,-118.9915 528.3484,-118.9915"/>
</g>
</g>
</svg>
