<?xml version="1.0" encoding="UTF-8" standalone="no"?>
<!DOCTYPE svg PUBLIC "-//W3C//DTD SVG 1.1//EN"
 "http://www.w3.org/Graphics/SVG/1.1/DTD/svg11.dtd">
<!-- Generated by graphviz version 2.40.1 (20161225.0304)
 -->
<!-- Title: models_diagram Pages: 1 -->
<svg width="668pt" height="313pt"
 viewBox="0.00 0.00 668.10 313.00" xmlns="http://www.w3.org/2000/svg" xmlns:xlink="http://www.w3.org/1999/xlink">
<g id="graph0" class="graph" transform="scale(1 1) rotate(0) translate(4 309)">
<title>models_diagram</title>
<polygon fill="transparent" stroke="transparent" points="-4,4 -4,-309 664.1018,-309 664.1018,4 -4,4"/>
<!-- _diagram_info -->
<g id="node1" class="node">
<title>_diagram_info</title>
<text text-anchor="start" x="8" y="-290.6" font-family="Times,serif" font-size="13.00" fill="#000000">Models diagram</text>
<text text-anchor="start" x="8" y="-277.6" font-family="Times,serif" font-size="13.00" fill="#000000">Date: May 08 2018 &#45; 23:24</text>
<text text-anchor="start" x="8" y="-264.6" font-family="Times,serif" font-size="13.00" fill="#000000">Migration version: 20180426125629</text>
<text text-anchor="start" x="8" y="-251.6" font-family="Times,serif" font-size="13.00" fill="#000000">Generated by RailRoady 1.5.3</text>
<text text-anchor="start" x="8" y="-238.6" font-family="Times,serif" font-size="13.00" fill="#000000">http://railroady.prestonlee.com</text>
</g>
<!-- Variant -->
<g id="node2" class="node">
<title>Variant</title>
<ellipse fill="none" stroke="#000000" cx="489.6877" cy="-104" rx="35.7887" ry="18"/>
<text text-anchor="middle" x="489.6877" y="-99.8" font-family="Times,serif" font-size="14.00" fill="#000000">Variant</text>
</g>
<!-- OrderLine -->
<g id="node6" class="node">
<title>OrderLine</title>
<ellipse fill="none" stroke="#000000" cx="378.6877" cy="-18" rx="46.8719" ry="18"/>
<text text-anchor="middle" x="378.6877" y="-13.8" font-family="Times,serif" font-size="14.00" fill="#000000">OrderLine</text>
</g>
<!-- Variant&#45;&gt;OrderLine -->
<g id="edge1" class="edge">
<title>Variant&#45;&gt;OrderLine</title>
<path fill="none" stroke="#9de299" d="M469.2029,-81.1429C460.5576,-72.148 450.0948,-62.0649 439.6877,-54 432.1927,-48.1918 423.6785,-42.6163 415.4391,-37.6605"/>
<ellipse fill="none" stroke="#9de299" cx="472.1305" cy="-84.2477" rx="4" ry="4"/>
<polygon fill="#9de299" stroke="#9de299" points="415.3055,-37.5826 408.9348,-28.6571 410.9865,-35.0634 406.6675,-32.5442 406.6675,-32.5442 406.6675,-32.5442 410.9865,-35.0634 404.4002,-36.4314 415.3055,-37.5826 415.3055,-37.5826"/>
</g>
<!-- ProductComponent -->
<g id="node10" class="node">
<title>ProductComponent</title>
<ellipse fill="none" stroke="#000000" cx="522.6877" cy="-18" rx="78.7712" ry="18"/>
<text text-anchor="middle" x="522.6877" y="-13.8" font-family="Times,serif" font-size="14.00" fill="#000000">ProductComponent</text>
</g>
<!-- Variant&#45;&gt;ProductComponent -->
<g id="edge2" class="edge">
<title>Variant&#45;&gt;ProductComponent</title>
<path fill="none" stroke="#6ef229" d="M495.7799,-78.2241C497.9433,-70.3338 500.6158,-61.7064 503.6877,-54 504.8539,-51.0746 506.1897,-48.0768 507.6009,-45.1205"/>
<ellipse fill="none" stroke="#6ef229" cx="494.728" cy="-82.2408" rx="4" ry="4"/>
<polygon fill="#6ef229" stroke="#6ef229" points="507.7251,-44.8755 516.2628,-37.9937 509.9874,-40.4166 512.2497,-35.9576 512.2497,-35.9576 512.2497,-35.9576 509.9874,-40.4166 508.2366,-33.9216 507.7251,-44.8755 507.7251,-44.8755"/>
</g>
<!-- Variant&#45;&gt;ProductComponent -->
<g id="edge3" class="edge">
<title>Variant&#45;&gt;ProductComponent</title>
<path fill="none" stroke="#00720e" d="M499.4609,-78.5306C503.4273,-68.1938 508.0195,-56.2262 512.0683,-45.675"/>
<ellipse fill="none" stroke="#00720e" cx="497.9584" cy="-82.4462" rx="4" ry="4"/>
<polygon fill="#00720e" stroke="#00720e" points="512.1628,-45.4286 519.9467,-37.7045 513.9541,-40.7604 515.7453,-36.0923 515.7453,-36.0923 515.7453,-36.0923 513.9541,-40.7604 511.544,-34.4801 512.1628,-45.4286 512.1628,-45.4286"/>
<text text-anchor="middle" x="583.8948" y="-56.8" font-family="Times,serif" font-size="14.00" fill="#000000">child_product_components</text>
</g>
<!-- Account -->
<g id="node3" class="node">
<title>Account</title>
<ellipse fill="none" stroke="#000000" cx="265.6877" cy="-268.5" rx="40.1317" ry="18"/>
<text text-anchor="middle" x="265.6877" y="-264.3" font-family="Times,serif" font-size="14.00" fill="#000000">Account</text>
</g>
<!-- Customer -->
<g id="node4" class="node">
<title>Customer</title>
<ellipse fill="none" stroke="#000000" cx="173.6877" cy="-177" rx="44.4923" ry="18"/>
<text text-anchor="middle" x="173.6877" y="-172.8" font-family="Times,serif" font-size="14.00" fill="#000000">Customer</text>
</g>
<!-- Account&#45;&gt;Customer -->
<g id="edge7" class="edge">
<title>Account&#45;&gt;Customer</title>
<path fill="none" stroke="#948069" d="M243.0808,-246.0159C229.3484,-232.3582 211.8259,-214.9309 197.8247,-201.0058"/>
<ellipse fill="none" stroke="#948069" cx="245.9774" cy="-248.8968" rx="4" ry="4"/>
<polygon fill="#948069" stroke="#948069" points="197.5453,-200.7279 193.6283,-190.4855 194.0002,-197.202 190.455,-193.6761 190.455,-193.6761 190.455,-193.6761 194.0002,-197.202 187.2817,-196.8668 197.5453,-200.7279 197.5453,-200.7279"/>
</g>
<!-- Product -->
<g id="node5" class="node">
<title>Product</title>
<ellipse fill="none" stroke="#000000" cx="455.6877" cy="-177" rx="37.7352" ry="18"/>
<text text-anchor="middle" x="455.6877" y="-172.8" font-family="Times,serif" font-size="14.00" fill="#000000">Product</text>
</g>
<!-- Account&#45;&gt;Product -->
<g id="edge5" class="edge">
<title>Account&#45;&gt;Product</title>
<path fill="none" stroke="#c51c2e" d="M291.3214,-247.3927C298.608,-241.96 306.7318,-236.4093 314.6877,-232 319.425,-229.3745 376.5649,-207.3101 416.6311,-191.9395"/>
<ellipse fill="none" stroke="#c51c2e" cx="288.0701" cy="-249.8813" rx="4" ry="4"/>
<polygon fill="#c51c2e" stroke="#c51c2e" points="416.8172,-191.8682 427.7654,-192.4904 421.4859,-190.0784 426.1546,-188.2886 426.1546,-188.2886 426.1546,-188.2886 421.4859,-190.0784 424.5438,-184.0868 416.8172,-191.8682 416.8172,-191.8682"/>
</g>
<!-- Order -->
<g id="node9" class="node">
<title>Order</title>
<ellipse fill="none" stroke="#000000" cx="261.6877" cy="-104" rx="30.9619" ry="18"/>
<text text-anchor="middle" x="261.6877" y="-99.8" font-family="Times,serif" font-size="14.00" fill="#000000">Order</text>
</g>
<!-- Account&#45;&gt;Order -->
<g id="edge6" class="edge">
<title>Account&#45;&gt;Order</title>
<path fill="none" stroke="#e52eaf" d="M265.0497,-242.2601C264.3181,-212.1714 263.1232,-163.0336 262.3725,-132.161"/>
<ellipse fill="none" stroke="#e52eaf" cx="265.1471" cy="-246.2683" rx="4" ry="4"/>
<polygon fill="#e52eaf" stroke="#e52eaf" points="262.3702,-132.0609 266.6257,-121.9544 262.2486,-127.0624 262.127,-122.0639 262.127,-122.0639 262.127,-122.0639 262.2486,-127.0624 257.6283,-122.1733 262.3702,-132.0609 262.3702,-132.0609"/>
</g>
<!-- User -->
<g id="node13" class="node">
<title>User</title>
<ellipse fill="none" stroke="#000000" cx="300.6877" cy="-177" rx="27" ry="18"/>
<text text-anchor="middle" x="300.6877" y="-172.8" font-family="Times,serif" font-size="14.00" fill="#000000">User</text>
</g>
<!-- Account&#45;&gt;User -->
<g id="edge4" class="edge">
<title>Account&#45;&gt;User</title>
<path fill="none" stroke="#deef6d" d="M275.5205,-242.7945C280.1024,-230.8161 285.5583,-216.5527 290.2171,-204.3732"/>
<ellipse fill="none" stroke="#deef6d" cx="274.0317" cy="-246.6865" rx="4" ry="4"/>
<polygon fill="#deef6d" stroke="#deef6d" points="290.3336,-204.0686 298.1093,-196.3363 292.12,-199.3986 293.9063,-194.7286 293.9063,-194.7286 293.9063,-194.7286 292.12,-199.3986 289.7033,-193.1208 290.3336,-204.0686 290.3336,-204.0686"/>
</g>
<!-- Transaction -->
<g id="node8" class="node">
<title>Transaction</title>
<ellipse fill="none" stroke="#000000" cx="183.6877" cy="-18" rx="51.5866" ry="18"/>
<text text-anchor="middle" x="183.6877" y="-13.8" font-family="Times,serif" font-size="14.00" fill="#000000">Transaction</text>
</g>
<!-- Customer&#45;&gt;Transaction -->
<g id="edge10" class="edge">
<title>Customer&#45;&gt;Transaction</title>
<path fill="none" stroke="#9878e5" d="M147.7488,-154.7389C138.9972,-145.5921 130.2872,-134.2653 125.6877,-122 120.0698,-107.0187 120.1548,-101.0129 125.6877,-86 131.9087,-69.1203 144.3908,-53.5827 156.187,-41.6337"/>
<ellipse fill="none" stroke="#9878e5" cx="150.627" cy="-157.6018" rx="4" ry="4"/>
<polygon fill="#9878e5" stroke="#9878e5" points="156.1921,-41.6287 166.5092,-37.9125 159.7866,-38.1531 163.3811,-34.6775 163.3811,-34.6775 163.3811,-34.6775 159.7866,-38.1531 160.2531,-31.4424 156.1921,-41.6287 156.1921,-41.6287"/>
</g>
<!-- Customer&#45;&gt;Order -->
<g id="edge9" class="edge">
<title>Customer&#45;&gt;Order</title>
<path fill="none" stroke="#53d4d0" d="M199.5006,-155.5871C210.9302,-146.1057 224.3468,-134.976 235.7866,-125.4862"/>
<ellipse fill="none" stroke="#53d4d0" cx="196.2964" cy="-158.2451" rx="4" ry="4"/>
<polygon fill="#53d4d0" stroke="#53d4d0" points="236.0139,-125.2976 246.5836,-122.3764 239.8622,-122.1053 243.7105,-118.913 243.7105,-118.913 243.7105,-118.913 239.8622,-122.1053 240.8374,-115.4495 236.0139,-125.2976 236.0139,-125.2976"/>
</g>
<!-- Address -->
<g id="node12" class="node">
<title>Address</title>
<ellipse fill="none" stroke="#000000" cx="173.6877" cy="-104" rx="39.18" ry="18"/>
<text text-anchor="middle" x="173.6877" y="-99.8" font-family="Times,serif" font-size="14.00" fill="#000000">Address</text>
</g>
<!-- Customer&#45;&gt;Address -->
<g id="edge8" class="edge">
<title>Customer&#45;&gt;Address</title>
<path fill="none" stroke="#555bba" d="M173.6877,-150.9079C173.6877,-144.9427 173.6877,-138.5729 173.6877,-132.512"/>
<ellipse fill="none" stroke="#555bba" cx="173.6878" cy="-154.9551" rx="4" ry="4"/>
<polygon fill="#555bba" stroke="#555bba" points="173.6878,-132.0904 178.1877,-122.0903 173.6878,-127.0904 173.6877,-122.0904 173.6877,-122.0904 173.6877,-122.0904 173.6878,-127.0904 169.1877,-122.0904 173.6878,-132.0904 173.6878,-132.0904"/>
</g>
<!-- Product&#45;&gt;Variant -->
<g id="edge11" class="edge">
<title>Product&#45;&gt;Variant</title>
<path fill="none" stroke="#2fa8dc" d="M467.3198,-152.0253C470.4331,-145.3409 473.814,-138.0818 476.982,-131.2799"/>
<ellipse fill="none" stroke="#2fa8dc" cx="465.607" cy="-155.7027" rx="4" ry="4"/>
<polygon fill="#2fa8dc" stroke="#2fa8dc" points="477.1931,-130.8266 485.4945,-123.6615 479.3042,-126.2941 481.4152,-121.7615 481.4152,-121.7615 481.4152,-121.7615 479.3042,-126.2941 477.336,-119.8616 477.1931,-130.8266 477.1931,-130.8266"/>
</g>
<!-- Product&#45;&gt;OrderLine -->
<g id="edge12" class="edge">
<title>Product&#45;&gt;OrderLine</title>
<path fill="none" stroke="#a32925" d="M443.6148,-152.0701C429.4752,-122.8727 406.1451,-74.6976 391.6378,-44.741"/>
<ellipse fill="none" stroke="#a32925" cx="445.4097" cy="-155.7766" rx="4" ry="4"/>
<polygon fill="#a32925" stroke="#a32925" points="391.6191,-44.7024 391.3106,-33.7408 389.4398,-40.2023 387.2605,-35.7022 387.2605,-35.7022 387.2605,-35.7022 389.4398,-40.2023 383.2104,-37.6636 391.6191,-44.7024 391.6191,-44.7024"/>
</g>
<!-- Role -->
<g id="node7" class="node">
<title>Role</title>
<ellipse fill="none" stroke="#000000" cx="372.6877" cy="-177" rx="27" ry="18"/>
<text text-anchor="middle" x="372.6877" y="-172.8" font-family="Times,serif" font-size="14.00" fill="#000000">Role</text>
</g>
<!-- UserRole -->
<g id="node14" class="node">
<title>UserRole</title>
<ellipse fill="none" stroke="#000000" cx="353.6877" cy="-104" rx="43.5146" ry="18"/>
<text text-anchor="middle" x="353.6877" y="-99.8" font-family="Times,serif" font-size="14.00" fill="#000000">UserRole</text>
</g>
<!-- Role&#45;&gt;UserRole -->
<g id="edge13" class="edge">
<title>Role&#45;&gt;UserRole</title>
<path fill="none" stroke="#02619d" d="M365.9718,-151.1968C364.368,-145.0345 362.6479,-138.426 361.0179,-132.1634"/>
<ellipse fill="none" stroke="#02619d" cx="366.9835" cy="-155.084" rx="4" ry="4"/>
<polygon fill="#02619d" stroke="#02619d" points="360.9151,-131.7679 362.7511,-120.9569 359.6556,-126.9292 358.3962,-122.0904 358.3962,-122.0904 358.3962,-122.0904 359.6556,-126.9292 354.0413,-123.2239 360.9151,-131.7679 360.9151,-131.7679"/>
</g>
<!-- Order&#45;&gt;OrderLine -->
<g id="edge14" class="edge">
<title>Order&#45;&gt;OrderLine</title>
<path fill="none" stroke="#c877c8" d="M287.4619,-85.0549C305.5251,-71.7777 329.7257,-53.9892 348.6619,-40.0703"/>
<ellipse fill="none" stroke="#c877c8" cx="284.2309" cy="-87.4298" rx="4" ry="4"/>
<polygon fill="#c877c8" stroke="#c877c8" points="348.8934,-39.9002 359.616,-37.6034 352.9221,-36.9388 356.9509,-33.9775 356.9509,-33.9775 356.9509,-33.9775 352.9221,-36.9388 354.2857,-30.3517 348.8934,-39.9002 348.8934,-39.9002"/>
</g>
<!-- Order&#45;&gt;Transaction -->
<g id="edge15" class="edge">
<title>Order&#45;&gt;Transaction</title>
<path fill="none" stroke="#b48c4e" d="M241.6368,-81.8926C230.8466,-69.9957 217.4998,-55.28 206.336,-42.9711"/>
<ellipse fill="none" stroke="#b48c4e" cx="244.3293" cy="-84.8612" rx="4" ry="4"/>
<polygon fill="#b48c4e" stroke="#b48c4e" points="206.0819,-42.691 202.697,-32.2606 202.7228,-38.9874 199.3637,-35.2838 199.3637,-35.2838 199.3637,-35.2838 202.7228,-38.9874 196.0305,-38.307 206.0819,-42.691 206.0819,-42.691"/>
</g>
<!-- ApplicationRecord -->
<g id="node11" class="node">
<title>ApplicationRecord</title>
<ellipse fill="none" stroke="#000000" cx="400.6877" cy="-268.5" rx="77.2916" ry="18"/>
<text text-anchor="middle" x="400.6877" y="-264.3" font-family="Times,serif" font-size="14.00" fill="#000000">ApplicationRecord</text>
</g>
<!-- User&#45;&gt;Order -->
<g id="edge17" class="edge">
<title>User&#45;&gt;Order</title>
<path fill="none" stroke="#00d1df" d="M287.6381,-152.5737C283.8901,-145.5583 279.7838,-137.8722 275.9659,-130.7257"/>
<ellipse fill="none" stroke="#00d1df" cx="289.5604" cy="-156.1719" rx="4" ry="4"/>
<polygon fill="#00d1df" stroke="#00d1df" points="275.7112,-130.249 274.9681,-119.3083 273.3551,-125.8389 270.999,-121.4288 270.999,-121.4288 270.999,-121.4288 273.3551,-125.8389 267.0299,-123.5493 275.7112,-130.249 275.7112,-130.249"/>
</g>
<!-- User&#45;&gt;UserRole -->
<g id="edge16" class="edge">
<title>User&#45;&gt;UserRole</title>
<path fill="none" stroke="#58bc43" d="M317.5356,-153.7944C323.1604,-146.0471 329.4572,-137.3741 335.1999,-129.4644"/>
<ellipse fill="none" stroke="#58bc43" cx="315.0643" cy="-157.1983" rx="4" ry="4"/>
<polygon fill="#58bc43" stroke="#58bc43" points="335.2806,-129.3531 344.7973,-123.9048 338.2182,-125.307 341.1558,-121.261 341.1558,-121.261 341.1558,-121.261 338.2182,-125.307 337.5143,-118.6171 335.2806,-129.3531 335.2806,-129.3531"/>
</g>
</g>
</svg>
