<?xml version="1.0" encoding="UTF-8" standalone="no"?>
<!DOCTYPE svg PUBLIC "-//W3C//DTD SVG 1.1//EN"
 "http://www.w3.org/Graphics/SVG/1.1/DTD/svg11.dtd">
<!-- Generated by graphviz version 2.40.1 (20161225.0304)
 -->
<!-- Title: models_diagram Pages: 1 -->
<svg width="1374pt" height="1110pt"
 viewBox="0.00 0.00 1373.93 1110.00" xmlns="http://www.w3.org/2000/svg" xmlns:xlink="http://www.w3.org/1999/xlink">
<g id="graph0" class="graph" transform="scale(1 1) rotate(0) translate(4 1106)">
<title>models_diagram</title>
<polygon fill="transparent" stroke="transparent" points="-4,4 -4,-1106 1369.9286,-1106 1369.9286,4 -4,4"/>
<!-- _diagram_info -->
<g id="node1" class="node">
<title>_diagram_info</title>
<text text-anchor="start" x="233.8451" y="-1038.6" font-family="Times,serif" font-size="13.00" fill="#000000">Models diagram</text>
<text text-anchor="start" x="233.8451" y="-1025.6" font-family="Times,serif" font-size="13.00" fill="#000000">Date: May 08 2018 &#45; 22:58</text>
<text text-anchor="start" x="233.8451" y="-1012.6" font-family="Times,serif" font-size="13.00" fill="#000000">Migration version: 20180426125629</text>
<text text-anchor="start" x="233.8451" y="-999.6" font-family="Times,serif" font-size="13.00" fill="#000000">Generated by RailRoady 1.5.3</text>
<text text-anchor="start" x="233.8451" y="-986.6" font-family="Times,serif" font-size="13.00" fill="#000000">http://railroady.prestonlee.com</text>
</g>
<!-- Variant -->
<g id="node2" class="node">
<title>Variant</title>
<path fill="none" stroke="#000000" d="M62.6705,-313.5C62.6705,-313.5 286.3951,-313.5 286.3951,-313.5 292.3951,-313.5 298.3951,-319.5 298.3951,-325.5 298.3951,-325.5 298.3951,-527.5 298.3951,-527.5 298.3951,-533.5 292.3951,-539.5 286.3951,-539.5 286.3951,-539.5 62.6705,-539.5 62.6705,-539.5 56.6705,-539.5 50.6705,-533.5 50.6705,-527.5 50.6705,-527.5 50.6705,-325.5 50.6705,-325.5 50.6705,-319.5 56.6705,-313.5 62.6705,-313.5"/>
<text text-anchor="middle" x="174.5328" y="-524.3" font-family="Times,serif" font-size="14.00" fill="#000000">Variant</text>
<polyline fill="none" stroke="#000000" points="50.6705,-517.5 298.3951,-517.5 "/>
<text text-anchor="start" x="58.6705" y="-502.3" font-family="Times,serif" font-size="14.00" fill="#000000">updated_at :timestamp without time zone</text>
<text text-anchor="start" x="58.6705" y="-488.3" font-family="Times,serif" font-size="14.00" fill="#000000">product_id :integer</text>
<text text-anchor="start" x="58.6705" y="-474.3" font-family="Times,serif" font-size="14.00" fill="#000000">parent_product_id :integer</text>
<text text-anchor="start" x="58.6705" y="-460.3" font-family="Times,serif" font-size="14.00" fill="#000000">parent_variant_id :integer</text>
<text text-anchor="start" x="58.6705" y="-446.3" font-family="Times,serif" font-size="14.00" fill="#000000">title :character varying</text>
<text text-anchor="start" x="58.6705" y="-432.3" font-family="Times,serif" font-size="14.00" fill="#000000">sku :character varying</text>
<text text-anchor="start" x="58.6705" y="-418.3" font-family="Times,serif" font-size="14.00" fill="#000000">price :numeric</text>
<text text-anchor="start" x="58.6705" y="-404.3" font-family="Times,serif" font-size="14.00" fill="#000000">compare_at_price :numeric</text>
<text text-anchor="start" x="58.6705" y="-390.3" font-family="Times,serif" font-size="14.00" fill="#000000">barcode :character varying</text>
<text text-anchor="start" x="58.6705" y="-376.3" font-family="Times,serif" font-size="14.00" fill="#000000">variant_type :integer</text>
<text text-anchor="start" x="58.6705" y="-362.3" font-family="Times,serif" font-size="14.00" fill="#000000">variant_status :integer</text>
<text text-anchor="start" x="58.6705" y="-348.3" font-family="Times,serif" font-size="14.00" fill="#000000">status :integer</text>
<text text-anchor="start" x="58.6705" y="-334.3" font-family="Times,serif" font-size="14.00" fill="#000000">created_at :timestamp without time zone</text>
<text text-anchor="start" x="58.6705" y="-320.3" font-family="Times,serif" font-size="14.00" fill="#000000">id :bigint</text>
</g>
<!-- Variant&#45;&gt;Variant -->
<g id="edge2" class="edge">
<title>Variant&#45;&gt;Variant</title>
<path fill="none" stroke="#b0d40c" d="M305.5595,-450.3293C312.3677,-444.4516 316.3951,-436.5085 316.3951,-426.5 316.3951,-417.1043 312.8458,-409.5288 306.7785,-403.7735"/>
<ellipse fill="none" stroke="#b0d40c" cx="301.856" cy="-452.8786" rx="4" ry="4"/>
<polygon fill="#b0d40c" stroke="#b0d40c" points="306.6748,-403.6988 301.1916,-394.2022 302.6179,-400.7761 298.5611,-397.8534 298.5611,-397.8534 298.5611,-397.8534 302.6179,-400.7761 295.9307,-401.5045 306.6748,-403.6988 306.6748,-403.6988"/>
<text text-anchor="middle" x="375.1056" y="-422.3" font-family="Times,serif" font-size="14.00" fill="#000000">component_products</text>
</g>
<!-- OrderLine -->
<g id="node6" class="node">
<title>OrderLine</title>
<path fill="none" stroke="#000000" d="M62.6705,-.5C62.6705,-.5 286.3951,-.5 286.3951,-.5 292.3951,-.5 298.3951,-6.5 298.3951,-12.5 298.3951,-12.5 298.3951,-200.5 298.3951,-200.5 298.3951,-206.5 292.3951,-212.5 286.3951,-212.5 286.3951,-212.5 62.6705,-212.5 62.6705,-212.5 56.6705,-212.5 50.6705,-206.5 50.6705,-200.5 50.6705,-200.5 50.6705,-12.5 50.6705,-12.5 50.6705,-6.5 56.6705,-.5 62.6705,-.5"/>
<text text-anchor="middle" x="174.5328" y="-197.3" font-family="Times,serif" font-size="14.00" fill="#000000">OrderLine</text>
<polyline fill="none" stroke="#000000" points="50.6705,-190.5 298.3951,-190.5 "/>
<text text-anchor="start" x="58.6705" y="-175.3" font-family="Times,serif" font-size="14.00" fill="#000000">updated_at :timestamp without time zone</text>
<text text-anchor="start" x="58.6705" y="-161.3" font-family="Times,serif" font-size="14.00" fill="#000000">order_id :integer</text>
<text text-anchor="start" x="58.6705" y="-147.3" font-family="Times,serif" font-size="14.00" fill="#000000">variant_id :integer</text>
<text text-anchor="start" x="58.6705" y="-133.3" font-family="Times,serif" font-size="14.00" fill="#000000">product_id :integer</text>
<text text-anchor="start" x="58.6705" y="-119.3" font-family="Times,serif" font-size="14.00" fill="#000000">title :character varying</text>
<text text-anchor="start" x="58.6705" y="-105.3" font-family="Times,serif" font-size="14.00" fill="#000000">sku :character varying</text>
<text text-anchor="start" x="58.6705" y="-91.3" font-family="Times,serif" font-size="14.00" fill="#000000">price :numeric</text>
<text text-anchor="start" x="58.6705" y="-77.3" font-family="Times,serif" font-size="14.00" fill="#000000">compare_at_price :numeric</text>
<text text-anchor="start" x="58.6705" y="-63.3" font-family="Times,serif" font-size="14.00" fill="#000000">barcode :character varying</text>
<text text-anchor="start" x="58.6705" y="-49.3" font-family="Times,serif" font-size="14.00" fill="#000000">order_line_status :integer</text>
<text text-anchor="start" x="58.6705" y="-35.3" font-family="Times,serif" font-size="14.00" fill="#000000">status :integer</text>
<text text-anchor="start" x="58.6705" y="-21.3" font-family="Times,serif" font-size="14.00" fill="#000000">created_at :timestamp without time zone</text>
<text text-anchor="start" x="58.6705" y="-7.3" font-family="Times,serif" font-size="14.00" fill="#000000">id :bigint</text>
</g>
<!-- Variant&#45;&gt;OrderLine -->
<g id="edge1" class="edge">
<title>Variant&#45;&gt;OrderLine</title>
<path fill="none" stroke="#db833d" d="M174.5328,-305.1226C174.5328,-278.1393 174.5328,-249.5973 174.5328,-222.8225"/>
<ellipse fill="none" stroke="#db833d" cx="174.5329" cy="-309.2296" rx="4" ry="4"/>
<polygon fill="#db833d" stroke="#db833d" points="174.5329,-222.6543 179.0328,-212.6542 174.5329,-217.6543 174.5328,-212.6543 174.5328,-212.6543 174.5328,-212.6543 174.5329,-217.6543 170.0328,-212.6543 174.5329,-222.6543 174.5329,-222.6543"/>
</g>
<!-- Account -->
<g id="node3" class="node">
<title>Account</title>
<path fill="none" stroke="#000000" d="M463.6705,-945.5C463.6705,-945.5 687.3951,-945.5 687.3951,-945.5 693.3951,-945.5 699.3951,-951.5 699.3951,-957.5 699.3951,-957.5 699.3951,-1075.5 699.3951,-1075.5 699.3951,-1081.5 693.3951,-1087.5 687.3951,-1087.5 687.3951,-1087.5 463.6705,-1087.5 463.6705,-1087.5 457.6705,-1087.5 451.6705,-1081.5 451.6705,-1075.5 451.6705,-1075.5 451.6705,-957.5 451.6705,-957.5 451.6705,-951.5 457.6705,-945.5 463.6705,-945.5"/>
<text text-anchor="middle" x="575.5328" y="-1072.3" font-family="Times,serif" font-size="14.00" fill="#000000">Account</text>
<polyline fill="none" stroke="#000000" points="451.6705,-1065.5 699.3951,-1065.5 "/>
<text text-anchor="start" x="459.6705" y="-1050.3" font-family="Times,serif" font-size="14.00" fill="#000000">updated_at :timestamp without time zone</text>
<text text-anchor="start" x="459.6705" y="-1036.3" font-family="Times,serif" font-size="14.00" fill="#000000">name :character varying</text>
<text text-anchor="start" x="459.6705" y="-1022.3" font-family="Times,serif" font-size="14.00" fill="#000000">company :character varying</text>
<text text-anchor="start" x="459.6705" y="-1008.3" font-family="Times,serif" font-size="14.00" fill="#000000">account_status :integer</text>
<text text-anchor="start" x="459.6705" y="-994.3" font-family="Times,serif" font-size="14.00" fill="#000000">account_type :integer</text>
<text text-anchor="start" x="459.6705" y="-980.3" font-family="Times,serif" font-size="14.00" fill="#000000">status :integer</text>
<text text-anchor="start" x="459.6705" y="-966.3" font-family="Times,serif" font-size="14.00" fill="#000000">created_at :timestamp without time zone</text>
<text text-anchor="start" x="459.6705" y="-952.3" font-family="Times,serif" font-size="14.00" fill="#000000">id :bigint</text>
</g>
<!-- Account&#45;&gt;Variant -->
<g id="edge7" class="edge">
<title>Account&#45;&gt;Variant</title>
<path fill="none" stroke="#a7f34f" d="M521.4185,-936.8804C453.4596,-836.891 336.1929,-664.3539 257.0288,-547.8781"/>
<polygon fill="#a7f34f" stroke="#a7f34f" points="521.5416,-937.0616 523.4411,-947.8618 524.3522,-941.1969 527.1629,-945.3322 527.1629,-945.3322 527.1629,-945.3322 524.3522,-941.1969 530.8846,-942.8027 521.5416,-937.0616 521.5416,-937.0616"/>
<polygon fill="#a7f34f" stroke="#a7f34f" points="257.0172,-547.8611 255.1178,-537.0609 254.2066,-543.7258 251.396,-539.5905 251.396,-539.5905 251.396,-539.5905 254.2066,-543.7258 247.6743,-542.12 257.0172,-547.8611 257.0172,-547.8611"/>
</g>
<!-- Customer -->
<g id="node4" class="node">
<title>Customer</title>
<path fill="none" stroke="#000000" d="M615.6705,-660.5C615.6705,-660.5 839.3951,-660.5 839.3951,-660.5 845.3951,-660.5 851.3951,-666.5 851.3951,-672.5 851.3951,-672.5 851.3951,-874.5 851.3951,-874.5 851.3951,-880.5 845.3951,-886.5 839.3951,-886.5 839.3951,-886.5 615.6705,-886.5 615.6705,-886.5 609.6705,-886.5 603.6705,-880.5 603.6705,-874.5 603.6705,-874.5 603.6705,-672.5 603.6705,-672.5 603.6705,-666.5 609.6705,-660.5 615.6705,-660.5"/>
<text text-anchor="middle" x="727.5328" y="-871.3" font-family="Times,serif" font-size="14.00" fill="#000000">Customer</text>
<polyline fill="none" stroke="#000000" points="603.6705,-864.5 851.3951,-864.5 "/>
<text text-anchor="start" x="611.6705" y="-849.3" font-family="Times,serif" font-size="14.00" fill="#000000">updated_at :timestamp without time zone</text>
<text text-anchor="start" x="611.6705" y="-835.3" font-family="Times,serif" font-size="14.00" fill="#000000">account_id :integer</text>
<text text-anchor="start" x="611.6705" y="-821.3" font-family="Times,serif" font-size="14.00" fill="#000000">default_address_id :integer</text>
<text text-anchor="start" x="611.6705" y="-807.3" font-family="Times,serif" font-size="14.00" fill="#000000">first_name :character varying</text>
<text text-anchor="start" x="611.6705" y="-793.3" font-family="Times,serif" font-size="14.00" fill="#000000">middle_name :character varying</text>
<text text-anchor="start" x="611.6705" y="-779.3" font-family="Times,serif" font-size="14.00" fill="#000000">last_name :character varying</text>
<text text-anchor="start" x="611.6705" y="-765.3" font-family="Times,serif" font-size="14.00" fill="#000000">email :character varying</text>
<text text-anchor="start" x="611.6705" y="-751.3" font-family="Times,serif" font-size="14.00" fill="#000000">suffix :character varying</text>
<text text-anchor="start" x="611.6705" y="-737.3" font-family="Times,serif" font-size="14.00" fill="#000000">note :text</text>
<text text-anchor="start" x="611.6705" y="-723.3" font-family="Times,serif" font-size="14.00" fill="#000000">customer_type :integer</text>
<text text-anchor="start" x="611.6705" y="-709.3" font-family="Times,serif" font-size="14.00" fill="#000000">customer_status :integer</text>
<text text-anchor="start" x="611.6705" y="-695.3" font-family="Times,serif" font-size="14.00" fill="#000000">status :integer</text>
<text text-anchor="start" x="611.6705" y="-681.3" font-family="Times,serif" font-size="14.00" fill="#000000">created_at :timestamp without time zone</text>
<text text-anchor="start" x="611.6705" y="-667.3" font-family="Times,serif" font-size="14.00" fill="#000000">id :bigint</text>
</g>
<!-- Account&#45;&gt;Customer -->
<g id="edge6" class="edge">
<title>Account&#45;&gt;Customer</title>
<path fill="none" stroke="#e04149" d="M624.4659,-938.2715C633.0563,-924.5381 642.1775,-909.9562 651.3031,-895.3673"/>
<ellipse fill="none" stroke="#e04149" cx="622.2321" cy="-941.8427" rx="4" ry="4"/>
<polygon fill="#e04149" stroke="#e04149" points="651.3694,-895.2611 660.4877,-889.1695 654.021,-891.0221 656.6726,-886.7831 656.6726,-886.7831 656.6726,-886.7831 654.021,-891.0221 652.8575,-884.3967 651.3694,-895.2611 651.3694,-895.2611"/>
</g>
<!-- Product -->
<g id="node5" class="node">
<title>Product</title>
<path fill="none" stroke="#000000" d="M70.6705,-681.5C70.6705,-681.5 294.3951,-681.5 294.3951,-681.5 300.3951,-681.5 306.3951,-687.5 306.3951,-693.5 306.3951,-693.5 306.3951,-853.5 306.3951,-853.5 306.3951,-859.5 300.3951,-865.5 294.3951,-865.5 294.3951,-865.5 70.6705,-865.5 70.6705,-865.5 64.6705,-865.5 58.6705,-859.5 58.6705,-853.5 58.6705,-853.5 58.6705,-693.5 58.6705,-693.5 58.6705,-687.5 64.6705,-681.5 70.6705,-681.5"/>
<text text-anchor="middle" x="182.5328" y="-850.3" font-family="Times,serif" font-size="14.00" fill="#000000">Product</text>
<polyline fill="none" stroke="#000000" points="58.6705,-843.5 306.3951,-843.5 "/>
<text text-anchor="start" x="66.6705" y="-828.3" font-family="Times,serif" font-size="14.00" fill="#000000">updated_at :timestamp without time zone</text>
<text text-anchor="start" x="66.6705" y="-814.3" font-family="Times,serif" font-size="14.00" fill="#000000">account_id :integer</text>
<text text-anchor="start" x="66.6705" y="-800.3" font-family="Times,serif" font-size="14.00" fill="#000000">title :character varying</text>
<text text-anchor="start" x="66.6705" y="-786.3" font-family="Times,serif" font-size="14.00" fill="#000000">vendor :character varying</text>
<text text-anchor="start" x="66.6705" y="-772.3" font-family="Times,serif" font-size="14.00" fill="#000000">handle :character varying</text>
<text text-anchor="start" x="66.6705" y="-758.3" font-family="Times,serif" font-size="14.00" fill="#000000">product_type :integer</text>
<text text-anchor="start" x="66.6705" y="-744.3" font-family="Times,serif" font-size="14.00" fill="#000000">status :integer</text>
<text text-anchor="start" x="66.6705" y="-730.3" font-family="Times,serif" font-size="14.00" fill="#000000">product_status :integer</text>
<text text-anchor="start" x="66.6705" y="-716.3" font-family="Times,serif" font-size="14.00" fill="#000000">created_by_id :integer</text>
<text text-anchor="start" x="66.6705" y="-702.3" font-family="Times,serif" font-size="14.00" fill="#000000">created_at :timestamp without time zone</text>
<text text-anchor="start" x="66.6705" y="-688.3" font-family="Times,serif" font-size="14.00" fill="#000000">id :bigint</text>
</g>
<!-- Account&#45;&gt;Product -->
<g id="edge4" class="edge">
<title>Account&#45;&gt;Product</title>
<path fill="none" stroke="#bb5e2f" d="M466.9565,-941.6978C458.8802,-937.701 450.6952,-934.0734 442.5328,-931 392.0621,-911.9961 370.7064,-937.2437 322.5328,-913 302.0168,-902.6752 282.658,-888.2123 265.2539,-872.4811"/>
<ellipse fill="none" stroke="#bb5e2f" cx="470.7766" cy="-943.648" rx="4" ry="4"/>
<polygon fill="#bb5e2f" stroke="#bb5e2f" points="265.2457,-872.4736 260.9786,-862.372 261.5813,-869.0718 257.9169,-865.6699 257.9169,-865.6699 257.9169,-865.6699 261.5813,-869.0718 254.8553,-868.9679 265.2457,-872.4736 265.2457,-872.4736"/>
</g>
<!-- Order -->
<g id="node9" class="node">
<title>Order</title>
<path fill="none" stroke="#000000" d="M463.6705,-250.5C463.6705,-250.5 687.3951,-250.5 687.3951,-250.5 693.3951,-250.5 699.3951,-256.5 699.3951,-262.5 699.3951,-262.5 699.3951,-590.5 699.3951,-590.5 699.3951,-596.5 693.3951,-602.5 687.3951,-602.5 687.3951,-602.5 463.6705,-602.5 463.6705,-602.5 457.6705,-602.5 451.6705,-596.5 451.6705,-590.5 451.6705,-590.5 451.6705,-262.5 451.6705,-262.5 451.6705,-256.5 457.6705,-250.5 463.6705,-250.5"/>
<text text-anchor="middle" x="575.5328" y="-587.3" font-family="Times,serif" font-size="14.00" fill="#000000">Order</text>
<polyline fill="none" stroke="#000000" points="451.6705,-580.5 699.3951,-580.5 "/>
<text text-anchor="start" x="459.6705" y="-565.3" font-family="Times,serif" font-size="14.00" fill="#000000">updated_at :timestamp without time zone</text>
<text text-anchor="start" x="459.6705" y="-551.3" font-family="Times,serif" font-size="14.00" fill="#000000">account_id :integer</text>
<text text-anchor="start" x="459.6705" y="-537.3" font-family="Times,serif" font-size="14.00" fill="#000000">customer_id :integer</text>
<text text-anchor="start" x="459.6705" y="-523.3" font-family="Times,serif" font-size="14.00" fill="#000000">user_id :integer</text>
<text text-anchor="start" x="459.6705" y="-509.3" font-family="Times,serif" font-size="14.00" fill="#000000">order_number :integer</text>
<text text-anchor="start" x="459.6705" y="-495.3" font-family="Times,serif" font-size="14.00" fill="#000000">note :character varying</text>
<text text-anchor="start" x="459.6705" y="-481.3" font-family="Times,serif" font-size="14.00" fill="#000000">total_line_items_price :numeric</text>
<text text-anchor="start" x="459.6705" y="-467.3" font-family="Times,serif" font-size="14.00" fill="#000000">total_discounts :numeric</text>
<text text-anchor="start" x="459.6705" y="-453.3" font-family="Times,serif" font-size="14.00" fill="#000000">subtotal :numeric</text>
<text text-anchor="start" x="459.6705" y="-439.3" font-family="Times,serif" font-size="14.00" fill="#000000">total_price :numeric</text>
<text text-anchor="start" x="459.6705" y="-425.3" font-family="Times,serif" font-size="14.00" fill="#000000">total_tax :numeric</text>
<text text-anchor="start" x="459.6705" y="-411.3" font-family="Times,serif" font-size="14.00" fill="#000000">total_weight :numeric</text>
<text text-anchor="start" x="459.6705" y="-397.3" font-family="Times,serif" font-size="14.00" fill="#000000">first_name :character varying</text>
<text text-anchor="start" x="459.6705" y="-383.3" font-family="Times,serif" font-size="14.00" fill="#000000">middle_name :character varying</text>
<text text-anchor="start" x="459.6705" y="-369.3" font-family="Times,serif" font-size="14.00" fill="#000000">last_name :character varying</text>
<text text-anchor="start" x="459.6705" y="-355.3" font-family="Times,serif" font-size="14.00" fill="#000000">email :character varying</text>
<text text-anchor="start" x="459.6705" y="-341.3" font-family="Times,serif" font-size="14.00" fill="#000000">contact_number :character varying</text>
<text text-anchor="start" x="459.6705" y="-327.3" font-family="Times,serif" font-size="14.00" fill="#000000">suffix :character varying</text>
<text text-anchor="start" x="459.6705" y="-313.3" font-family="Times,serif" font-size="14.00" fill="#000000">fulfillment_status :integer</text>
<text text-anchor="start" x="459.6705" y="-299.3" font-family="Times,serif" font-size="14.00" fill="#000000">order_status :integer</text>
<text text-anchor="start" x="459.6705" y="-285.3" font-family="Times,serif" font-size="14.00" fill="#000000">status :integer</text>
<text text-anchor="start" x="459.6705" y="-271.3" font-family="Times,serif" font-size="14.00" fill="#000000">created_at :timestamp without time zone</text>
<text text-anchor="start" x="459.6705" y="-257.3" font-family="Times,serif" font-size="14.00" fill="#000000">id :bigint</text>
</g>
<!-- Account&#45;&gt;Order -->
<g id="edge5" class="edge">
<title>Account&#45;&gt;Order</title>
<path fill="none" stroke="#aa9934" d="M575.5328,-937.2525C575.5328,-854.6043 575.5328,-722.1017 575.5328,-612.7676"/>
<ellipse fill="none" stroke="#aa9934" cx="575.5329" cy="-941.3322" rx="4" ry="4"/>
<polygon fill="#aa9934" stroke="#aa9934" points="575.5329,-612.5978 580.0328,-602.5978 575.5329,-607.5978 575.5328,-602.5978 575.5328,-602.5978 575.5328,-602.5978 575.5329,-607.5978 571.0328,-602.5979 575.5329,-612.5978 575.5329,-612.5978"/>
</g>
<!-- User -->
<g id="node12" class="node">
<title>User</title>
<path fill="none" stroke="#000000" d="M881.6705,-653.5C881.6705,-653.5 1105.3951,-653.5 1105.3951,-653.5 1111.3951,-653.5 1117.3951,-659.5 1117.3951,-665.5 1117.3951,-665.5 1117.3951,-881.5 1117.3951,-881.5 1117.3951,-887.5 1111.3951,-893.5 1105.3951,-893.5 1105.3951,-893.5 881.6705,-893.5 881.6705,-893.5 875.6705,-893.5 869.6705,-887.5 869.6705,-881.5 869.6705,-881.5 869.6705,-665.5 869.6705,-665.5 869.6705,-659.5 875.6705,-653.5 881.6705,-653.5"/>
<text text-anchor="middle" x="993.5328" y="-878.3" font-family="Times,serif" font-size="14.00" fill="#000000">User</text>
<polyline fill="none" stroke="#000000" points="869.6705,-871.5 1117.3951,-871.5 "/>
<text text-anchor="start" x="877.6705" y="-856.3" font-family="Times,serif" font-size="14.00" fill="#000000">updated_at :timestamp without time zone</text>
<text text-anchor="start" x="877.6705" y="-842.3" font-family="Times,serif" font-size="14.00" fill="#000000">account_id :integer</text>
<text text-anchor="start" x="877.6705" y="-828.3" font-family="Times,serif" font-size="14.00" fill="#000000">email :character varying</text>
<text text-anchor="start" x="877.6705" y="-814.3" font-family="Times,serif" font-size="14.00" fill="#000000">first_name :character varying</text>
<text text-anchor="start" x="877.6705" y="-800.3" font-family="Times,serif" font-size="14.00" fill="#000000">middle_name :character varying</text>
<text text-anchor="start" x="877.6705" y="-786.3" font-family="Times,serif" font-size="14.00" fill="#000000">last_name :character varying</text>
<text text-anchor="start" x="877.6705" y="-772.3" font-family="Times,serif" font-size="14.00" fill="#000000">suffix :character varying</text>
<text text-anchor="start" x="877.6705" y="-758.3" font-family="Times,serif" font-size="14.00" fill="#000000">title :character varying</text>
<text text-anchor="start" x="877.6705" y="-744.3" font-family="Times,serif" font-size="14.00" fill="#000000">password_digest :character varying</text>
<text text-anchor="start" x="877.6705" y="-730.3" font-family="Times,serif" font-size="14.00" fill="#000000">user_type :integer</text>
<text text-anchor="start" x="877.6705" y="-716.3" font-family="Times,serif" font-size="14.00" fill="#000000">user_status :integer</text>
<text text-anchor="start" x="877.6705" y="-702.3" font-family="Times,serif" font-size="14.00" fill="#000000">token :character varying</text>
<text text-anchor="start" x="877.6705" y="-688.3" font-family="Times,serif" font-size="14.00" fill="#000000">status :integer</text>
<text text-anchor="start" x="877.6705" y="-674.3" font-family="Times,serif" font-size="14.00" fill="#000000">created_at :timestamp without time zone</text>
<text text-anchor="start" x="877.6705" y="-660.3" font-family="Times,serif" font-size="14.00" fill="#000000">id :bigint</text>
</g>
<!-- Account&#45;&gt;User -->
<g id="edge3" class="edge">
<title>Account&#45;&gt;User</title>
<path fill="none" stroke="#d1d8ae" d="M707.2415,-970.4699C757.1168,-950.3624 813.2318,-924.3879 860.5328,-894 860.7212,-893.879 860.9096,-893.7576 861.098,-893.6361"/>
<ellipse fill="none" stroke="#d1d8ae" cx="703.3261" cy="-972.0351" rx="4" ry="4"/>
<polygon fill="#d1d8ae" stroke="#d1d8ae" points="861.243,-893.5395 872.0597,-891.7367 865.4033,-890.766 869.5635,-887.9925 869.5635,-887.9925 869.5635,-887.9925 865.4033,-890.766 867.0674,-884.2482 861.243,-893.5395 861.243,-893.5395"/>
</g>
<!-- Transaction -->
<g id="node8" class="node">
<title>Transaction</title>
<path fill="none" stroke="#000000" d="M539.6705,-28.5C539.6705,-28.5 763.3951,-28.5 763.3951,-28.5 769.3951,-28.5 775.3951,-34.5 775.3951,-40.5 775.3951,-40.5 775.3951,-172.5 775.3951,-172.5 775.3951,-178.5 769.3951,-184.5 763.3951,-184.5 763.3951,-184.5 539.6705,-184.5 539.6705,-184.5 533.6705,-184.5 527.6705,-178.5 527.6705,-172.5 527.6705,-172.5 527.6705,-40.5 527.6705,-40.5 527.6705,-34.5 533.6705,-28.5 539.6705,-28.5"/>
<text text-anchor="middle" x="651.5328" y="-169.3" font-family="Times,serif" font-size="14.00" fill="#000000">Transaction</text>
<polyline fill="none" stroke="#000000" points="527.6705,-162.5 775.3951,-162.5 "/>
<text text-anchor="start" x="535.6705" y="-147.3" font-family="Times,serif" font-size="14.00" fill="#000000">updated_at :timestamp without time zone</text>
<text text-anchor="start" x="535.6705" y="-133.3" font-family="Times,serif" font-size="14.00" fill="#000000">order_id :integer</text>
<text text-anchor="start" x="535.6705" y="-119.3" font-family="Times,serif" font-size="14.00" fill="#000000">customer_id :integer</text>
<text text-anchor="start" x="535.6705" y="-105.3" font-family="Times,serif" font-size="14.00" fill="#000000">amount :numeric</text>
<text text-anchor="start" x="535.6705" y="-91.3" font-family="Times,serif" font-size="14.00" fill="#000000">transaction_type :integer</text>
<text text-anchor="start" x="535.6705" y="-77.3" font-family="Times,serif" font-size="14.00" fill="#000000">transaction_status :integer</text>
<text text-anchor="start" x="535.6705" y="-63.3" font-family="Times,serif" font-size="14.00" fill="#000000">status :integer</text>
<text text-anchor="start" x="535.6705" y="-49.3" font-family="Times,serif" font-size="14.00" fill="#000000">created_at :timestamp without time zone</text>
<text text-anchor="start" x="535.6705" y="-35.3" font-family="Times,serif" font-size="14.00" fill="#000000">id :bigint</text>
</g>
<!-- Customer&#45;&gt;Transaction -->
<g id="edge10" class="edge">
<title>Customer&#45;&gt;Transaction</title>
<path fill="none" stroke="#8048f8" d="M734.7329,-652.0807C738.3409,-545.0617 737.0225,-385.5319 708.5328,-250 704.6353,-231.4584 698.5449,-212.2166 691.7697,-194.0746"/>
<ellipse fill="none" stroke="#8048f8" cx="734.5825" cy="-656.3391" rx="4" ry="4"/>
<polygon fill="#8048f8" stroke="#8048f8" points="691.7542,-194.0338 692.3738,-183.0855 689.9632,-189.3656 688.1723,-184.6973 688.1723,-184.6973 688.1723,-184.6973 689.9632,-189.3656 683.9709,-186.3091 691.7542,-194.0338 691.7542,-194.0338"/>
</g>
<!-- Customer&#45;&gt;Order -->
<g id="edge9" class="edge">
<title>Customer&#45;&gt;Order</title>
<path fill="none" stroke="#eec4d5" d="M674.722,-652.9385C668.9344,-639.726 662.9484,-626.0605 656.9169,-612.2912"/>
<ellipse fill="none" stroke="#eec4d5" cx="676.3677" cy="-656.6955" rx="4" ry="4"/>
<polygon fill="#eec4d5" stroke="#eec4d5" points="656.7483,-611.9062 656.8578,-600.9408 654.7421,-607.3263 652.7359,-602.7464 652.7359,-602.7464 652.7359,-602.7464 654.7421,-607.3263 648.614,-604.552 656.7483,-611.9062 656.7483,-611.9062"/>
</g>
<!-- Address -->
<g id="node11" class="node">
<title>Address</title>
<path fill="none" stroke="#000000" d="M767.6705,-271.5C767.6705,-271.5 991.3951,-271.5 991.3951,-271.5 997.3951,-271.5 1003.3951,-277.5 1003.3951,-283.5 1003.3951,-283.5 1003.3951,-569.5 1003.3951,-569.5 1003.3951,-575.5 997.3951,-581.5 991.3951,-581.5 991.3951,-581.5 767.6705,-581.5 767.6705,-581.5 761.6705,-581.5 755.6705,-575.5 755.6705,-569.5 755.6705,-569.5 755.6705,-283.5 755.6705,-283.5 755.6705,-277.5 761.6705,-271.5 767.6705,-271.5"/>
<text text-anchor="middle" x="879.5328" y="-566.3" font-family="Times,serif" font-size="14.00" fill="#000000">Address</text>
<polyline fill="none" stroke="#000000" points="755.6705,-559.5 1003.3951,-559.5 "/>
<text text-anchor="start" x="763.6705" y="-544.3" font-family="Times,serif" font-size="14.00" fill="#000000">updated_at :timestamp without time zone</text>
<text text-anchor="start" x="763.6705" y="-530.3" font-family="Times,serif" font-size="14.00" fill="#000000">customer_id :integer</text>
<text text-anchor="start" x="763.6705" y="-516.3" font-family="Times,serif" font-size="14.00" fill="#000000">address1 :character varying</text>
<text text-anchor="start" x="763.6705" y="-502.3" font-family="Times,serif" font-size="14.00" fill="#000000">address2 :character varying</text>
<text text-anchor="start" x="763.6705" y="-488.3" font-family="Times,serif" font-size="14.00" fill="#000000">city :character varying</text>
<text text-anchor="start" x="763.6705" y="-474.3" font-family="Times,serif" font-size="14.00" fill="#000000">country_name :character varying</text>
<text text-anchor="start" x="763.6705" y="-460.3" font-family="Times,serif" font-size="14.00" fill="#000000">country_code :character varying</text>
<text text-anchor="start" x="763.6705" y="-446.3" font-family="Times,serif" font-size="14.00" fill="#000000">company :character varying</text>
<text text-anchor="start" x="763.6705" y="-432.3" font-family="Times,serif" font-size="14.00" fill="#000000">first_name :character varying</text>
<text text-anchor="start" x="763.6705" y="-418.3" font-family="Times,serif" font-size="14.00" fill="#000000">last_name :character varying</text>
<text text-anchor="start" x="763.6705" y="-404.3" font-family="Times,serif" font-size="14.00" fill="#000000">middle_name :character varying</text>
<text text-anchor="start" x="763.6705" y="-390.3" font-family="Times,serif" font-size="14.00" fill="#000000">suffix :character varying</text>
<text text-anchor="start" x="763.6705" y="-376.3" font-family="Times,serif" font-size="14.00" fill="#000000">phone :character varying</text>
<text text-anchor="start" x="763.6705" y="-362.3" font-family="Times,serif" font-size="14.00" fill="#000000">province :character varying</text>
<text text-anchor="start" x="763.6705" y="-348.3" font-family="Times,serif" font-size="14.00" fill="#000000">zip :character varying</text>
<text text-anchor="start" x="763.6705" y="-334.3" font-family="Times,serif" font-size="14.00" fill="#000000">default :boolean</text>
<text text-anchor="start" x="763.6705" y="-320.3" font-family="Times,serif" font-size="14.00" fill="#000000">address_status :integer</text>
<text text-anchor="start" x="763.6705" y="-306.3" font-family="Times,serif" font-size="14.00" fill="#000000">status :integer</text>
<text text-anchor="start" x="763.6705" y="-292.3" font-family="Times,serif" font-size="14.00" fill="#000000">created_at :timestamp without time zone</text>
<text text-anchor="start" x="763.6705" y="-278.3" font-family="Times,serif" font-size="14.00" fill="#000000">id :bigint</text>
</g>
<!-- Customer&#45;&gt;Address -->
<g id="edge8" class="edge">
<title>Customer&#45;&gt;Address</title>
<path fill="none" stroke="#8f2469" d="M780.3395,-652.9479C789.1092,-632.9276 798.3346,-611.867 807.4834,-590.9812"/>
<ellipse fill="none" stroke="#8f2469" cx="778.698" cy="-656.6955" rx="4" ry="4"/>
<polygon fill="#8f2469" stroke="#8f2469" points="807.5259,-590.8842 815.6602,-583.53 809.5321,-586.3043 811.5383,-581.7244 811.5383,-581.7244 811.5383,-581.7244 809.5321,-586.3043 807.4164,-579.9188 807.5259,-590.8842 807.5259,-590.8842"/>
</g>
<!-- Product&#45;&gt;Variant -->
<g id="edge11" class="edge">
<title>Product&#45;&gt;Variant</title>
<path fill="none" stroke="#685e3e" d="M224.0649,-673.3651C227.9553,-660.635 231.2798,-647.6385 233.5328,-635 238.5232,-607.0057 235.4229,-577.3656 228.5747,-549.492"/>
<ellipse fill="none" stroke="#685e3e" cx="222.7788" cy="-677.4372" rx="4" ry="4"/>
<polygon fill="#685e3e" stroke="#685e3e" points="228.5462,-549.3834 230.3552,-538.5678 227.2747,-544.5478 226.0032,-539.7121 226.0032,-539.7121 226.0032,-539.7121 227.2747,-544.5478 221.6511,-540.8565 228.5462,-549.3834 228.5462,-549.3834"/>
</g>
<!-- Product&#45;&gt;Variant -->
<g id="edge13" class="edge">
<title>Product&#45;&gt;Variant</title>
<path fill="none" stroke="#a50435" d="M124.2738,-671.9558C119.3124,-659.8078 115.0673,-647.3332 112.1119,-635 105.4366,-607.143 108.1891,-577.5 115.371,-549.5719"/>
<polygon fill="#a50435" stroke="#a50435" points="124.2811,-671.9731 124.0574,-682.9367 126.2395,-676.5736 128.1979,-681.1741 128.1979,-681.1741 128.1979,-681.1741 126.2395,-676.5736 132.3384,-679.4115 124.2811,-671.9731 124.2811,-671.9731"/>
<polygon fill="#a50435" stroke="#a50435" points="115.4165,-549.4072 122.4243,-540.9727 116.7522,-544.5889 118.0878,-539.7706 118.0878,-539.7706 118.0878,-539.7706 116.7522,-544.5889 113.7513,-538.5685 115.4165,-549.4072 115.4165,-549.4072"/>
<text text-anchor="middle" x="171.2433" y="-623.8" font-family="Times,serif" font-size="14.00" fill="#000000">component_products</text>
</g>
<!-- Product&#45;&gt;OrderLine -->
<g id="edge12" class="edge">
<title>Product&#45;&gt;OrderLine</title>
<path fill="none" stroke="#f58cda" d="M82.1953,-674.8401C65.5324,-652.8822 50.7085,-628.4933 41.5328,-603 -11.5986,-455.3816 -15.7445,-396.0597 41.5328,-250 45.4256,-240.0732 50.3635,-230.4233 56.0316,-221.1315"/>
<ellipse fill="none" stroke="#f58cda" cx="84.7293" cy="-678.1089" rx="4" ry="4"/>
<polygon fill="#f58cda" stroke="#f58cda" points="56.0382,-221.1211 65.2222,-215.1291 58.7357,-216.9112 61.4332,-212.7013 61.4332,-212.7013 61.4332,-212.7013 58.7357,-216.9112 57.6443,-210.2735 56.0382,-221.1211 56.0382,-221.1211"/>
</g>
<!-- Role -->
<g id="node7" class="node">
<title>Role</title>
<path fill="none" stroke="#000000" d="M957.6705,-931.5C957.6705,-931.5 1181.3951,-931.5 1181.3951,-931.5 1187.3951,-931.5 1193.3951,-937.5 1193.3951,-943.5 1193.3951,-943.5 1193.3951,-1089.5 1193.3951,-1089.5 1193.3951,-1095.5 1187.3951,-1101.5 1181.3951,-1101.5 1181.3951,-1101.5 957.6705,-1101.5 957.6705,-1101.5 951.6705,-1101.5 945.6705,-1095.5 945.6705,-1089.5 945.6705,-1089.5 945.6705,-943.5 945.6705,-943.5 945.6705,-937.5 951.6705,-931.5 957.6705,-931.5"/>
<text text-anchor="middle" x="1069.5328" y="-1086.3" font-family="Times,serif" font-size="14.00" fill="#000000">Role</text>
<polyline fill="none" stroke="#000000" points="945.6705,-1079.5 1193.3951,-1079.5 "/>
<text text-anchor="start" x="953.6705" y="-1064.3" font-family="Times,serif" font-size="14.00" fill="#000000">updated_at :timestamp without time zone</text>
<text text-anchor="start" x="953.6705" y="-1050.3" font-family="Times,serif" font-size="14.00" fill="#000000">name :character varying</text>
<text text-anchor="start" x="953.6705" y="-1036.3" font-family="Times,serif" font-size="14.00" fill="#000000">description :character varying</text>
<text text-anchor="start" x="953.6705" y="-1022.3" font-family="Times,serif" font-size="14.00" fill="#000000">level :integer</text>
<text text-anchor="start" x="953.6705" y="-1008.3" font-family="Times,serif" font-size="14.00" fill="#000000">role_type :integer</text>
<text text-anchor="start" x="953.6705" y="-994.3" font-family="Times,serif" font-size="14.00" fill="#000000">role_status :integer</text>
<text text-anchor="start" x="953.6705" y="-980.3" font-family="Times,serif" font-size="14.00" fill="#000000">code :character varying</text>
<text text-anchor="start" x="953.6705" y="-966.3" font-family="Times,serif" font-size="14.00" fill="#000000">status :integer</text>
<text text-anchor="start" x="953.6705" y="-952.3" font-family="Times,serif" font-size="14.00" fill="#000000">created_at :timestamp without time zone</text>
<text text-anchor="start" x="953.6705" y="-938.3" font-family="Times,serif" font-size="14.00" fill="#000000">id :bigint</text>
</g>
<!-- Role&#45;&gt;User -->
<g id="edge15" class="edge">
<title>Role&#45;&gt;User</title>
<path fill="none" stroke="#6b61b1" d="M1039.7795,-921.3677C1037.9082,-915.3844 1036.0089,-909.3115 1034.1008,-903.2109"/>
<polygon fill="#6b61b1" stroke="#6b61b1" points="1039.8599,-921.6249 1038.5501,-932.5123 1041.3524,-926.3969 1042.8449,-931.169 1042.8449,-931.169 1042.8449,-931.169 1041.3524,-926.3969 1047.1398,-929.8257 1039.8599,-921.6249 1039.8599,-921.6249"/>
<polygon fill="#6b61b1" stroke="#6b61b1" points="1034.0832,-903.1544 1035.393,-892.267 1032.5907,-898.3823 1031.0982,-893.6103 1031.0982,-893.6103 1031.0982,-893.6103 1032.5907,-898.3823 1026.8033,-894.9535 1034.0832,-903.1544 1034.0832,-903.1544"/>
</g>
<!-- UserRole -->
<g id="node13" class="node">
<title>UserRole</title>
<path fill="none" stroke="#000000" d="M1033.6705,-369.5C1033.6705,-369.5 1257.3951,-369.5 1257.3951,-369.5 1263.3951,-369.5 1269.3951,-375.5 1269.3951,-381.5 1269.3951,-381.5 1269.3951,-471.5 1269.3951,-471.5 1269.3951,-477.5 1263.3951,-483.5 1257.3951,-483.5 1257.3951,-483.5 1033.6705,-483.5 1033.6705,-483.5 1027.6705,-483.5 1021.6705,-477.5 1021.6705,-471.5 1021.6705,-471.5 1021.6705,-381.5 1021.6705,-381.5 1021.6705,-375.5 1027.6705,-369.5 1033.6705,-369.5"/>
<text text-anchor="middle" x="1145.5328" y="-468.3" font-family="Times,serif" font-size="14.00" fill="#000000">UserRole</text>
<polyline fill="none" stroke="#000000" points="1021.6705,-461.5 1269.3951,-461.5 "/>
<text text-anchor="start" x="1029.6705" y="-446.3" font-family="Times,serif" font-size="14.00" fill="#000000">id :bigint</text>
<text text-anchor="start" x="1029.6705" y="-432.3" font-family="Times,serif" font-size="14.00" fill="#000000">role_id :integer</text>
<text text-anchor="start" x="1029.6705" y="-418.3" font-family="Times,serif" font-size="14.00" fill="#000000">user_id :integer</text>
<text text-anchor="start" x="1029.6705" y="-404.3" font-family="Times,serif" font-size="14.00" fill="#000000">status :integer</text>
<text text-anchor="start" x="1029.6705" y="-390.3" font-family="Times,serif" font-size="14.00" fill="#000000">created_at :timestamp without time zone</text>
<text text-anchor="start" x="1029.6705" y="-376.3" font-family="Times,serif" font-size="14.00" fill="#000000">updated_at :timestamp without time zone</text>
</g>
<!-- Role&#45;&gt;UserRole -->
<g id="edge14" class="edge">
<title>Role&#45;&gt;UserRole</title>
<path fill="none" stroke="#8919b6" d="M1117.1988,-923.8581C1120.9027,-913.9665 1124.1304,-903.9 1126.5328,-894 1160.3214,-754.761 1156.5684,-585.456 1150.9664,-493.6192"/>
<ellipse fill="none" stroke="#8919b6" cx="1115.7263" cy="-927.6535" rx="4" ry="4"/>
<polygon fill="#8919b6" stroke="#8919b6" points="1150.9655,-493.6032 1154.8214,-483.3376 1150.648,-488.6133 1150.3305,-483.6234 1150.3305,-483.6234 1150.3305,-483.6234 1150.648,-488.6133 1145.8396,-483.9091 1150.9655,-493.6032 1150.9655,-493.6032"/>
</g>
<!-- Order&#45;&gt;OrderLine -->
<g id="edge16" class="edge">
<title>Order&#45;&gt;OrderLine</title>
<path fill="none" stroke="#172df6" d="M445.6783,-252.7314C444.6331,-251.8115 443.5846,-250.9009 442.5328,-250 402.6069,-215.7991 353.1765,-186.4877 307.6828,-163.4387"/>
<ellipse fill="none" stroke="#172df6" cx="448.6568" cy="-255.4181" rx="4" ry="4"/>
<polygon fill="#172df6" stroke="#172df6" points="307.5829,-163.3887 300.6547,-154.8887 303.1117,-161.1508 298.6405,-158.9128 298.6405,-158.9128 298.6405,-158.9128 303.1117,-161.1508 296.6263,-162.9369 307.5829,-163.3887 307.5829,-163.3887"/>
</g>
<!-- Order&#45;&gt;Transaction -->
<g id="edge17" class="edge">
<title>Order&#45;&gt;Transaction</title>
<path fill="none" stroke="#e646c1" d="M619.3295,-242.0929C623.2441,-225.6102 627.0747,-209.4815 630.6498,-194.4286"/>
<ellipse fill="none" stroke="#e646c1" cx="618.3476" cy="-246.2276" rx="4" ry="4"/>
<polygon fill="#e646c1" stroke="#e646c1" points="630.6497,-194.4286 637.3387,-185.7391 631.8051,-189.5639 632.9605,-184.6992 632.9605,-184.6992 632.9605,-184.6992 631.8051,-189.5639 628.5823,-183.6594 630.6497,-194.4286 630.6497,-194.4286"/>
</g>
<!-- ApplicationRecord -->
<g id="node10" class="node">
<title>ApplicationRecord</title>
<ellipse fill="none" stroke="#000000" cx="1288.5328" cy="-1016.5" rx="77.2916" ry="18"/>
<text text-anchor="middle" x="1288.5328" y="-1012.3" font-family="Times,serif" font-size="14.00" fill="#000000">ApplicationRecord</text>
</g>
<!-- User&#45;&gt;Order -->
<g id="edge19" class="edge">
<title>User&#45;&gt;Order</title>
<path fill="none" stroke="#dc88ba" d="M862.788,-654.4735C862.0365,-653.9782 861.2847,-653.487 860.5328,-653 814.0957,-622.9245 791.9666,-634.5707 746.5328,-603 733.0601,-593.6382 719.7767,-583.1065 706.9296,-571.9677"/>
<ellipse fill="none" stroke="#dc88ba" cx="866.2295" cy="-656.7986" rx="4" ry="4"/>
<polygon fill="#dc88ba" stroke="#dc88ba" points="706.918,-571.9575 702.394,-561.9683 703.1679,-568.6505 699.4177,-565.3435 699.4177,-565.3435 699.4177,-565.3435 703.1679,-568.6505 696.4414,-568.7186 706.918,-571.9575 706.918,-571.9575"/>
</g>
<!-- User&#45;&gt;UserRole -->
<g id="edge18" class="edge">
<title>User&#45;&gt;UserRole</title>
<path fill="none" stroke="#2abd5d" d="M1049.5268,-645.6717C1072.1938,-593.9252 1097.4171,-536.3431 1116.3198,-493.1903"/>
<ellipse fill="none" stroke="#2abd5d" cx="1047.8734" cy="-649.4462" rx="4" ry="4"/>
<polygon fill="#2abd5d" stroke="#2abd5d" points="1116.3628,-493.092 1124.4971,-485.7378 1118.369,-488.5121 1120.3752,-483.9323 1120.3752,-483.9323 1120.3752,-483.9323 1118.369,-488.5121 1116.2533,-482.1267 1116.3628,-493.092 1116.3628,-493.092"/>
</g>
</g>
</svg>
