<?xml version="1.0" encoding="UTF-8" standalone="no"?>
<!DOCTYPE svg PUBLIC "-//W3C//DTD SVG 1.1//EN"
 "http://www.w3.org/Graphics/SVG/1.1/DTD/svg11.dtd">
<!-- Generated by graphviz version 2.40.1 (20161225.0304)
 -->
<!-- Title: models_diagram Pages: 1 -->
<svg width="494pt" height="297pt"
 viewBox="0.00 0.00 493.78 297.00" xmlns="http://www.w3.org/2000/svg" xmlns:xlink="http://www.w3.org/1999/xlink">
<g id="graph0" class="graph" transform="scale(1 1) rotate(0) translate(4 293)">
<title>models_diagram</title>
<polygon fill="transparent" stroke="transparent" points="-4,4 -4,-293 489.7776,-293 489.7776,4 -4,4"/>
<!-- _diagram_info -->
<g id="node1" class="node">
<title>_diagram_info</title>
<text text-anchor="start" x="8" y="-274.6" font-family="Times,serif" font-size="13.00" fill="#000000">Models diagram</text>
<text text-anchor="start" x="8" y="-261.6" font-family="Times,serif" font-size="13.00" fill="#000000">Date: Apr 26 2018 &#45; 21:20</text>
<text text-anchor="start" x="8" y="-248.6" font-family="Times,serif" font-size="13.00" fill="#000000">Migration version: 20180420105539</text>
<text text-anchor="start" x="8" y="-235.6" font-family="Times,serif" font-size="13.00" fill="#000000">Generated by RailRoady 1.5.3</text>
<text text-anchor="start" x="8" y="-222.6" font-family="Times,serif" font-size="13.00" fill="#000000">http://railroady.prestonlee.com</text>
</g>
<!-- Variant -->
<g id="node2" class="node">
<title>Variant</title>
<ellipse fill="none" stroke="#000000" cx="92.6877" cy="-90" rx="35.7887" ry="18"/>
<text text-anchor="middle" x="92.6877" y="-85.8" font-family="Times,serif" font-size="14.00" fill="#000000">Variant</text>
</g>
<!-- OrderLine -->
<g id="node6" class="node">
<title>OrderLine</title>
<ellipse fill="none" stroke="#000000" cx="156.6877" cy="-18" rx="46.8719" ry="18"/>
<text text-anchor="middle" x="156.6877" y="-13.8" font-family="Times,serif" font-size="14.00" fill="#000000">OrderLine</text>
</g>
<!-- Variant&#45;&gt;OrderLine -->
<g id="edge1" class="edge">
<title>Variant&#45;&gt;OrderLine</title>
<path fill="none" stroke="#06a9d2" d="M113.0456,-67.0974C119.9598,-59.3189 127.7136,-50.5959 134.746,-42.6845"/>
<ellipse fill="none" stroke="#06a9d2" cx="110.189" cy="-70.3111" rx="4" ry="4"/>
<polygon fill="#06a9d2" stroke="#06a9d2" points="134.8364,-42.5828 144.8434,-38.0983 138.1582,-38.8457 141.4801,-35.1086 141.4801,-35.1086 141.4801,-35.1086 138.1582,-38.8457 138.1167,-32.119 134.8364,-42.5828 134.8364,-42.5828"/>
</g>
<!-- Account -->
<g id="node3" class="node">
<title>Account</title>
<ellipse fill="none" stroke="#000000" cx="265.6877" cy="-252.5" rx="40.1317" ry="18"/>
<text text-anchor="middle" x="265.6877" y="-248.3" font-family="Times,serif" font-size="14.00" fill="#000000">Account</text>
</g>
<!-- Product -->
<g id="node5" class="node">
<title>Product</title>
<ellipse fill="none" stroke="#000000" cx="110.6877" cy="-162" rx="37.7352" ry="18"/>
<text text-anchor="middle" x="110.6877" y="-157.8" font-family="Times,serif" font-size="14.00" fill="#000000">Product</text>
</g>
<!-- Account&#45;&gt;Product -->
<g id="edge3" class="edge">
<title>Account&#45;&gt;Product</title>
<path fill="none" stroke="#af0fcc" d="M238.9191,-231.2905C231.854,-226.0484 224.1223,-220.6166 216.6877,-216 194.4735,-202.2056 168.3048,-188.8474 147.5267,-178.8681"/>
<ellipse fill="none" stroke="#af0fcc" cx="242.5345" cy="-234.0213" rx="4" ry="4"/>
<polygon fill="#af0fcc" stroke="#af0fcc" points="147.4264,-178.8206 140.3231,-170.4663 142.9097,-176.676 138.3929,-174.5314 138.3929,-174.5314 138.3929,-174.5314 142.9097,-176.676 136.4628,-178.5964 147.4264,-178.8206 147.4264,-178.8206"/>
</g>
<!-- Order -->
<g id="node9" class="node">
<title>Order</title>
<ellipse fill="none" stroke="#000000" cx="320.6877" cy="-90" rx="30.9619" ry="18"/>
<text text-anchor="middle" x="320.6877" y="-85.8" font-family="Times,serif" font-size="14.00" fill="#000000">Order</text>
</g>
<!-- Account&#45;&gt;Order -->
<g id="edge4" class="edge">
<title>Account&#45;&gt;Order</title>
<path fill="none" stroke="#8b2bae" d="M279.963,-227.6905C287.338,-213.9933 295.9659,-196.4643 301.6877,-180 308.7431,-159.6985 313.6314,-135.8681 316.6813,-117.8304"/>
<ellipse fill="none" stroke="#8b2bae" cx="277.9453" cy="-231.3679" rx="4" ry="4"/>
<polygon fill="#8b2bae" stroke="#8b2bae" points="316.6823,-117.8236 322.7102,-108.6631 317.4747,-112.8868 318.267,-107.9499 318.267,-107.9499 318.267,-107.9499 317.4747,-112.8868 313.8239,-107.2368 316.6823,-117.8236 316.6823,-117.8236"/>
</g>
<!-- User -->
<g id="node12" class="node">
<title>User</title>
<ellipse fill="none" stroke="#000000" cx="265.6877" cy="-162" rx="27" ry="18"/>
<text text-anchor="middle" x="265.6877" y="-157.8" font-family="Times,serif" font-size="14.00" fill="#000000">User</text>
</g>
<!-- Account&#45;&gt;User -->
<g id="edge2" class="edge">
<title>Account&#45;&gt;User</title>
<path fill="none" stroke="#ba4ddc" d="M265.6877,-225.9687C265.6877,-214.8402 265.6877,-201.878 265.6877,-190.5429"/>
<ellipse fill="none" stroke="#ba4ddc" cx="265.6878" cy="-230.186" rx="4" ry="4"/>
<polygon fill="#ba4ddc" stroke="#ba4ddc" points="265.6878,-190.2868 270.1877,-180.2867 265.6878,-185.2868 265.6877,-180.2868 265.6877,-180.2868 265.6877,-180.2868 265.6878,-185.2868 261.1877,-180.2868 265.6878,-190.2868 265.6878,-190.2868"/>
</g>
<!-- Customer -->
<g id="node4" class="node">
<title>Customer</title>
<ellipse fill="none" stroke="#000000" cx="392.6877" cy="-162" rx="44.4923" ry="18"/>
<text text-anchor="middle" x="392.6877" y="-157.8" font-family="Times,serif" font-size="14.00" fill="#000000">Customer</text>
</g>
<!-- Transaction -->
<g id="node8" class="node">
<title>Transaction</title>
<ellipse fill="none" stroke="#000000" cx="349.6877" cy="-18" rx="51.5866" ry="18"/>
<text text-anchor="middle" x="349.6877" y="-13.8" font-family="Times,serif" font-size="14.00" fill="#000000">Transaction</text>
</g>
<!-- Customer&#45;&gt;Transaction -->
<g id="edge7" class="edge">
<title>Customer&#45;&gt;Transaction</title>
<path fill="none" stroke="#ab1378" d="M384.9381,-136.0476C377.3375,-110.5946 365.787,-71.9136 357.9988,-45.8325"/>
<ellipse fill="none" stroke="#ab1378" cx="386.1842" cy="-140.2207" rx="4" ry="4"/>
<polygon fill="#ab1378" stroke="#ab1378" points="357.9757,-45.7546 359.4262,-34.8851 356.545,-40.9637 355.1143,-36.1727 355.1143,-36.1727 355.1143,-36.1727 356.545,-40.9637 350.8025,-37.4603 357.9757,-45.7546 357.9757,-45.7546"/>
</g>
<!-- Customer&#45;&gt;Order -->
<g id="edge6" class="edge">
<title>Customer&#45;&gt;Order</title>
<path fill="none" stroke="#97468d" d="M370.1164,-139.4286C361.618,-130.9302 351.9541,-121.2664 343.4394,-112.7516"/>
<ellipse fill="none" stroke="#97468d" cx="373.1601" cy="-142.4723" rx="4" ry="4"/>
<polygon fill="#97468d" stroke="#97468d" points="343.3818,-112.694 339.4927,-102.4409 339.8462,-109.1585 336.3107,-105.6229 336.3107,-105.6229 336.3107,-105.6229 339.8462,-109.1585 333.1287,-108.8049 343.3818,-112.694 343.3818,-112.694"/>
</g>
<!-- Address -->
<g id="node11" class="node">
<title>Address</title>
<ellipse fill="none" stroke="#000000" cx="446.6877" cy="-90" rx="39.18" ry="18"/>
<text text-anchor="middle" x="446.6877" y="-85.8" font-family="Times,serif" font-size="14.00" fill="#000000">Address</text>
</g>
<!-- Customer&#45;&gt;Address -->
<g id="edge5" class="edge">
<title>Customer&#45;&gt;Address</title>
<path fill="none" stroke="#49205a" d="M410.7687,-137.8921C416.1765,-130.6816 422.1221,-122.7542 427.5929,-115.4598"/>
<ellipse fill="none" stroke="#49205a" cx="408.1597" cy="-141.3708" rx="4" ry="4"/>
<polygon fill="#49205a" stroke="#49205a" points="427.7362,-115.2687 437.3362,-109.9687 430.7362,-111.2687 433.7362,-107.2687 433.7362,-107.2687 433.7362,-107.2687 430.7362,-111.2687 430.1362,-104.5687 427.7362,-115.2687 427.7362,-115.2687"/>
</g>
<!-- Product&#45;&gt;Variant -->
<g id="edge8" class="edge">
<title>Product&#45;&gt;Variant</title>
<path fill="none" stroke="#98ad38" d="M104.1798,-135.9684C102.6889,-130.0044 101.0988,-123.6443 99.5918,-117.6162"/>
<ellipse fill="none" stroke="#98ad38" cx="105.1754" cy="-139.9508" rx="4" ry="4"/>
<polygon fill="#98ad38" stroke="#98ad38" points="99.5915,-117.6148 101.5317,-106.822 98.3788,-112.7641 97.1661,-107.9134 97.1661,-107.9134 97.1661,-107.9134 98.3788,-112.7641 92.8005,-109.0049 99.5915,-117.6148 99.5915,-117.6148"/>
</g>
<!-- Product&#45;&gt;OrderLine -->
<g id="edge9" class="edge">
<title>Product&#45;&gt;OrderLine</title>
<path fill="none" stroke="#a15c0f" d="M124.6985,-137.3062C129.3578,-128.3005 134.2333,-117.896 137.6877,-108 144.7271,-87.8343 149.5972,-64.1733 152.6433,-46.1738"/>
<ellipse fill="none" stroke="#a15c0f" cx="122.7501" cy="-140.9687" rx="4" ry="4"/>
<polygon fill="#a15c0f" stroke="#a15c0f" points="152.6434,-46.173 158.6717,-37.0128 153.436,-41.2362 154.2286,-36.2995 154.2286,-36.2995 154.2286,-36.2995 153.436,-41.2362 149.7855,-35.5861 152.6434,-46.173 152.6434,-46.173"/>
</g>
<!-- Role -->
<g id="node7" class="node">
<title>Role</title>
<ellipse fill="none" stroke="#000000" cx="193.6877" cy="-162" rx="27" ry="18"/>
<text text-anchor="middle" x="193.6877" y="-157.8" font-family="Times,serif" font-size="14.00" fill="#000000">Role</text>
</g>
<!-- UserRole -->
<g id="node13" class="node">
<title>UserRole</title>
<ellipse fill="none" stroke="#000000" cx="228.6877" cy="-90" rx="43.5146" ry="18"/>
<text text-anchor="middle" x="228.6877" y="-85.8" font-family="Times,serif" font-size="14.00" fill="#000000">UserRole</text>
</g>
<!-- Role&#45;&gt;UserRole -->
<g id="edge10" class="edge">
<title>Role&#45;&gt;UserRole</title>
<path fill="none" stroke="#fb965c" d="M205.7743,-137.1363C208.9305,-130.6436 212.3472,-123.6148 215.5549,-117.0162"/>
<ellipse fill="none" stroke="#fb965c" cx="203.9091" cy="-140.9733" rx="4" ry="4"/>
<polygon fill="#fb965c" stroke="#fb965c" points="215.6781,-116.7626 224.0973,-109.7363 217.8641,-112.2657 220.0501,-107.7689 220.0501,-107.7689 220.0501,-107.7689 217.8641,-112.2657 216.0029,-105.8015 215.6781,-116.7626 215.6781,-116.7626"/>
</g>
<!-- Order&#45;&gt;OrderLine -->
<g id="edge11" class="edge">
<title>Order&#45;&gt;OrderLine</title>
<path fill="none" stroke="#eb0f54" d="M289.0034,-75.2973C286.5313,-74.1744 284.0708,-73.0645 281.6877,-72 253.7723,-59.5305 222.159,-45.8778 197.7091,-35.4201"/>
<ellipse fill="none" stroke="#eb0f54" cx="292.751" cy="-77.0102" rx="4" ry="4"/>
<polygon fill="#eb0f54" stroke="#eb0f54" points="197.573,-35.362 190.1438,-27.2962 192.9747,-33.3983 188.3764,-31.4346 188.3764,-31.4346 188.3764,-31.4346 192.9747,-33.3983 186.6091,-35.573 197.573,-35.362 197.573,-35.362"/>
</g>
<!-- Order&#45;&gt;Transaction -->
<g id="edge12" class="edge">
<title>Order&#45;&gt;Transaction</title>
<path fill="none" stroke="#138eac" d="M330.9383,-64.5502C333.4461,-58.3241 336.1398,-51.6362 338.6813,-45.3263"/>
<ellipse fill="none" stroke="#138eac" cx="329.3508" cy="-68.4919" rx="4" ry="4"/>
<polygon fill="#138eac" stroke="#138eac" points="338.765,-45.1184 346.6753,-37.5238 340.6331,-40.4805 342.5012,-35.8425 342.5012,-35.8425 342.5012,-35.8425 340.6331,-40.4805 338.327,-34.1613 338.765,-45.1184 338.765,-45.1184"/>
</g>
<!-- ApplicationRecord -->
<g id="node10" class="node">
<title>ApplicationRecord</title>
<ellipse fill="none" stroke="#000000" cx="400.6877" cy="-252.5" rx="77.2916" ry="18"/>
<text text-anchor="middle" x="400.6877" y="-248.3" font-family="Times,serif" font-size="14.00" fill="#000000">ApplicationRecord</text>
</g>
<!-- User&#45;&gt;Order -->
<g id="edge14" class="edge">
<title>User&#45;&gt;Order</title>
<path fill="none" stroke="#ac3bdd" d="M283.209,-139.0631C289.091,-131.363 295.6777,-122.7404 301.6691,-114.8972"/>
<ellipse fill="none" stroke="#ac3bdd" cx="280.5963" cy="-142.4834" rx="4" ry="4"/>
<polygon fill="#ac3bdd" stroke="#ac3bdd" points="301.8047,-114.7196 311.4511,-109.5046 304.8399,-110.7463 307.8751,-106.7729 307.8751,-106.7729 307.8751,-106.7729 304.8399,-110.7463 304.2991,-104.0412 301.8047,-114.7196 301.8047,-114.7196"/>
</g>
<!-- User&#45;&gt;UserRole -->
<g id="edge13" class="edge">
<title>User&#45;&gt;UserRole</title>
<path fill="none" stroke="#ec9610" d="M253.2138,-137.7263C249.7381,-130.9629 245.944,-123.5797 242.4012,-116.6857"/>
<ellipse fill="none" stroke="#ec9610" cx="255.091" cy="-141.3793" rx="4" ry="4"/>
<polygon fill="#ec9610" stroke="#ec9610" points="242.3504,-116.5867 241.7821,-105.6356 240.0651,-112.1396 237.7797,-107.6924 237.7797,-107.6924 237.7797,-107.6924 240.0651,-112.1396 233.7772,-109.7493 242.3504,-116.5867 242.3504,-116.5867"/>
</g>
</g>
</svg>
