<?xml version="1.0" encoding="UTF-8" standalone="no"?>
<!DOCTYPE svg PUBLIC "-//W3C//DTD SVG 1.1//EN"
 "http://www.w3.org/Graphics/SVG/1.1/DTD/svg11.dtd">
<!-- Generated by graphviz version 2.40.1 (20161225.0304)
 -->
<!-- Title: models_diagram Pages: 1 -->
<svg width="753pt" height="313pt"
 viewBox="0.00 0.00 752.77 313.00" xmlns="http://www.w3.org/2000/svg" xmlns:xlink="http://www.w3.org/1999/xlink">
<g id="graph0" class="graph" transform="scale(1 1) rotate(0) translate(4 309)">
<title>models_diagram</title>
<polygon fill="transparent" stroke="transparent" points="-4,4 -4,-309 748.7706,-309 748.7706,4 -4,4"/>
<!-- _diagram_info -->
<g id="node1" class="node">
<title>_diagram_info</title>
<text text-anchor="start" x="228.1978" y="-290.6" font-family="Times,serif" font-size="13.00" fill="#000000">Models diagram</text>
<text text-anchor="start" x="228.1978" y="-277.6" font-family="Times,serif" font-size="13.00" fill="#000000">Date: Jun 29 2018 &#45; 22:58</text>
<text text-anchor="start" x="228.1978" y="-264.6" font-family="Times,serif" font-size="13.00" fill="#000000">Migration version: 20180509142140</text>
<text text-anchor="start" x="228.1978" y="-251.6" font-family="Times,serif" font-size="13.00" fill="#000000">Generated by RailRoady 1.5.3</text>
<text text-anchor="start" x="228.1978" y="-238.6" font-family="Times,serif" font-size="13.00" fill="#000000">http://railroady.prestonlee.com</text>
</g>
<!-- Variant -->
<g id="node2" class="node">
<title>Variant</title>
<ellipse fill="none" stroke="#000000" cx="158.8855" cy="-104" rx="35.7887" ry="18"/>
<text text-anchor="middle" x="158.8855" y="-99.8" font-family="Times,serif" font-size="14.00" fill="#000000">Variant</text>
</g>
<!-- InvoiceLine -->
<g id="node7" class="node">
<title>InvoiceLine</title>
<ellipse fill="none" stroke="#000000" cx="286.8855" cy="-18" rx="52.6607" ry="18"/>
<text text-anchor="middle" x="286.8855" y="-13.8" font-family="Times,serif" font-size="14.00" fill="#000000">InvoiceLine</text>
</g>
<!-- Variant&#45;&gt;InvoiceLine -->
<g id="edge1" class="edge">
<title>Variant&#45;&gt;InvoiceLine</title>
<path fill="none" stroke="#e7906e" d="M198.4292,-93.0032C214.7593,-87.2423 233.2497,-79.0427 247.8855,-68 256.5857,-61.4357 264.3894,-52.4709 270.6888,-43.9439"/>
<ellipse fill="none" stroke="#e7906e" cx="194.403" cy="-94.3599" rx="4" ry="4"/>
<polygon fill="#e7906e" stroke="#e7906e" points="270.7413,-43.8686 280.1545,-38.2434 273.6028,-39.7683 276.4642,-35.6681 276.4642,-35.6681 276.4642,-35.6681 273.6028,-39.7683 272.774,-33.0927 270.7413,-43.8686 270.7413,-43.8686"/>
</g>
<!-- ProductComponent -->
<g id="node11" class="node">
<title>ProductComponent</title>
<ellipse fill="none" stroke="#000000" cx="78.8855" cy="-18" rx="78.7712" ry="18"/>
<text text-anchor="middle" x="78.8855" y="-13.8" font-family="Times,serif" font-size="14.00" fill="#000000">ProductComponent</text>
</g>
<!-- Variant&#45;&gt;ProductComponent -->
<g id="edge2" class="edge">
<title>Variant&#45;&gt;ProductComponent</title>
<path fill="none" stroke="#39f3a4" d="M116.7646,-95.933C101.2083,-90.6926 85.1322,-82.0896 75.8855,-68 71.6867,-61.6021 70.7291,-53.6946 71.2805,-46.0713"/>
<ellipse fill="none" stroke="#39f3a4" cx="120.986" cy="-97.2154" rx="4" ry="4"/>
<polygon fill="#39f3a4" stroke="#39f3a4" points="71.3052,-45.9074 77.2541,-36.6954 72.0551,-40.9639 72.805,-36.0205 72.805,-36.0205 72.805,-36.0205 72.0551,-40.9639 68.3559,-35.3456 71.3052,-45.9074 71.3052,-45.9074"/>
</g>
<!-- Variant&#45;&gt;ProductComponent -->
<g id="edge3" class="edge">
<title>Variant&#45;&gt;ProductComponent</title>
<path fill="none" stroke="#356d0c" d="M122.9002,-89.4969C112.8915,-84.016 102.7756,-76.8973 95.4714,-68 90.3067,-61.7088 86.7284,-53.7487 84.2577,-46.0405"/>
<ellipse fill="none" stroke="#356d0c" cx="126.5675" cy="-91.3763" rx="4" ry="4"/>
<polygon fill="#356d0c" stroke="#356d0c" points="84.2115,-45.869 85.9523,-35.0421 82.9095,-41.0415 81.6075,-36.214 81.6075,-36.214 81.6075,-36.214 82.9095,-41.0415 77.2627,-37.3858 84.2115,-45.869 84.2115,-45.869"/>
<text text-anchor="middle" x="172.0925" y="-56.8" font-family="Times,serif" font-size="14.00" fill="#000000">child_product_components</text>
</g>
<!-- Invoice -->
<g id="node3" class="node">
<title>Invoice</title>
<ellipse fill="none" stroke="#000000" cx="485.8855" cy="-104" rx="36.7489" ry="18"/>
<text text-anchor="middle" x="485.8855" y="-99.8" font-family="Times,serif" font-size="14.00" fill="#000000">Invoice</text>
</g>
<!-- Invoice&#45;&gt;InvoiceLine -->
<g id="edge4" class="edge">
<title>Invoice&#45;&gt;InvoiceLine</title>
<path fill="none" stroke="#649201" d="M450.6354,-88.7663C416.6039,-74.0592 365.0524,-51.7807 328.905,-36.1592"/>
<ellipse fill="none" stroke="#649201" cx="454.5436" cy="-90.4552" rx="4" ry="4"/>
<polygon fill="#649201" stroke="#649201" points="328.7864,-36.108 321.3921,-28.0102 324.1967,-34.1245 319.607,-32.1409 319.607,-32.1409 319.607,-32.1409 324.1967,-34.1245 317.8218,-36.2717 328.7864,-36.108 328.7864,-36.108"/>
</g>
<!-- Transaction -->
<g id="node9" class="node">
<title>Transaction</title>
<ellipse fill="none" stroke="#000000" cx="452.8855" cy="-18" rx="51.5866" ry="18"/>
<text text-anchor="middle" x="452.8855" y="-13.8" font-family="Times,serif" font-size="14.00" fill="#000000">Transaction</text>
</g>
<!-- Invoice&#45;&gt;Transaction -->
<g id="edge5" class="edge">
<title>Invoice&#45;&gt;Transaction</title>
<path fill="none" stroke="#b3873d" d="M476.1124,-78.5306C472.1459,-68.1938 467.5537,-56.2262 463.505,-45.675"/>
<ellipse fill="none" stroke="#b3873d" cx="477.6148" cy="-82.4462" rx="4" ry="4"/>
<polygon fill="#b3873d" stroke="#b3873d" points="463.4105,-45.4286 464.0292,-34.4801 461.6192,-40.7604 459.8279,-36.0923 459.8279,-36.0923 459.8279,-36.0923 461.6192,-40.7604 455.6266,-37.7045 463.4105,-45.4286 463.4105,-45.4286"/>
</g>
<!-- Account -->
<g id="node4" class="node">
<title>Account</title>
<ellipse fill="none" stroke="#000000" cx="485.8855" cy="-268.5" rx="40.1317" ry="18"/>
<text text-anchor="middle" x="485.8855" y="-264.3" font-family="Times,serif" font-size="14.00" fill="#000000">Account</text>
</g>
<!-- Account&#45;&gt;Invoice -->
<g id="edge8" class="edge">
<title>Account&#45;&gt;Invoice</title>
<path fill="none" stroke="#b62310" d="M485.8855,-242.2601C485.8855,-212.1714 485.8855,-163.0336 485.8855,-132.161"/>
<ellipse fill="none" stroke="#b62310" cx="485.8855" cy="-246.2671" rx="4" ry="4"/>
<polygon fill="#b62310" stroke="#b62310" points="485.8856,-132.0639 490.3855,-122.0638 485.8855,-127.0639 485.8855,-122.0639 485.8855,-122.0639 485.8855,-122.0639 485.8855,-127.0639 481.3855,-122.0639 485.8856,-132.0639 485.8856,-132.0639"/>
</g>
<!-- Customer -->
<g id="node5" class="node">
<title>Customer</title>
<ellipse fill="none" stroke="#000000" cx="413.8855" cy="-177" rx="44.4923" ry="18"/>
<text text-anchor="middle" x="413.8855" y="-172.8" font-family="Times,serif" font-size="14.00" fill="#000000">Customer</text>
</g>
<!-- Account&#45;&gt;Customer -->
<g id="edge9" class="edge">
<title>Account&#45;&gt;Customer</title>
<path fill="none" stroke="#314973" d="M467.2755,-244.8498C457.105,-231.9248 444.4972,-215.9024 434.0876,-202.6735"/>
<ellipse fill="none" stroke="#314973" cx="469.8693" cy="-248.1461" rx="4" ry="4"/>
<polygon fill="#314973" stroke="#314973" points="433.7962,-202.3031 431.1486,-191.6616 430.7042,-198.3737 427.6122,-194.4444 427.6122,-194.4444 427.6122,-194.4444 430.7042,-198.3737 424.0758,-197.2271 433.7962,-202.3031 433.7962,-202.3031"/>
</g>
<!-- Product -->
<g id="node6" class="node">
<title>Product</title>
<ellipse fill="none" stroke="#000000" cx="286.8855" cy="-177" rx="37.7352" ry="18"/>
<text text-anchor="middle" x="286.8855" y="-172.8" font-family="Times,serif" font-size="14.00" fill="#000000">Product</text>
</g>
<!-- Account&#45;&gt;Product -->
<g id="edge7" class="edge">
<title>Account&#45;&gt;Product</title>
<path fill="none" stroke="#2bf754" d="M460.3112,-247.2843C453.0247,-241.8513 444.8862,-236.3276 436.8855,-232 402.3232,-213.3049 360.0776,-198.458 329.2369,-188.9253"/>
<ellipse fill="none" stroke="#2bf754" cx="463.561" cy="-249.7769" rx="4" ry="4"/>
<polygon fill="#2bf754" stroke="#2bf754" points="329.2186,-188.9198 320.954,-181.7123 324.4336,-187.4693 319.6486,-186.0188 319.6486,-186.0188 319.6486,-186.0188 324.4336,-187.4693 318.3432,-190.3253 329.2186,-188.9198 329.2186,-188.9198"/>
</g>
<!-- Role -->
<g id="node8" class="node">
<title>Role</title>
<ellipse fill="none" stroke="#000000" cx="540.8855" cy="-177" rx="27" ry="18"/>
<text text-anchor="middle" x="540.8855" y="-172.8" font-family="Times,serif" font-size="14.00" fill="#000000">Role</text>
</g>
<!-- Account&#45;&gt;Role -->
<g id="edge10" class="edge">
<title>Account&#45;&gt;Role</title>
<path fill="none" stroke="#50655b" d="M500.6484,-243.94C508.2912,-231.2251 517.6187,-215.7074 525.3682,-202.8152"/>
<ellipse fill="none" stroke="#50655b" cx="498.5508" cy="-247.4296" rx="4" ry="4"/>
<polygon fill="#50655b" stroke="#50655b" points="525.5335,-202.5401 534.5423,-196.2876 528.1094,-198.2547 530.6854,-193.9693 530.6854,-193.9693 530.6854,-193.9693 528.1094,-198.2547 526.8285,-191.6509 525.5335,-202.5401 525.5335,-202.5401"/>
</g>
<!-- User -->
<g id="node14" class="node">
<title>User</title>
<ellipse fill="none" stroke="#000000" cx="612.8855" cy="-177" rx="27" ry="18"/>
<text text-anchor="middle" x="612.8855" y="-172.8" font-family="Times,serif" font-size="14.00" fill="#000000">User</text>
</g>
<!-- Account&#45;&gt;User -->
<g id="edge6" class="edge">
<title>Account&#45;&gt;User</title>
<path fill="none" stroke="#cf7987" d="M513.5202,-247.7192C520.4685,-242.5483 527.9286,-237.0426 534.8855,-232 551.5958,-219.8879 570.51,-206.5422 585.5278,-196.0304"/>
<ellipse fill="none" stroke="#cf7987" cx="509.9859" cy="-250.3566" rx="4" ry="4"/>
<polygon fill="#cf7987" stroke="#cf7987" points="585.6761,-195.9267 596.4509,-193.8883 589.7749,-193.0631 593.8736,-190.1994 593.8736,-190.1994 593.8736,-190.1994 589.7749,-193.0631 591.2964,-186.5106 585.6761,-195.9267 585.6761,-195.9267"/>
</g>
<!-- Customer&#45;&gt;Invoice -->
<g id="edge12" class="edge">
<title>Customer&#45;&gt;Invoice</title>
<path fill="none" stroke="#ec33ed" d="M436.3721,-154.2011C444.7448,-145.7121 454.2583,-136.0664 462.6931,-127.5145"/>
<ellipse fill="none" stroke="#ec33ed" cx="433.3936" cy="-157.221" rx="4" ry="4"/>
<polygon fill="#ec33ed" stroke="#ec33ed" points="462.75,-127.4569 472.976,-123.4971 466.261,-123.897 469.7721,-120.3372 469.7721,-120.3372 469.7721,-120.3372 466.261,-123.897 466.5683,-117.1772 462.75,-127.4569 462.75,-127.4569"/>
</g>
<!-- Customer&#45;&gt;Transaction -->
<g id="edge13" class="edge">
<title>Customer&#45;&gt;Transaction</title>
<path fill="none" stroke="#2defd7" d="M420.273,-150.9587C427.3711,-122.0204 438.7883,-75.4731 446.0589,-45.8316"/>
<ellipse fill="none" stroke="#2defd7" cx="419.2364" cy="-155.1849" rx="4" ry="4"/>
<polygon fill="#2defd7" stroke="#2defd7" points="446.0615,-45.8208 452.8142,-37.1807 447.2526,-40.9647 448.4437,-36.1087 448.4437,-36.1087 448.4437,-36.1087 447.2526,-40.9647 444.0733,-35.0366 446.0615,-45.8208 446.0615,-45.8208"/>
</g>
<!-- Address -->
<g id="node13" class="node">
<title>Address</title>
<ellipse fill="none" stroke="#000000" cx="353.8855" cy="-104" rx="39.18" ry="18"/>
<text text-anchor="middle" x="353.8855" y="-99.8" font-family="Times,serif" font-size="14.00" fill="#000000">Address</text>
</g>
<!-- Customer&#45;&gt;Address -->
<g id="edge11" class="edge">
<title>Customer&#45;&gt;Address</title>
<path fill="none" stroke="#03a2cc" d="M394.4611,-153.367C388.0101,-145.5182 380.8109,-136.7592 374.2883,-128.8234"/>
<ellipse fill="none" stroke="#03a2cc" cx="397.1265" cy="-156.6098" rx="4" ry="4"/>
<polygon fill="#03a2cc" stroke="#03a2cc" points="374.1453,-128.6494 371.2721,-118.0666 370.9705,-124.7867 367.7956,-120.924 367.7956,-120.924 367.7956,-120.924 370.9705,-124.7867 364.3192,-123.7813 374.1453,-128.6494 374.1453,-128.6494"/>
</g>
<!-- Product&#45;&gt;Variant -->
<g id="edge14" class="edge">
<title>Product&#45;&gt;Variant</title>
<path fill="none" stroke="#c995cd" d="M255.4944,-159.0972C236.1059,-148.0398 211.2692,-133.8751 191.6339,-122.6768"/>
<ellipse fill="none" stroke="#c995cd" cx="259.0337" cy="-161.1158" rx="4" ry="4"/>
<polygon fill="#c995cd" stroke="#c995cd" points="191.4252,-122.5578 184.9679,-113.6947 187.0819,-120.0808 182.7385,-117.6037 182.7385,-117.6037 182.7385,-117.6037 187.0819,-120.0808 180.5092,-121.5127 191.4252,-122.5578 191.4252,-122.5578"/>
</g>
<!-- Product&#45;&gt;InvoiceLine -->
<g id="edge15" class="edge">
<title>Product&#45;&gt;InvoiceLine</title>
<path fill="none" stroke="#608f57" d="M286.8855,-150.6239C286.8855,-121.749 286.8855,-75.6357 286.8855,-46.0968"/>
<ellipse fill="none" stroke="#608f57" cx="286.8855" cy="-154.7607" rx="4" ry="4"/>
<polygon fill="#608f57" stroke="#608f57" points="286.8856,-46.0266 291.3855,-36.0266 286.8855,-41.0266 286.8855,-36.0266 286.8855,-36.0266 286.8855,-36.0266 286.8855,-41.0266 282.3855,-36.0267 286.8856,-46.0266 286.8856,-46.0266"/>
</g>
<!-- UserRole -->
<g id="node15" class="node">
<title>UserRole</title>
<ellipse fill="none" stroke="#000000" cx="583.8855" cy="-104" rx="43.5146" ry="18"/>
<text text-anchor="middle" x="583.8855" y="-99.8" font-family="Times,serif" font-size="14.00" fill="#000000">UserRole</text>
</g>
<!-- Role&#45;&gt;UserRole -->
<g id="edge16" class="edge">
<title>Role&#45;&gt;UserRole</title>
<path fill="none" stroke="#effab8" d="M555.0597,-152.9369C559.2959,-145.7452 563.963,-137.8219 568.2854,-130.484"/>
<ellipse fill="none" stroke="#effab8" cx="552.8888" cy="-156.6223" rx="4" ry="4"/>
<polygon fill="#effab8" stroke="#effab8" points="568.4421,-130.2178 577.3949,-123.8854 570.9798,-125.9096 573.5175,-121.6015 573.5175,-121.6015 573.5175,-121.6015 570.9798,-125.9096 569.6402,-119.3175 568.4421,-130.2178 568.4421,-130.2178"/>
</g>
<!-- AccessKey -->
<g id="node10" class="node">
<title>AccessKey</title>
<ellipse fill="none" stroke="#000000" cx="694.8855" cy="-104" rx="49.7706" ry="18"/>
<text text-anchor="middle" x="694.8855" y="-99.8" font-family="Times,serif" font-size="14.00" fill="#000000">AccessKey</text>
</g>
<!-- ApplicationRecord -->
<g id="node12" class="node">
<title>ApplicationRecord</title>
<ellipse fill="none" stroke="#000000" cx="620.8855" cy="-268.5" rx="77.2916" ry="18"/>
<text text-anchor="middle" x="620.8855" y="-264.3" font-family="Times,serif" font-size="14.00" fill="#000000">ApplicationRecord</text>
</g>
<!-- User&#45;&gt;Invoice -->
<g id="edge18" class="edge">
<title>User&#45;&gt;Invoice</title>
<path fill="none" stroke="#1cae97" d="M585.2487,-161.1143C565.7018,-149.8787 539.4093,-134.7657 518.7805,-122.9082"/>
<ellipse fill="none" stroke="#1cae97" cx="588.7302" cy="-163.1154" rx="4" ry="4"/>
<polygon fill="#1cae97" stroke="#1cae97" points="518.7045,-122.8645 512.2773,-113.9796 514.3696,-120.3728 510.0347,-117.8811 510.0347,-117.8811 510.0347,-117.8811 514.3696,-120.3728 507.7922,-121.7825 518.7045,-122.8645 518.7045,-122.8645"/>
</g>
<!-- User&#45;&gt;AccessKey -->
<g id="edge19" class="edge">
<title>User&#45;&gt;AccessKey</title>
<path fill="none" stroke="#f85086" d="M635.1088,-157.2158C645.4436,-148.0153 657.8086,-137.0075 668.6039,-127.397"/>
<ellipse fill="none" stroke="#f85086" cx="632.0737" cy="-159.9178" rx="4" ry="4"/>
<polygon fill="#f85086" stroke="#f85086" points="668.6666,-127.3412 679.1279,-124.053 672.4011,-124.0166 676.1357,-120.6919 676.1357,-120.6919 676.1357,-120.6919 672.4011,-124.0166 673.1435,-117.3308 668.6666,-127.3412 668.6666,-127.3412"/>
</g>
<!-- User&#45;&gt;UserRole -->
<g id="edge17" class="edge">
<title>User&#45;&gt;UserRole</title>
<path fill="none" stroke="#6c7432" d="M602.8709,-151.7909C600.2558,-145.2081 597.4248,-138.0817 594.767,-131.3915"/>
<ellipse fill="none" stroke="#6c7432" cx="604.3886" cy="-155.6113" rx="4" ry="4"/>
<polygon fill="#6c7432" stroke="#6c7432" points="594.7344,-131.3092 595.2245,-120.3543 592.8884,-126.6624 591.0424,-122.0157 591.0424,-122.0157 591.0424,-122.0157 592.8884,-126.6624 586.8603,-123.6771 594.7344,-131.3092 594.7344,-131.3092"/>
</g>
</g>
</svg>
