<?xml version="1.0" encoding="UTF-8" standalone="no"?>
<!DOCTYPE svg PUBLIC "-//W3C//DTD SVG 1.1//EN"
 "http://www.w3.org/Graphics/SVG/1.1/DTD/svg11.dtd">
<!-- Generated by graphviz version 2.40.1 (20161225.0304)
 -->
<!-- Title: models_diagram Pages: 1 -->
<svg width="657pt" height="297pt"
 viewBox="0.00 0.00 657.08 297.00" xmlns="http://www.w3.org/2000/svg" xmlns:xlink="http://www.w3.org/1999/xlink">
<g id="graph0" class="graph" transform="scale(1 1) rotate(0) translate(4 293)">
<title>models_diagram</title>
<polygon fill="transparent" stroke="transparent" points="-4,4 -4,-293 653.0835,-293 653.0835,4 -4,4"/>
<!-- _diagram_info -->
<g id="node1" class="node">
<title>_diagram_info</title>
<text text-anchor="start" x="8" y="-274.6" font-family="Times,serif" font-size="13.00" fill="#000000">Models diagram</text>
<text text-anchor="start" x="8" y="-261.6" font-family="Times,serif" font-size="13.00" fill="#000000">Date: Apr 23 2018 &#45; 12:51</text>
<text text-anchor="start" x="8" y="-248.6" font-family="Times,serif" font-size="13.00" fill="#000000">Migration version: 20180417043130</text>
<text text-anchor="start" x="8" y="-235.6" font-family="Times,serif" font-size="13.00" fill="#000000">Generated by RailRoady 1.5.3</text>
<text text-anchor="start" x="8" y="-222.6" font-family="Times,serif" font-size="13.00" fill="#000000">http://railroady.prestonlee.com</text>
</g>
<!-- Variant -->
<g id="node2" class="node">
<title>Variant</title>
<ellipse fill="none" stroke="#000000" cx="146.6877" cy="-90" rx="35.7887" ry="18"/>
<text text-anchor="middle" x="146.6877" y="-85.8" font-family="Times,serif" font-size="14.00" fill="#000000">Variant</text>
</g>
<!-- Account -->
<g id="node3" class="node">
<title>Account</title>
<ellipse fill="none" stroke="#000000" cx="265.6877" cy="-252.5" rx="40.1317" ry="18"/>
<text text-anchor="middle" x="265.6877" y="-248.3" font-family="Times,serif" font-size="14.00" fill="#000000">Account</text>
</g>
<!-- Account&#45;&gt;Variant -->
<g id="edge4" class="edge">
<title>Account&#45;&gt;Variant</title>
<path fill="none" stroke="#ae0846" d="M238.156,-230.233C231.3485,-225.2274 223.9265,-220.1693 216.6877,-216 181.4909,-195.7278 155.0473,-213.9091 132.6877,-180 120.3826,-161.3388 125.9356,-135.8447 133.3767,-116.7537"/>
<polygon fill="#ae0846" stroke="#ae0846" points="238.4209,-230.4337 243.6719,-240.0607 242.4055,-233.4541 246.3902,-236.4745 246.3902,-236.4745 246.3902,-236.4745 242.4055,-233.4541 249.1085,-232.8882 238.4209,-230.4337 238.4209,-230.4337"/>
<polygon fill="#ae0846" stroke="#ae0846" points="133.4326,-116.6226 141.4947,-109.1894 135.394,-112.0234 137.3554,-107.4241 137.3554,-107.4241 137.3554,-107.4241 135.394,-112.0234 133.2161,-105.6589 133.4326,-116.6226 133.4326,-116.6226"/>
</g>
<!-- Product -->
<g id="node5" class="node">
<title>Product</title>
<ellipse fill="none" stroke="#000000" cx="179.6877" cy="-162" rx="37.7352" ry="18"/>
<text text-anchor="middle" x="179.6877" y="-157.8" font-family="Times,serif" font-size="14.00" fill="#000000">Product</text>
</g>
<!-- Account&#45;&gt;Product -->
<g id="edge2" class="edge">
<title>Account&#45;&gt;Product</title>
<path fill="none" stroke="#bde80a" d="M244.1536,-229.8391C231.4757,-216.4978 215.4493,-199.6328 202.5477,-186.0561"/>
<ellipse fill="none" stroke="#bde80a" cx="247.1586" cy="-233.0013" rx="4" ry="4"/>
<polygon fill="#bde80a" stroke="#bde80a" points="202.25,-185.7429 198.6235,-175.394 198.8058,-182.1184 195.3615,-178.4939 195.3615,-178.4939 195.3615,-178.4939 198.8058,-182.1184 192.0994,-181.5937 202.25,-185.7429 202.25,-185.7429"/>
</g>
<!-- Order -->
<g id="node8" class="node">
<title>Order</title>
<ellipse fill="none" stroke="#000000" cx="355.6877" cy="-90" rx="30.9619" ry="18"/>
<text text-anchor="middle" x="355.6877" y="-85.8" font-family="Times,serif" font-size="14.00" fill="#000000">Order</text>
</g>
<!-- Account&#45;&gt;Order -->
<g id="edge3" class="edge">
<title>Account&#45;&gt;Order</title>
<path fill="none" stroke="#c68c1e" d="M290.8316,-231.1697C305.0637,-217.8215 322.0843,-199.4977 332.6877,-180 343.1217,-160.814 348.9529,-136.7415 352.1311,-118.3213"/>
<ellipse fill="none" stroke="#c68c1e" cx="287.8796" cy="-233.8731" rx="4" ry="4"/>
<polygon fill="#c68c1e" stroke="#c68c1e" points="352.1674,-118.0888 358.1567,-108.903 352.939,-113.1487 353.7106,-108.2086 353.7106,-108.2086 353.7106,-108.2086 352.939,-113.1487 349.2646,-107.5141 352.1674,-118.0888 352.1674,-118.0888"/>
</g>
<!-- User -->
<g id="node11" class="node">
<title>User</title>
<ellipse fill="none" stroke="#000000" cx="406.6877" cy="-162" rx="27" ry="18"/>
<text text-anchor="middle" x="406.6877" y="-157.8" font-family="Times,serif" font-size="14.00" fill="#000000">User</text>
</g>
<!-- Account&#45;&gt;User -->
<g id="edge1" class="edge">
<title>Account&#45;&gt;User</title>
<path fill="none" stroke="#990f47" d="M296.0428,-233.0168C320.4727,-217.3366 354.549,-195.4649 378.4096,-180.1502"/>
<ellipse fill="none" stroke="#990f47" cx="292.3373" cy="-235.3951" rx="4" ry="4"/>
<polygon fill="#990f47" stroke="#990f47" points="378.5971,-180.0299 389.4435,-178.4153 382.8049,-177.3291 387.0128,-174.6283 387.0128,-174.6283 387.0128,-174.6283 382.8049,-177.3291 384.582,-170.8412 378.5971,-180.0299 378.5971,-180.0299"/>
</g>
<!-- Customer -->
<g id="node4" class="node">
<title>Customer</title>
<ellipse fill="none" stroke="#000000" cx="279.6877" cy="-162" rx="44.4923" ry="18"/>
<text text-anchor="middle" x="279.6877" y="-157.8" font-family="Times,serif" font-size="14.00" fill="#000000">Customer</text>
</g>
<!-- Customer&#45;&gt;Order -->
<g id="edge6" class="edge">
<title>Customer&#45;&gt;Order</title>
<path fill="none" stroke="#2ff135" d="M303.2338,-139.6932C312.4159,-130.9944 322.921,-121.0422 332.1064,-112.3402"/>
<ellipse fill="none" stroke="#2ff135" cx="300.2185" cy="-142.5498" rx="4" ry="4"/>
<polygon fill="#2ff135" stroke="#2ff135" points="332.1942,-112.257 342.5486,-108.6464 335.824,-108.8183 339.4538,-105.3796 339.4538,-105.3796 339.4538,-105.3796 335.824,-108.8183 336.3589,-102.1128 332.1942,-112.257 332.1942,-112.257"/>
</g>
<!-- Address -->
<g id="node10" class="node">
<title>Address</title>
<ellipse fill="none" stroke="#000000" cx="267.6877" cy="-90" rx="39.18" ry="18"/>
<text text-anchor="middle" x="267.6877" y="-85.8" font-family="Times,serif" font-size="14.00" fill="#000000">Address</text>
</g>
<!-- Customer&#45;&gt;Address -->
<g id="edge5" class="edge">
<title>Customer&#45;&gt;Address</title>
<path fill="none" stroke="#21031c" d="M275.3235,-135.8144C274.377,-130.1355 273.3717,-124.1039 272.4121,-118.3461"/>
<ellipse fill="none" stroke="#21031c" cx="276.002" cy="-139.8858" rx="4" ry="4"/>
<polygon fill="#21031c" stroke="#21031c" points="272.4007,-118.2772 275.1954,-107.6734 271.5787,-113.3452 270.7566,-108.4133 270.7566,-108.4133 270.7566,-108.4133 271.5787,-113.3452 266.3178,-109.1531 272.4007,-118.2772 272.4007,-118.2772"/>
</g>
<!-- Product&#45;&gt;Variant -->
<g id="edge7" class="edge">
<title>Product&#45;&gt;Variant</title>
<path fill="none" stroke="#acf5fc" d="M168.1271,-136.7769C165.1596,-130.3022 161.9572,-123.3152 158.9553,-116.7655"/>
<ellipse fill="none" stroke="#acf5fc" cx="169.8638" cy="-140.566" rx="4" ry="4"/>
<polygon fill="#acf5fc" stroke="#acf5fc" points="158.9178,-116.6837 158.842,-105.7181 156.8345,-112.1384 154.7512,-107.593 154.7512,-107.593 154.7512,-107.593 156.8345,-112.1384 150.6604,-109.468 158.9178,-116.6837 158.9178,-116.6837"/>
</g>
<!-- OrderLine -->
<g id="node6" class="node">
<title>OrderLine</title>
<ellipse fill="none" stroke="#000000" cx="355.6877" cy="-18" rx="46.8719" ry="18"/>
<text text-anchor="middle" x="355.6877" y="-13.8" font-family="Times,serif" font-size="14.00" fill="#000000">OrderLine</text>
</g>
<!-- Role -->
<g id="node7" class="node">
<title>Role</title>
<ellipse fill="none" stroke="#000000" cx="449.6877" cy="-252.5" rx="27" ry="18"/>
<text text-anchor="middle" x="449.6877" y="-248.3" font-family="Times,serif" font-size="14.00" fill="#000000">Role</text>
</g>
<!-- Role&#45;&gt;User -->
<g id="edge9" class="edge">
<title>Role&#45;&gt;User</title>
<path fill="none" stroke="#955c36" d="M436.9847,-225.7645C431.4232,-214.0596 424.9129,-200.3575 419.3555,-188.6611"/>
<polygon fill="#955c36" stroke="#955c36" points="437.1053,-226.0184 437.3324,-236.9819 439.2511,-230.5345 441.3969,-235.0507 441.3969,-235.0507 441.3969,-235.0507 439.2511,-230.5345 445.4614,-233.1195 437.1053,-226.0184 437.1053,-226.0184"/>
<polygon fill="#955c36" stroke="#955c36" points="419.2448,-188.428 419.0177,-177.4645 417.0989,-183.9119 414.9531,-179.3957 414.9531,-179.3957 414.9531,-179.3957 417.0989,-183.9119 410.8886,-181.327 419.2448,-188.428 419.2448,-188.428"/>
</g>
<!-- UserRole -->
<g id="node12" class="node">
<title>UserRole</title>
<ellipse fill="none" stroke="#000000" cx="456.6877" cy="-90" rx="43.5146" ry="18"/>
<text text-anchor="middle" x="456.6877" y="-85.8" font-family="Times,serif" font-size="14.00" fill="#000000">UserRole</text>
</g>
<!-- Role&#45;&gt;UserRole -->
<g id="edge8" class="edge">
<title>Role&#45;&gt;UserRole</title>
<path fill="none" stroke="#2bf3e6" d="M450.8216,-226.179C452.0947,-196.6233 454.1535,-148.8305 455.4628,-118.4365"/>
<ellipse fill="none" stroke="#2bf3e6" cx="450.6358" cy="-230.4925" rx="4" ry="4"/>
<polygon fill="#2bf3e6" stroke="#2bf3e6" points="455.4779,-118.0826 460.4042,-108.2856 455.6932,-113.0873 455.9084,-108.0919 455.9084,-108.0919 455.9084,-108.0919 455.6932,-113.0873 451.4126,-107.8982 455.4779,-118.0826 455.4779,-118.0826"/>
</g>
<!-- Order&#45;&gt;OrderLine -->
<g id="edge10" class="edge">
<title>Order&#45;&gt;OrderLine</title>
<path fill="none" stroke="#67ad05" d="M355.6877,-63.8144C355.6877,-58.2775 355.6877,-52.4053 355.6877,-46.7785"/>
<ellipse fill="none" stroke="#67ad05" cx="355.6878" cy="-67.8314" rx="4" ry="4"/>
<polygon fill="#67ad05" stroke="#67ad05" points="355.6878,-46.4133 360.1877,-36.4132 355.6878,-41.4133 355.6877,-36.4133 355.6877,-36.4133 355.6877,-36.4133 355.6878,-41.4133 351.1877,-36.4133 355.6878,-46.4133 355.6878,-46.4133"/>
</g>
<!-- ApplicationRecord -->
<g id="node9" class="node">
<title>ApplicationRecord</title>
<ellipse fill="none" stroke="#000000" cx="571.6877" cy="-252.5" rx="77.2916" ry="18"/>
<text text-anchor="middle" x="571.6877" y="-248.3" font-family="Times,serif" font-size="14.00" fill="#000000">ApplicationRecord</text>
</g>
<!-- User&#45;&gt;Order -->
<g id="edge12" class="edge">
<title>User&#45;&gt;Order</title>
<path fill="none" stroke="#b39c17" d="M390.4408,-139.0631C385.0445,-131.4449 379.0087,-122.9237 373.5007,-115.1478"/>
<ellipse fill="none" stroke="#b39c17" cx="392.803" cy="-142.398" rx="4" ry="4"/>
<polygon fill="#b39c17" stroke="#b39c17" points="373.3488,-114.9332 371.2407,-104.1718 370.4587,-110.853 367.5686,-106.7729 367.5686,-106.7729 367.5686,-106.7729 370.4587,-110.853 363.8964,-109.374 373.3488,-114.9332 373.3488,-114.9332"/>
</g>
<!-- User&#45;&gt;UserRole -->
<g id="edge11" class="edge">
<title>User&#45;&gt;UserRole</title>
<path fill="none" stroke="#9a7acd" d="M422.7173,-138.9175C427.7975,-131.602 433.4475,-123.4659 438.6584,-115.9623"/>
<ellipse fill="none" stroke="#9a7acd" cx="420.3151" cy="-142.3766" rx="4" ry="4"/>
<polygon fill="#9a7acd" stroke="#9a7acd" points="438.8093,-115.7449 448.2095,-110.098 441.6613,-111.638 444.5133,-107.5312 444.5133,-107.5312 444.5133,-107.5312 441.6613,-111.638 440.8171,-104.9644 438.8093,-115.7449 438.8093,-115.7449"/>
</g>
</g>
</svg>
