<?xml version="1.0" encoding="UTF-8" standalone="no"?>
<!DOCTYPE svg PUBLIC "-//W3C//DTD SVG 1.1//EN"
 "http://www.w3.org/Graphics/SVG/1.1/DTD/svg11.dtd">
<!-- Generated by graphviz version 2.40.1 (20161225.0304)
 -->
<!-- Title: models_diagram Pages: 1 -->
<svg width="1501pt" height="1124pt"
 viewBox="0.00 0.00 1501.26 1124.00" xmlns="http://www.w3.org/2000/svg" xmlns:xlink="http://www.w3.org/1999/xlink">
<g id="graph0" class="graph" transform="scale(1 1) rotate(0) translate(4 1120)">
<title>models_diagram</title>
<polygon fill="transparent" stroke="transparent" points="-4,4 -4,-1120 1497.2581,-1120 1497.2581,4 -4,4"/>
<!-- _diagram_info -->
<g id="node1" class="node">
<title>_diagram_info</title>
<text text-anchor="start" x="180.1746" y="-1052.6" font-family="Times,serif" font-size="13.00" fill="#000000">Models diagram</text>
<text text-anchor="start" x="180.1746" y="-1039.6" font-family="Times,serif" font-size="13.00" fill="#000000">Date: May 09 2018 &#45; 22:52</text>
<text text-anchor="start" x="180.1746" y="-1026.6" font-family="Times,serif" font-size="13.00" fill="#000000">Migration version: 20180509142140</text>
<text text-anchor="start" x="180.1746" y="-1013.6" font-family="Times,serif" font-size="13.00" fill="#000000">Generated by RailRoady 1.5.3</text>
<text text-anchor="start" x="180.1746" y="-1000.6" font-family="Times,serif" font-size="13.00" fill="#000000">http://railroady.prestonlee.com</text>
</g>
<!-- Variant -->
<g id="node2" class="node">
<title>Variant</title>
<path fill="none" stroke="#000000" d="M68,-340.5C68,-340.5 291.7246,-340.5 291.7246,-340.5 297.7246,-340.5 303.7246,-346.5 303.7246,-352.5 303.7246,-352.5 303.7246,-554.5 303.7246,-554.5 303.7246,-560.5 297.7246,-566.5 291.7246,-566.5 291.7246,-566.5 68,-566.5 68,-566.5 62,-566.5 56,-560.5 56,-554.5 56,-554.5 56,-352.5 56,-352.5 56,-346.5 62,-340.5 68,-340.5"/>
<text text-anchor="middle" x="179.8623" y="-551.3" font-family="Times,serif" font-size="14.00" fill="#000000">Variant</text>
<polyline fill="none" stroke="#000000" points="56,-544.5 303.7246,-544.5 "/>
<text text-anchor="start" x="64" y="-529.3" font-family="Times,serif" font-size="14.00" fill="#000000">updated_at :timestamp without time zone</text>
<text text-anchor="start" x="64" y="-515.3" font-family="Times,serif" font-size="14.00" fill="#000000">product_id :integer</text>
<text text-anchor="start" x="64" y="-501.3" font-family="Times,serif" font-size="14.00" fill="#000000">parent_product_id :integer</text>
<text text-anchor="start" x="64" y="-487.3" font-family="Times,serif" font-size="14.00" fill="#000000">parent_variant_id :integer</text>
<text text-anchor="start" x="64" y="-473.3" font-family="Times,serif" font-size="14.00" fill="#000000">title :character varying</text>
<text text-anchor="start" x="64" y="-459.3" font-family="Times,serif" font-size="14.00" fill="#000000">sku :character varying</text>
<text text-anchor="start" x="64" y="-445.3" font-family="Times,serif" font-size="14.00" fill="#000000">price :numeric</text>
<text text-anchor="start" x="64" y="-431.3" font-family="Times,serif" font-size="14.00" fill="#000000">compare_at_price :numeric</text>
<text text-anchor="start" x="64" y="-417.3" font-family="Times,serif" font-size="14.00" fill="#000000">barcode :character varying</text>
<text text-anchor="start" x="64" y="-403.3" font-family="Times,serif" font-size="14.00" fill="#000000">variant_type :integer</text>
<text text-anchor="start" x="64" y="-389.3" font-family="Times,serif" font-size="14.00" fill="#000000">variant_status :integer</text>
<text text-anchor="start" x="64" y="-375.3" font-family="Times,serif" font-size="14.00" fill="#000000">status :integer</text>
<text text-anchor="start" x="64" y="-361.3" font-family="Times,serif" font-size="14.00" fill="#000000">created_at :timestamp without time zone</text>
<text text-anchor="start" x="64" y="-347.3" font-family="Times,serif" font-size="14.00" fill="#000000">id :bigint</text>
</g>
<!-- InvoiceLine -->
<g id="node6" class="node">
<title>InvoiceLine</title>
<path fill="none" stroke="#000000" d="M278,-7.5C278,-7.5 501.7246,-7.5 501.7246,-7.5 507.7246,-7.5 513.7246,-13.5 513.7246,-19.5 513.7246,-19.5 513.7246,-207.5 513.7246,-207.5 513.7246,-213.5 507.7246,-219.5 501.7246,-219.5 501.7246,-219.5 278,-219.5 278,-219.5 272,-219.5 266,-213.5 266,-207.5 266,-207.5 266,-19.5 266,-19.5 266,-13.5 272,-7.5 278,-7.5"/>
<text text-anchor="middle" x="389.8623" y="-204.3" font-family="Times,serif" font-size="14.00" fill="#000000">InvoiceLine</text>
<polyline fill="none" stroke="#000000" points="266,-197.5 513.7246,-197.5 "/>
<text text-anchor="start" x="274" y="-182.3" font-family="Times,serif" font-size="14.00" fill="#000000">updated_at :timestamp without time zone</text>
<text text-anchor="start" x="274" y="-168.3" font-family="Times,serif" font-size="14.00" fill="#000000">invoice_id :integer</text>
<text text-anchor="start" x="274" y="-154.3" font-family="Times,serif" font-size="14.00" fill="#000000">variant_id :integer</text>
<text text-anchor="start" x="274" y="-140.3" font-family="Times,serif" font-size="14.00" fill="#000000">product_id :integer</text>
<text text-anchor="start" x="274" y="-126.3" font-family="Times,serif" font-size="14.00" fill="#000000">title :character varying</text>
<text text-anchor="start" x="274" y="-112.3" font-family="Times,serif" font-size="14.00" fill="#000000">sku :character varying</text>
<text text-anchor="start" x="274" y="-98.3" font-family="Times,serif" font-size="14.00" fill="#000000">price :numeric</text>
<text text-anchor="start" x="274" y="-84.3" font-family="Times,serif" font-size="14.00" fill="#000000">compare_at_price :numeric</text>
<text text-anchor="start" x="274" y="-70.3" font-family="Times,serif" font-size="14.00" fill="#000000">barcode :character varying</text>
<text text-anchor="start" x="274" y="-56.3" font-family="Times,serif" font-size="14.00" fill="#000000">invoice_line_status :integer</text>
<text text-anchor="start" x="274" y="-42.3" font-family="Times,serif" font-size="14.00" fill="#000000">status :integer</text>
<text text-anchor="start" x="274" y="-28.3" font-family="Times,serif" font-size="14.00" fill="#000000">created_at :timestamp without time zone</text>
<text text-anchor="start" x="274" y="-14.3" font-family="Times,serif" font-size="14.00" fill="#000000">id :bigint</text>
</g>
<!-- Variant&#45;&gt;InvoiceLine -->
<g id="edge1" class="edge">
<title>Variant&#45;&gt;InvoiceLine</title>
<path fill="none" stroke="#dc72f4" d="M254.0427,-333.3983C275.172,-299.189 298.1282,-262.0219 319.0513,-228.1464"/>
<ellipse fill="none" stroke="#dc72f4" cx="251.8913" cy="-336.8817" rx="4" ry="4"/>
<polygon fill="#dc72f4" stroke="#dc72f4" points="319.0696,-228.1167 328.1532,-221.9734 321.6971,-223.8627 324.3246,-219.6087 324.3246,-219.6087 324.3246,-219.6087 321.6971,-223.8627 320.496,-217.2439 319.0696,-228.1167 319.0696,-228.1167"/>
</g>
<!-- ProductComponent -->
<g id="node11" class="node">
<title>ProductComponent</title>
<path fill="none" stroke="#000000" d="M12,-.5C12,-.5 235.7246,-.5 235.7246,-.5 241.7246,-.5 247.7246,-6.5 247.7246,-12.5 247.7246,-12.5 247.7246,-214.5 247.7246,-214.5 247.7246,-220.5 241.7246,-226.5 235.7246,-226.5 235.7246,-226.5 12,-226.5 12,-226.5 6,-226.5 0,-220.5 0,-214.5 0,-214.5 0,-12.5 0,-12.5 0,-6.5 6,-.5 12,-.5"/>
<text text-anchor="middle" x="123.8623" y="-211.3" font-family="Times,serif" font-size="14.00" fill="#000000">ProductComponent</text>
<polyline fill="none" stroke="#000000" points="0,-204.5 247.7246,-204.5 "/>
<text text-anchor="start" x="8" y="-189.3" font-family="Times,serif" font-size="14.00" fill="#000000">updated_at :timestamp without time zone</text>
<text text-anchor="start" x="8" y="-175.3" font-family="Times,serif" font-size="14.00" fill="#000000">variant_id :bigint</text>
<text text-anchor="start" x="8" y="-161.3" font-family="Times,serif" font-size="14.00" fill="#000000">parent_variant_id :bigint</text>
<text text-anchor="start" x="8" y="-147.3" font-family="Times,serif" font-size="14.00" fill="#000000">parent_product_id :bigint</text>
<text text-anchor="start" x="8" y="-133.3" font-family="Times,serif" font-size="14.00" fill="#000000">title :character varying</text>
<text text-anchor="start" x="8" y="-119.3" font-family="Times,serif" font-size="14.00" fill="#000000">sku :character varying</text>
<text text-anchor="start" x="8" y="-105.3" font-family="Times,serif" font-size="14.00" fill="#000000">price :numeric</text>
<text text-anchor="start" x="8" y="-91.3" font-family="Times,serif" font-size="14.00" fill="#000000">compare_at_price :numeric</text>
<text text-anchor="start" x="8" y="-77.3" font-family="Times,serif" font-size="14.00" fill="#000000">barcode :character varying</text>
<text text-anchor="start" x="8" y="-63.3" font-family="Times,serif" font-size="14.00" fill="#000000">product_component_type :integer</text>
<text text-anchor="start" x="8" y="-49.3" font-family="Times,serif" font-size="14.00" fill="#000000">status :integer</text>
<text text-anchor="start" x="8" y="-35.3" font-family="Times,serif" font-size="14.00" fill="#000000">product_component_status :integer</text>
<text text-anchor="start" x="8" y="-21.3" font-family="Times,serif" font-size="14.00" fill="#000000">created_at :timestamp without time zone</text>
<text text-anchor="start" x="8" y="-7.3" font-family="Times,serif" font-size="14.00" fill="#000000">id :bigint</text>
</g>
<!-- Variant&#45;&gt;ProductComponent -->
<g id="edge2" class="edge">
<title>Variant&#45;&gt;ProductComponent</title>
<path fill="none" stroke="#205355" d="M137.204,-332.5918C130.4116,-308.502 124.448,-283.1733 120.8623,-259 119.9493,-252.8451 120.7913,-251.2218 120.8623,-245 120.893,-242.3098 120.9272,-239.5888 120.9646,-236.8453"/>
<ellipse fill="none" stroke="#205355" cx="138.3325" cy="-336.522" rx="4" ry="4"/>
<polygon fill="#205355" stroke="#205355" points="120.9647,-236.8285 125.6123,-226.8963 121.0388,-231.8291 121.1128,-226.8296 121.1128,-226.8296 121.1128,-226.8296 121.0388,-231.8291 116.6133,-226.763 120.9647,-236.8285 120.9647,-236.8285"/>
</g>
<!-- Variant&#45;&gt;ProductComponent -->
<g id="edge3" class="edge">
<title>Variant&#45;&gt;ProductComponent</title>
<path fill="none" stroke="#bf082c" d="M153.6088,-332.2485C148.8456,-308.0527 144.2046,-282.7722 140.4482,-259 139.3032,-251.7537 138.2056,-244.2924 137.1592,-236.7565"/>
<ellipse fill="none" stroke="#bf082c" cx="154.4492" cy="-336.4852" rx="4" ry="4"/>
<polygon fill="#bf082c" stroke="#bf082c" points="137.1555,-236.7284 140.2728,-226.2149 136.4845,-231.7736 135.8135,-226.8188 135.8135,-226.8188 135.8135,-226.8188 136.4845,-231.7736 131.3542,-227.4227 137.1555,-236.7284 137.1555,-236.7284"/>
<text text-anchor="middle" x="217.0693" y="-247.8" font-family="Times,serif" font-size="14.00" fill="#000000">child_product_components</text>
</g>
<!-- Account -->
<g id="node3" class="node">
<title>Account</title>
<path fill="none" stroke="#000000" d="M410,-959.5C410,-959.5 633.7246,-959.5 633.7246,-959.5 639.7246,-959.5 645.7246,-965.5 645.7246,-971.5 645.7246,-971.5 645.7246,-1089.5 645.7246,-1089.5 645.7246,-1095.5 639.7246,-1101.5 633.7246,-1101.5 633.7246,-1101.5 410,-1101.5 410,-1101.5 404,-1101.5 398,-1095.5 398,-1089.5 398,-1089.5 398,-971.5 398,-971.5 398,-965.5 404,-959.5 410,-959.5"/>
<text text-anchor="middle" x="521.8623" y="-1086.3" font-family="Times,serif" font-size="14.00" fill="#000000">Account</text>
<polyline fill="none" stroke="#000000" points="398,-1079.5 645.7246,-1079.5 "/>
<text text-anchor="start" x="406" y="-1064.3" font-family="Times,serif" font-size="14.00" fill="#000000">updated_at :timestamp without time zone</text>
<text text-anchor="start" x="406" y="-1050.3" font-family="Times,serif" font-size="14.00" fill="#000000">name :character varying</text>
<text text-anchor="start" x="406" y="-1036.3" font-family="Times,serif" font-size="14.00" fill="#000000">company :character varying</text>
<text text-anchor="start" x="406" y="-1022.3" font-family="Times,serif" font-size="14.00" fill="#000000">account_status :integer</text>
<text text-anchor="start" x="406" y="-1008.3" font-family="Times,serif" font-size="14.00" fill="#000000">account_type :integer</text>
<text text-anchor="start" x="406" y="-994.3" font-family="Times,serif" font-size="14.00" fill="#000000">status :integer</text>
<text text-anchor="start" x="406" y="-980.3" font-family="Times,serif" font-size="14.00" fill="#000000">created_at :timestamp without time zone</text>
<text text-anchor="start" x="406" y="-966.3" font-family="Times,serif" font-size="14.00" fill="#000000">id :bigint</text>
</g>
<!-- Account&#45;&gt;Variant -->
<g id="edge8" class="edge">
<title>Account&#45;&gt;Variant</title>
<path fill="none" stroke="#61af94" d="M409.2432,-954.4862C402.4664,-951.053 395.6453,-947.8567 388.8623,-945 321.1977,-916.5023 276.5537,-962.9524 227.8623,-908 148.9294,-818.9174 146.0184,-678.1816 157.1395,-576.9116"/>
<polygon fill="#61af94" stroke="#61af94" points="409.5896,-954.6675 416.3622,-963.2921 414.0194,-956.9864 418.4492,-959.3053 418.4492,-959.3053 418.4492,-959.3053 414.0194,-956.9864 420.5362,-955.3185 409.5896,-954.6675 409.5896,-954.6675"/>
<polygon fill="#61af94" stroke="#61af94" points="157.145,-576.8632 162.765,-567.4469 157.72,-571.8963 158.2949,-566.9295 158.2949,-566.9295 158.2949,-566.9295 157.72,-571.8963 153.8247,-566.4121 157.145,-576.8632 157.145,-576.8632"/>
</g>
<!-- Customer -->
<g id="node4" class="node">
<title>Customer</title>
<path fill="none" stroke="#000000" d="M619,-674.5C619,-674.5 842.7246,-674.5 842.7246,-674.5 848.7246,-674.5 854.7246,-680.5 854.7246,-686.5 854.7246,-686.5 854.7246,-888.5 854.7246,-888.5 854.7246,-894.5 848.7246,-900.5 842.7246,-900.5 842.7246,-900.5 619,-900.5 619,-900.5 613,-900.5 607,-894.5 607,-888.5 607,-888.5 607,-686.5 607,-686.5 607,-680.5 613,-674.5 619,-674.5"/>
<text text-anchor="middle" x="730.8623" y="-885.3" font-family="Times,serif" font-size="14.00" fill="#000000">Customer</text>
<polyline fill="none" stroke="#000000" points="607,-878.5 854.7246,-878.5 "/>
<text text-anchor="start" x="615" y="-863.3" font-family="Times,serif" font-size="14.00" fill="#000000">updated_at :timestamp without time zone</text>
<text text-anchor="start" x="615" y="-849.3" font-family="Times,serif" font-size="14.00" fill="#000000">account_id :integer</text>
<text text-anchor="start" x="615" y="-835.3" font-family="Times,serif" font-size="14.00" fill="#000000">default_address_id :integer</text>
<text text-anchor="start" x="615" y="-821.3" font-family="Times,serif" font-size="14.00" fill="#000000">first_name :character varying</text>
<text text-anchor="start" x="615" y="-807.3" font-family="Times,serif" font-size="14.00" fill="#000000">middle_name :character varying</text>
<text text-anchor="start" x="615" y="-793.3" font-family="Times,serif" font-size="14.00" fill="#000000">last_name :character varying</text>
<text text-anchor="start" x="615" y="-779.3" font-family="Times,serif" font-size="14.00" fill="#000000">email :character varying</text>
<text text-anchor="start" x="615" y="-765.3" font-family="Times,serif" font-size="14.00" fill="#000000">suffix :character varying</text>
<text text-anchor="start" x="615" y="-751.3" font-family="Times,serif" font-size="14.00" fill="#000000">note :text</text>
<text text-anchor="start" x="615" y="-737.3" font-family="Times,serif" font-size="14.00" fill="#000000">customer_type :integer</text>
<text text-anchor="start" x="615" y="-723.3" font-family="Times,serif" font-size="14.00" fill="#000000">customer_status :integer</text>
<text text-anchor="start" x="615" y="-709.3" font-family="Times,serif" font-size="14.00" fill="#000000">status :integer</text>
<text text-anchor="start" x="615" y="-695.3" font-family="Times,serif" font-size="14.00" fill="#000000">created_at :timestamp without time zone</text>
<text text-anchor="start" x="615" y="-681.3" font-family="Times,serif" font-size="14.00" fill="#000000">id :bigint</text>
</g>
<!-- Account&#45;&gt;Customer -->
<g id="edge7" class="edge">
<title>Account&#45;&gt;Customer</title>
<path fill="none" stroke="#1cfdf1" d="M588.3893,-953.1505C600.6041,-938.9485 613.6202,-923.815 626.6306,-908.688"/>
<ellipse fill="none" stroke="#1cfdf1" cx="585.7653" cy="-956.2013" rx="4" ry="4"/>
<polygon fill="#1cfdf1" stroke="#1cfdf1" points="626.9087,-908.3647 636.8412,-903.7175 630.1691,-904.5739 633.4295,-900.7831 633.4295,-900.7831 633.4295,-900.7831 630.1691,-904.5739 630.0178,-897.8488 626.9087,-908.3647 626.9087,-908.3647"/>
</g>
<!-- Product -->
<g id="node5" class="node">
<title>Product</title>
<path fill="none" stroke="#000000" d="M249,-695.5C249,-695.5 472.7246,-695.5 472.7246,-695.5 478.7246,-695.5 484.7246,-701.5 484.7246,-707.5 484.7246,-707.5 484.7246,-867.5 484.7246,-867.5 484.7246,-873.5 478.7246,-879.5 472.7246,-879.5 472.7246,-879.5 249,-879.5 249,-879.5 243,-879.5 237,-873.5 237,-867.5 237,-867.5 237,-707.5 237,-707.5 237,-701.5 243,-695.5 249,-695.5"/>
<text text-anchor="middle" x="360.8623" y="-864.3" font-family="Times,serif" font-size="14.00" fill="#000000">Product</text>
<polyline fill="none" stroke="#000000" points="237,-857.5 484.7246,-857.5 "/>
<text text-anchor="start" x="245" y="-842.3" font-family="Times,serif" font-size="14.00" fill="#000000">updated_at :timestamp without time zone</text>
<text text-anchor="start" x="245" y="-828.3" font-family="Times,serif" font-size="14.00" fill="#000000">account_id :integer</text>
<text text-anchor="start" x="245" y="-814.3" font-family="Times,serif" font-size="14.00" fill="#000000">title :character varying</text>
<text text-anchor="start" x="245" y="-800.3" font-family="Times,serif" font-size="14.00" fill="#000000">vendor :character varying</text>
<text text-anchor="start" x="245" y="-786.3" font-family="Times,serif" font-size="14.00" fill="#000000">handle :character varying</text>
<text text-anchor="start" x="245" y="-772.3" font-family="Times,serif" font-size="14.00" fill="#000000">product_type :integer</text>
<text text-anchor="start" x="245" y="-758.3" font-family="Times,serif" font-size="14.00" fill="#000000">status :integer</text>
<text text-anchor="start" x="245" y="-744.3" font-family="Times,serif" font-size="14.00" fill="#000000">product_status :integer</text>
<text text-anchor="start" x="245" y="-730.3" font-family="Times,serif" font-size="14.00" fill="#000000">created_by_id :integer</text>
<text text-anchor="start" x="245" y="-716.3" font-family="Times,serif" font-size="14.00" fill="#000000">created_at :timestamp without time zone</text>
<text text-anchor="start" x="245" y="-702.3" font-family="Times,serif" font-size="14.00" fill="#000000">id :bigint</text>
</g>
<!-- Account&#45;&gt;Product -->
<g id="edge5" class="edge">
<title>Account&#45;&gt;Product</title>
<path fill="none" stroke="#f382e9" d="M470.1409,-952.4361C456.5661,-931.9473 441.7339,-909.5608 427.4981,-888.0746"/>
<ellipse fill="none" stroke="#f382e9" cx="472.4355" cy="-955.8994" rx="4" ry="4"/>
<polygon fill="#f382e9" stroke="#f382e9" points="427.3882,-887.9085 425.6162,-877.0868 424.6265,-883.7404 421.8649,-879.5722 421.8649,-879.5722 421.8649,-879.5722 424.6265,-883.7404 418.1135,-882.0577 427.3882,-887.9085 427.3882,-887.9085"/>
</g>
<!-- Invoice -->
<g id="node9" class="node">
<title>Invoice</title>
<path fill="none" stroke="#000000" d="M410,-277.5C410,-277.5 633.7246,-277.5 633.7246,-277.5 639.7246,-277.5 645.7246,-283.5 645.7246,-289.5 645.7246,-289.5 645.7246,-617.5 645.7246,-617.5 645.7246,-623.5 639.7246,-629.5 633.7246,-629.5 633.7246,-629.5 410,-629.5 410,-629.5 404,-629.5 398,-623.5 398,-617.5 398,-617.5 398,-289.5 398,-289.5 398,-283.5 404,-277.5 410,-277.5"/>
<text text-anchor="middle" x="521.8623" y="-614.3" font-family="Times,serif" font-size="14.00" fill="#000000">Invoice</text>
<polyline fill="none" stroke="#000000" points="398,-607.5 645.7246,-607.5 "/>
<text text-anchor="start" x="406" y="-592.3" font-family="Times,serif" font-size="14.00" fill="#000000">updated_at :timestamp without time zone</text>
<text text-anchor="start" x="406" y="-578.3" font-family="Times,serif" font-size="14.00" fill="#000000">account_id :integer</text>
<text text-anchor="start" x="406" y="-564.3" font-family="Times,serif" font-size="14.00" fill="#000000">customer_id :integer</text>
<text text-anchor="start" x="406" y="-550.3" font-family="Times,serif" font-size="14.00" fill="#000000">user_id :integer</text>
<text text-anchor="start" x="406" y="-536.3" font-family="Times,serif" font-size="14.00" fill="#000000">invoice_number :integer</text>
<text text-anchor="start" x="406" y="-522.3" font-family="Times,serif" font-size="14.00" fill="#000000">note :character varying</text>
<text text-anchor="start" x="406" y="-508.3" font-family="Times,serif" font-size="14.00" fill="#000000">total_line_items_price :numeric</text>
<text text-anchor="start" x="406" y="-494.3" font-family="Times,serif" font-size="14.00" fill="#000000">total_discounts :numeric</text>
<text text-anchor="start" x="406" y="-480.3" font-family="Times,serif" font-size="14.00" fill="#000000">subtotal :numeric</text>
<text text-anchor="start" x="406" y="-466.3" font-family="Times,serif" font-size="14.00" fill="#000000">total_price :numeric</text>
<text text-anchor="start" x="406" y="-452.3" font-family="Times,serif" font-size="14.00" fill="#000000">total_tax :numeric</text>
<text text-anchor="start" x="406" y="-438.3" font-family="Times,serif" font-size="14.00" fill="#000000">total_weight :numeric</text>
<text text-anchor="start" x="406" y="-424.3" font-family="Times,serif" font-size="14.00" fill="#000000">first_name :character varying</text>
<text text-anchor="start" x="406" y="-410.3" font-family="Times,serif" font-size="14.00" fill="#000000">middle_name :character varying</text>
<text text-anchor="start" x="406" y="-396.3" font-family="Times,serif" font-size="14.00" fill="#000000">last_name :character varying</text>
<text text-anchor="start" x="406" y="-382.3" font-family="Times,serif" font-size="14.00" fill="#000000">email :character varying</text>
<text text-anchor="start" x="406" y="-368.3" font-family="Times,serif" font-size="14.00" fill="#000000">contact_number :character varying</text>
<text text-anchor="start" x="406" y="-354.3" font-family="Times,serif" font-size="14.00" fill="#000000">suffix :character varying</text>
<text text-anchor="start" x="406" y="-340.3" font-family="Times,serif" font-size="14.00" fill="#000000">fulfillment_status :integer</text>
<text text-anchor="start" x="406" y="-326.3" font-family="Times,serif" font-size="14.00" fill="#000000">invoice_status :integer</text>
<text text-anchor="start" x="406" y="-312.3" font-family="Times,serif" font-size="14.00" fill="#000000">status :integer</text>
<text text-anchor="start" x="406" y="-298.3" font-family="Times,serif" font-size="14.00" fill="#000000">created_at :timestamp without time zone</text>
<text text-anchor="start" x="406" y="-284.3" font-family="Times,serif" font-size="14.00" fill="#000000">id :bigint</text>
</g>
<!-- Account&#45;&gt;Invoice -->
<g id="edge6" class="edge">
<title>Account&#45;&gt;Invoice</title>
<path fill="none" stroke="#910150" d="M521.8623,-951.39C521.8623,-871.517 521.8623,-745.2325 521.8623,-639.8367"/>
<ellipse fill="none" stroke="#910150" cx="521.8624" cy="-955.4594" rx="4" ry="4"/>
<polygon fill="#910150" stroke="#910150" points="521.8624,-639.7046 526.3623,-629.7045 521.8624,-634.7046 521.8623,-629.7046 521.8623,-629.7046 521.8623,-629.7046 521.8624,-634.7046 517.3623,-629.7046 521.8624,-639.7046 521.8624,-639.7046"/>
</g>
<!-- User -->
<g id="node14" class="node">
<title>User</title>
<path fill="none" stroke="#000000" d="M980,-667.5C980,-667.5 1203.7246,-667.5 1203.7246,-667.5 1209.7246,-667.5 1215.7246,-673.5 1215.7246,-679.5 1215.7246,-679.5 1215.7246,-895.5 1215.7246,-895.5 1215.7246,-901.5 1209.7246,-907.5 1203.7246,-907.5 1203.7246,-907.5 980,-907.5 980,-907.5 974,-907.5 968,-901.5 968,-895.5 968,-895.5 968,-679.5 968,-679.5 968,-673.5 974,-667.5 980,-667.5"/>
<text text-anchor="middle" x="1091.8623" y="-892.3" font-family="Times,serif" font-size="14.00" fill="#000000">User</text>
<polyline fill="none" stroke="#000000" points="968,-885.5 1215.7246,-885.5 "/>
<text text-anchor="start" x="976" y="-870.3" font-family="Times,serif" font-size="14.00" fill="#000000">updated_at :timestamp without time zone</text>
<text text-anchor="start" x="976" y="-856.3" font-family="Times,serif" font-size="14.00" fill="#000000">account_id :integer</text>
<text text-anchor="start" x="976" y="-842.3" font-family="Times,serif" font-size="14.00" fill="#000000">email :character varying</text>
<text text-anchor="start" x="976" y="-828.3" font-family="Times,serif" font-size="14.00" fill="#000000">first_name :character varying</text>
<text text-anchor="start" x="976" y="-814.3" font-family="Times,serif" font-size="14.00" fill="#000000">middle_name :character varying</text>
<text text-anchor="start" x="976" y="-800.3" font-family="Times,serif" font-size="14.00" fill="#000000">last_name :character varying</text>
<text text-anchor="start" x="976" y="-786.3" font-family="Times,serif" font-size="14.00" fill="#000000">suffix :character varying</text>
<text text-anchor="start" x="976" y="-772.3" font-family="Times,serif" font-size="14.00" fill="#000000">title :character varying</text>
<text text-anchor="start" x="976" y="-758.3" font-family="Times,serif" font-size="14.00" fill="#000000">password_digest :character varying</text>
<text text-anchor="start" x="976" y="-744.3" font-family="Times,serif" font-size="14.00" fill="#000000">user_type :integer</text>
<text text-anchor="start" x="976" y="-730.3" font-family="Times,serif" font-size="14.00" fill="#000000">user_status :integer</text>
<text text-anchor="start" x="976" y="-716.3" font-family="Times,serif" font-size="14.00" fill="#000000">token :character varying</text>
<text text-anchor="start" x="976" y="-702.3" font-family="Times,serif" font-size="14.00" fill="#000000">status :integer</text>
<text text-anchor="start" x="976" y="-688.3" font-family="Times,serif" font-size="14.00" fill="#000000">created_at :timestamp without time zone</text>
<text text-anchor="start" x="976" y="-674.3" font-family="Times,serif" font-size="14.00" fill="#000000">id :bigint</text>
</g>
<!-- Account&#45;&gt;User -->
<g id="edge4" class="edge">
<title>Account&#45;&gt;User</title>
<path fill="none" stroke="#0f9707" d="M653.565,-988.2243C717.8367,-966.3606 795.7862,-937.9994 863.8623,-908 895.0918,-894.2379 927.938,-877.988 958.6693,-861.9518"/>
<ellipse fill="none" stroke="#0f9707" cx="649.5846" cy="-989.5737" rx="4" ry="4"/>
<polygon fill="#0f9707" stroke="#0f9707" points="958.8492,-861.8575 969.7951,-861.1967 963.2769,-859.5346 967.7046,-857.2118 967.7046,-857.2118 967.7046,-857.2118 963.2769,-859.5346 965.614,-853.2268 958.8492,-861.8575 958.8492,-861.8575"/>
</g>
<!-- Transaction -->
<g id="node8" class="node">
<title>Transaction</title>
<path fill="none" stroke="#000000" d="M686,-35.5C686,-35.5 909.7246,-35.5 909.7246,-35.5 915.7246,-35.5 921.7246,-41.5 921.7246,-47.5 921.7246,-47.5 921.7246,-179.5 921.7246,-179.5 921.7246,-185.5 915.7246,-191.5 909.7246,-191.5 909.7246,-191.5 686,-191.5 686,-191.5 680,-191.5 674,-185.5 674,-179.5 674,-179.5 674,-47.5 674,-47.5 674,-41.5 680,-35.5 686,-35.5"/>
<text text-anchor="middle" x="797.8623" y="-176.3" font-family="Times,serif" font-size="14.00" fill="#000000">Transaction</text>
<polyline fill="none" stroke="#000000" points="674,-169.5 921.7246,-169.5 "/>
<text text-anchor="start" x="682" y="-154.3" font-family="Times,serif" font-size="14.00" fill="#000000">updated_at :timestamp without time zone</text>
<text text-anchor="start" x="682" y="-140.3" font-family="Times,serif" font-size="14.00" fill="#000000">invoice_id :integer</text>
<text text-anchor="start" x="682" y="-126.3" font-family="Times,serif" font-size="14.00" fill="#000000">customer_id :integer</text>
<text text-anchor="start" x="682" y="-112.3" font-family="Times,serif" font-size="14.00" fill="#000000">amount :numeric</text>
<text text-anchor="start" x="682" y="-98.3" font-family="Times,serif" font-size="14.00" fill="#000000">transaction_type :integer</text>
<text text-anchor="start" x="682" y="-84.3" font-family="Times,serif" font-size="14.00" fill="#000000">transaction_status :integer</text>
<text text-anchor="start" x="682" y="-70.3" font-family="Times,serif" font-size="14.00" fill="#000000">status :integer</text>
<text text-anchor="start" x="682" y="-56.3" font-family="Times,serif" font-size="14.00" fill="#000000">created_at :timestamp without time zone</text>
<text text-anchor="start" x="682" y="-42.3" font-family="Times,serif" font-size="14.00" fill="#000000">id :bigint</text>
</g>
<!-- Customer&#45;&gt;Transaction -->
<g id="edge11" class="edge">
<title>Customer&#45;&gt;Transaction</title>
<path fill="none" stroke="#a3a660" d="M861.3149,-705.9652C885.4196,-684.4196 907.2544,-658.9556 920.8623,-630 954.227,-559.0048 945.7232,-351.4007 920.8623,-277 911.6985,-249.5757 895.926,-223.0606 878.6741,-199.6493"/>
<ellipse fill="none" stroke="#a3a660" cx="858.1538" cy="-708.7267" rx="4" ry="4"/>
<polygon fill="#a3a660" stroke="#a3a660" points="878.5466,-199.4805 876.1092,-188.7889 875.5326,-195.491 872.5186,-191.5015 872.5186,-191.5015 872.5186,-191.5015 875.5326,-195.491 868.9281,-194.2141 878.5466,-199.4805 878.5466,-199.4805"/>
</g>
<!-- Customer&#45;&gt;Invoice -->
<g id="edge10" class="edge">
<title>Customer&#45;&gt;Invoice</title>
<path fill="none" stroke="#4a4a80" d="M655.8313,-667.594C649.847,-658.0306 643.7223,-648.2428 637.5449,-638.3707"/>
<ellipse fill="none" stroke="#4a4a80" cx="657.9826" cy="-671.032" rx="4" ry="4"/>
<polygon fill="#4a4a80" stroke="#4a4a80" points="637.4095,-638.1543 635.9196,-627.29 634.7572,-633.9157 632.1049,-629.6771 632.1049,-629.6771 632.1049,-629.6771 634.7572,-633.9157 628.2902,-632.0642 637.4095,-638.1543 637.4095,-638.1543"/>
</g>
<!-- Address -->
<g id="node13" class="node">
<title>Address</title>
<path fill="none" stroke="#000000" d="M676,-298.5C676,-298.5 899.7246,-298.5 899.7246,-298.5 905.7246,-298.5 911.7246,-304.5 911.7246,-310.5 911.7246,-310.5 911.7246,-596.5 911.7246,-596.5 911.7246,-602.5 905.7246,-608.5 899.7246,-608.5 899.7246,-608.5 676,-608.5 676,-608.5 670,-608.5 664,-602.5 664,-596.5 664,-596.5 664,-310.5 664,-310.5 664,-304.5 670,-298.5 676,-298.5"/>
<text text-anchor="middle" x="787.8623" y="-593.3" font-family="Times,serif" font-size="14.00" fill="#000000">Address</text>
<polyline fill="none" stroke="#000000" points="664,-586.5 911.7246,-586.5 "/>
<text text-anchor="start" x="672" y="-571.3" font-family="Times,serif" font-size="14.00" fill="#000000">updated_at :timestamp without time zone</text>
<text text-anchor="start" x="672" y="-557.3" font-family="Times,serif" font-size="14.00" fill="#000000">customer_id :integer</text>
<text text-anchor="start" x="672" y="-543.3" font-family="Times,serif" font-size="14.00" fill="#000000">address1 :character varying</text>
<text text-anchor="start" x="672" y="-529.3" font-family="Times,serif" font-size="14.00" fill="#000000">address2 :character varying</text>
<text text-anchor="start" x="672" y="-515.3" font-family="Times,serif" font-size="14.00" fill="#000000">city :character varying</text>
<text text-anchor="start" x="672" y="-501.3" font-family="Times,serif" font-size="14.00" fill="#000000">country_name :character varying</text>
<text text-anchor="start" x="672" y="-487.3" font-family="Times,serif" font-size="14.00" fill="#000000">country_code :character varying</text>
<text text-anchor="start" x="672" y="-473.3" font-family="Times,serif" font-size="14.00" fill="#000000">company :character varying</text>
<text text-anchor="start" x="672" y="-459.3" font-family="Times,serif" font-size="14.00" fill="#000000">first_name :character varying</text>
<text text-anchor="start" x="672" y="-445.3" font-family="Times,serif" font-size="14.00" fill="#000000">last_name :character varying</text>
<text text-anchor="start" x="672" y="-431.3" font-family="Times,serif" font-size="14.00" fill="#000000">middle_name :character varying</text>
<text text-anchor="start" x="672" y="-417.3" font-family="Times,serif" font-size="14.00" fill="#000000">suffix :character varying</text>
<text text-anchor="start" x="672" y="-403.3" font-family="Times,serif" font-size="14.00" fill="#000000">phone :character varying</text>
<text text-anchor="start" x="672" y="-389.3" font-family="Times,serif" font-size="14.00" fill="#000000">province :character varying</text>
<text text-anchor="start" x="672" y="-375.3" font-family="Times,serif" font-size="14.00" fill="#000000">zip :character varying</text>
<text text-anchor="start" x="672" y="-361.3" font-family="Times,serif" font-size="14.00" fill="#000000">default :boolean</text>
<text text-anchor="start" x="672" y="-347.3" font-family="Times,serif" font-size="14.00" fill="#000000">address_status :integer</text>
<text text-anchor="start" x="672" y="-333.3" font-family="Times,serif" font-size="14.00" fill="#000000">status :integer</text>
<text text-anchor="start" x="672" y="-319.3" font-family="Times,serif" font-size="14.00" fill="#000000">created_at :timestamp without time zone</text>
<text text-anchor="start" x="672" y="-305.3" font-family="Times,serif" font-size="14.00" fill="#000000">id :bigint</text>
</g>
<!-- Customer&#45;&gt;Address -->
<g id="edge9" class="edge">
<title>Customer&#45;&gt;Address</title>
<path fill="none" stroke="#b33f56" d="M751.5262,-666.4166C754.1844,-650.8405 756.9412,-634.6866 759.6939,-618.5569"/>
<ellipse fill="none" stroke="#b33f56" cx="750.8329" cy="-670.4798" rx="4" ry="4"/>
<polygon fill="#b33f56" stroke="#b33f56" points="759.7241,-618.3798 765.8423,-609.2794 760.5652,-613.4511 761.4064,-608.5223 761.4064,-608.5223 761.4064,-608.5223 760.5652,-613.4511 756.9705,-607.7653 759.7241,-618.3798 759.7241,-618.3798"/>
</g>
<!-- Product&#45;&gt;Variant -->
<g id="edge12" class="edge">
<title>Product&#45;&gt;Variant</title>
<path fill="none" stroke="#97ee21" d="M307.0965,-688.2858C287.9345,-652.9261 266.1262,-612.6831 246.0436,-575.6246"/>
<ellipse fill="none" stroke="#97ee21" cx="309.0183" cy="-691.8321" rx="4" ry="4"/>
<polygon fill="#97ee21" stroke="#97ee21" points="246.0137,-575.5694 245.2055,-564.6333 243.6314,-571.1734 241.2491,-566.7774 241.2491,-566.7774 241.2491,-566.7774 243.6314,-571.1734 237.2927,-568.9214 246.0137,-575.5694 246.0137,-575.5694"/>
</g>
<!-- Product&#45;&gt;InvoiceLine -->
<g id="edge13" class="edge">
<title>Product&#45;&gt;InvoiceLine</title>
<path fill="none" stroke="#f810d0" d="M365.1839,-687.0598C370.4412,-564.873 379.3001,-358.9802 384.8511,-229.9662"/>
<ellipse fill="none" stroke="#f810d0" cx="365.0058" cy="-691.2001" rx="4" ry="4"/>
<polygon fill="#f810d0" stroke="#f810d0" points="384.8648,-229.6477 389.7906,-219.8504 385.0797,-224.6523 385.2947,-219.6569 385.2947,-219.6569 385.2947,-219.6569 385.0797,-224.6523 380.7989,-219.4634 384.8648,-229.6477 384.8648,-229.6477"/>
</g>
<!-- Product&#45;&gt;ProductComponent -->
<g id="edge14" class="edge">
<title>Product&#45;&gt;ProductComponent</title>
<path fill="none" stroke="#724fc7" d="M362.2196,-685.0171C361.0722,-580.4588 352.205,-414.4918 312.8623,-277 308.4879,-261.7126 308.3329,-256.012 296.8623,-245 282.7991,-231.4991 273.331,-237.4322 256.8623,-227 256.7701,-226.9416 256.678,-226.8832 256.5858,-226.8247"/>
<polygon fill="#724fc7" stroke="#724fc7" points="362.2216,-685.2551 357.8096,-695.2942 362.2655,-690.2549 362.3094,-695.2547 362.3094,-695.2547 362.3094,-695.2547 362.2655,-690.2549 366.8093,-695.2152 362.2216,-685.2551 362.2216,-685.2551"/>
<polygon fill="#724fc7" stroke="#724fc7" points="256.3825,-226.6918 250.4729,-217.4545 252.1969,-223.9567 248.0113,-221.2215 248.0113,-221.2215 248.0113,-221.2215 252.1969,-223.9567 245.5496,-224.9885 256.3825,-226.6918 256.3825,-226.6918"/>
</g>
<!-- Role -->
<g id="node7" class="node">
<title>Role</title>
<path fill="none" stroke="#000000" d="M1085,-945.5C1085,-945.5 1308.7246,-945.5 1308.7246,-945.5 1314.7246,-945.5 1320.7246,-951.5 1320.7246,-957.5 1320.7246,-957.5 1320.7246,-1103.5 1320.7246,-1103.5 1320.7246,-1109.5 1314.7246,-1115.5 1308.7246,-1115.5 1308.7246,-1115.5 1085,-1115.5 1085,-1115.5 1079,-1115.5 1073,-1109.5 1073,-1103.5 1073,-1103.5 1073,-957.5 1073,-957.5 1073,-951.5 1079,-945.5 1085,-945.5"/>
<text text-anchor="middle" x="1196.8623" y="-1100.3" font-family="Times,serif" font-size="14.00" fill="#000000">Role</text>
<polyline fill="none" stroke="#000000" points="1073,-1093.5 1320.7246,-1093.5 "/>
<text text-anchor="start" x="1081" y="-1078.3" font-family="Times,serif" font-size="14.00" fill="#000000">updated_at :timestamp without time zone</text>
<text text-anchor="start" x="1081" y="-1064.3" font-family="Times,serif" font-size="14.00" fill="#000000">name :character varying</text>
<text text-anchor="start" x="1081" y="-1050.3" font-family="Times,serif" font-size="14.00" fill="#000000">description :character varying</text>
<text text-anchor="start" x="1081" y="-1036.3" font-family="Times,serif" font-size="14.00" fill="#000000">level :integer</text>
<text text-anchor="start" x="1081" y="-1022.3" font-family="Times,serif" font-size="14.00" fill="#000000">role_type :integer</text>
<text text-anchor="start" x="1081" y="-1008.3" font-family="Times,serif" font-size="14.00" fill="#000000">role_status :integer</text>
<text text-anchor="start" x="1081" y="-994.3" font-family="Times,serif" font-size="14.00" fill="#000000">code :character varying</text>
<text text-anchor="start" x="1081" y="-980.3" font-family="Times,serif" font-size="14.00" fill="#000000">status :integer</text>
<text text-anchor="start" x="1081" y="-966.3" font-family="Times,serif" font-size="14.00" fill="#000000">created_at :timestamp without time zone</text>
<text text-anchor="start" x="1081" y="-952.3" font-family="Times,serif" font-size="14.00" fill="#000000">id :bigint</text>
</g>
<!-- Role&#45;&gt;User -->
<g id="edge16" class="edge">
<title>Role&#45;&gt;User</title>
<path fill="none" stroke="#696e45" d="M1156.0071,-935.9494C1153.3065,-929.6995 1150.5626,-923.3494 1147.8061,-916.9698"/>
<polygon fill="#696e45" stroke="#696e45" points="1156.0243,-935.9893 1155.86,-946.9539 1158.0076,-940.5791 1159.9909,-945.169 1159.9909,-945.169 1159.9909,-945.169 1158.0076,-940.5791 1164.1217,-943.384 1156.0243,-935.9893 1156.0243,-935.9893"/>
<polygon fill="#696e45" stroke="#696e45" points="1147.7284,-916.79 1147.8927,-905.8253 1145.7451,-912.2001 1143.7618,-907.6103 1143.7618,-907.6103 1143.7618,-907.6103 1145.7451,-912.2001 1139.6309,-909.3952 1147.7284,-916.79 1147.7284,-916.79"/>
</g>
<!-- UserRole -->
<g id="node15" class="node">
<title>UserRole</title>
<path fill="none" stroke="#000000" d="M1246,-396.5C1246,-396.5 1469.7246,-396.5 1469.7246,-396.5 1475.7246,-396.5 1481.7246,-402.5 1481.7246,-408.5 1481.7246,-408.5 1481.7246,-498.5 1481.7246,-498.5 1481.7246,-504.5 1475.7246,-510.5 1469.7246,-510.5 1469.7246,-510.5 1246,-510.5 1246,-510.5 1240,-510.5 1234,-504.5 1234,-498.5 1234,-498.5 1234,-408.5 1234,-408.5 1234,-402.5 1240,-396.5 1246,-396.5"/>
<text text-anchor="middle" x="1357.8623" y="-495.3" font-family="Times,serif" font-size="14.00" fill="#000000">UserRole</text>
<polyline fill="none" stroke="#000000" points="1234,-488.5 1481.7246,-488.5 "/>
<text text-anchor="start" x="1242" y="-473.3" font-family="Times,serif" font-size="14.00" fill="#000000">id :bigint</text>
<text text-anchor="start" x="1242" y="-459.3" font-family="Times,serif" font-size="14.00" fill="#000000">role_id :integer</text>
<text text-anchor="start" x="1242" y="-445.3" font-family="Times,serif" font-size="14.00" fill="#000000">user_id :integer</text>
<text text-anchor="start" x="1242" y="-431.3" font-family="Times,serif" font-size="14.00" fill="#000000">status :integer</text>
<text text-anchor="start" x="1242" y="-417.3" font-family="Times,serif" font-size="14.00" fill="#000000">created_at :timestamp without time zone</text>
<text text-anchor="start" x="1242" y="-403.3" font-family="Times,serif" font-size="14.00" fill="#000000">updated_at :timestamp without time zone</text>
</g>
<!-- Role&#45;&gt;UserRole -->
<g id="edge15" class="edge">
<title>Role&#45;&gt;UserRole</title>
<path fill="none" stroke="#de6c75" d="M1222.7995,-937.5451C1255.3965,-820.7223 1310.5429,-623.0856 1339.2458,-520.2186"/>
<ellipse fill="none" stroke="#de6c75" cx="1221.6935" cy="-941.5088" rx="4" ry="4"/>
<polygon fill="#de6c75" stroke="#de6c75" points="1339.2517,-520.1975 1346.2738,-511.7749 1340.5955,-515.3815 1341.9394,-510.5655 1341.9394,-510.5655 1341.9394,-510.5655 1340.5955,-515.3815 1337.6049,-509.356 1339.2517,-520.1975 1339.2517,-520.1975"/>
</g>
<!-- Invoice&#45;&gt;InvoiceLine -->
<g id="edge17" class="edge">
<title>Invoice&#45;&gt;InvoiceLine</title>
<path fill="none" stroke="#1febc5" d="M450.326,-269.2398C445.0386,-255.6209 439.799,-242.1249 434.7441,-229.1047"/>
<ellipse fill="none" stroke="#1febc5" cx="451.9015" cy="-273.2979" rx="4" ry="4"/>
<polygon fill="#1febc5" stroke="#1febc5" points="434.7173,-229.0353 435.293,-218.0846 432.9076,-224.3743 431.098,-219.7132 431.098,-219.7132 431.098,-219.7132 432.9076,-224.3743 426.9031,-221.3419 434.7173,-229.0353 434.7173,-229.0353"/>
</g>
<!-- Invoice&#45;&gt;Transaction -->
<g id="edge18" class="edge">
<title>Invoice&#45;&gt;Transaction</title>
<path fill="none" stroke="#83897d" d="M650.8818,-281.9176C652.2123,-280.2683 653.5394,-278.6287 654.8623,-277 675.7631,-251.2692 699.1714,-223.9308 720.9006,-199.1229"/>
<ellipse fill="none" stroke="#83897d" cx="648.2397" cy="-285.2068" rx="4" ry="4"/>
<polygon fill="#83897d" stroke="#83897d" points="720.9874,-199.024 730.9671,-194.4788 724.2865,-195.2668 727.5856,-191.5097 727.5856,-191.5097 727.5856,-191.5097 724.2865,-195.2668 724.2042,-188.5405 720.9874,-199.024 720.9874,-199.024"/>
</g>
<!-- AccessKey -->
<g id="node10" class="node">
<title>AccessKey</title>
<path fill="none" stroke="#000000" d="M980,-382.5C980,-382.5 1203.7246,-382.5 1203.7246,-382.5 1209.7246,-382.5 1215.7246,-388.5 1215.7246,-394.5 1215.7246,-394.5 1215.7246,-512.5 1215.7246,-512.5 1215.7246,-518.5 1209.7246,-524.5 1203.7246,-524.5 1203.7246,-524.5 980,-524.5 980,-524.5 974,-524.5 968,-518.5 968,-512.5 968,-512.5 968,-394.5 968,-394.5 968,-388.5 974,-382.5 980,-382.5"/>
<text text-anchor="middle" x="1091.8623" y="-509.3" font-family="Times,serif" font-size="14.00" fill="#000000">AccessKey</text>
<polyline fill="none" stroke="#000000" points="968,-502.5 1215.7246,-502.5 "/>
<text text-anchor="start" x="976" y="-487.3" font-family="Times,serif" font-size="14.00" fill="#000000">updated_at :timestamp without time zone</text>
<text text-anchor="start" x="976" y="-473.3" font-family="Times,serif" font-size="14.00" fill="#000000">user_id :bigint</text>
<text text-anchor="start" x="976" y="-459.3" font-family="Times,serif" font-size="14.00" fill="#000000">token :character varying</text>
<text text-anchor="start" x="976" y="-445.3" font-family="Times,serif" font-size="14.00" fill="#000000">auth_token :character varying</text>
<text text-anchor="start" x="976" y="-431.3" font-family="Times,serif" font-size="14.00" fill="#000000">access_key_status :integer</text>
<text text-anchor="start" x="976" y="-417.3" font-family="Times,serif" font-size="14.00" fill="#000000">status :integer</text>
<text text-anchor="start" x="976" y="-403.3" font-family="Times,serif" font-size="14.00" fill="#000000">created_at :timestamp without time zone</text>
<text text-anchor="start" x="976" y="-389.3" font-family="Times,serif" font-size="14.00" fill="#000000">id :bigint</text>
</g>
<!-- ApplicationRecord -->
<g id="node12" class="node">
<title>ApplicationRecord</title>
<ellipse fill="none" stroke="#000000" cx="1415.8623" cy="-1030.5" rx="77.2916" ry="18"/>
<text text-anchor="middle" x="1415.8623" y="-1026.3" font-family="Times,serif" font-size="14.00" fill="#000000">ApplicationRecord</text>
</g>
<!-- User&#45;&gt;Invoice -->
<g id="edge20" class="edge">
<title>User&#45;&gt;Invoice</title>
<path fill="none" stroke="#3c5058" d="M960.4041,-709.1768C929.5429,-693.3075 896.2045,-678.1035 863.8623,-667 774.6406,-636.369 735.2775,-679.3169 654.8623,-630 654.7703,-629.9436 654.6784,-629.8871 654.5865,-629.8305"/>
<ellipse fill="none" stroke="#3c5058" cx="964.2268" cy="-711.1615" rx="4" ry="4"/>
<polygon fill="#3c5058" stroke="#3c5058" points="654.5288,-629.7928 648.6229,-620.5531 650.3443,-627.056 646.1598,-624.3192 646.1598,-624.3192 646.1598,-624.3192 650.3443,-627.056 643.6966,-628.0852 654.5288,-629.7928 654.5288,-629.7928"/>
</g>
<!-- User&#45;&gt;AccessKey -->
<g id="edge21" class="edge">
<title>User&#45;&gt;AccessKey</title>
<path fill="none" stroke="#e4ce45" d="M1091.8623,-659.2042C1091.8623,-617.4221 1091.8623,-572.2195 1091.8623,-534.8578"/>
<ellipse fill="none" stroke="#e4ce45" cx="1091.8624" cy="-663.3902" rx="4" ry="4"/>
<polygon fill="#e4ce45" stroke="#e4ce45" points="1091.8624,-534.5372 1096.3623,-524.5371 1091.8624,-529.5372 1091.8623,-524.5372 1091.8623,-524.5372 1091.8623,-524.5372 1091.8624,-529.5372 1087.3623,-524.5372 1091.8624,-534.5372 1091.8624,-534.5372"/>
</g>
<!-- User&#45;&gt;UserRole -->
<g id="edge19" class="edge">
<title>User&#45;&gt;UserRole</title>
<path fill="none" stroke="#4b4f86" d="M1199.8902,-660.8003C1208.409,-650.4369 1216.8209,-640.0771 1224.8623,-630 1253.7634,-593.7825 1284.9946,-552.4573 1309.9258,-518.9033"/>
<ellipse fill="none" stroke="#4b4f86" cx="1197.1184" cy="-664.1639" rx="4" ry="4"/>
<polygon fill="#4b4f86" stroke="#4b4f86" points="1310.1658,-518.5797 1319.7376,-513.2288 1313.1445,-514.5638 1316.1233,-510.5479 1316.1233,-510.5479 1316.1233,-510.5479 1313.1445,-514.5638 1312.509,-507.8671 1310.1658,-518.5797 1310.1658,-518.5797"/>
</g>
</g>
</svg>
