<?xml version="1.0" encoding="UTF-8" standalone="no"?>
<!DOCTYPE svg PUBLIC "-//W3C//DTD SVG 1.1//EN"
 "http://www.w3.org/Graphics/SVG/1.1/DTD/svg11.dtd">
<!-- Generated by graphviz version 2.40.1 (20161225.0304)
 -->
<!-- Title: models_diagram Pages: 1 -->
<svg width="501pt" height="297pt"
 viewBox="0.00 0.00 500.66 297.00" xmlns="http://www.w3.org/2000/svg" xmlns:xlink="http://www.w3.org/1999/xlink">
<g id="graph0" class="graph" transform="scale(1 1) rotate(0) translate(4 293)">
<title>models_diagram</title>
<polygon fill="transparent" stroke="transparent" points="-4,4 -4,-293 496.6648,-293 496.6648,4 -4,4"/>
<!-- _diagram_info -->
<g id="node1" class="node">
<title>_diagram_info</title>
<text text-anchor="start" x="8" y="-274.6" font-family="Times,serif" font-size="13.00" fill="#000000">Models diagram</text>
<text text-anchor="start" x="8" y="-261.6" font-family="Times,serif" font-size="13.00" fill="#000000">Date: Apr 26 2018 &#45; 21:32</text>
<text text-anchor="start" x="8" y="-248.6" font-family="Times,serif" font-size="13.00" fill="#000000">Migration version: 20180420105539</text>
<text text-anchor="start" x="8" y="-235.6" font-family="Times,serif" font-size="13.00" fill="#000000">Generated by RailRoady 1.5.3</text>
<text text-anchor="start" x="8" y="-222.6" font-family="Times,serif" font-size="13.00" fill="#000000">http://railroady.prestonlee.com</text>
</g>
<!-- Variant -->
<g id="node2" class="node">
<title>Variant</title>
<ellipse fill="none" stroke="#000000" cx="443.6877" cy="-90" rx="35.7887" ry="18"/>
<text text-anchor="middle" x="443.6877" y="-85.8" font-family="Times,serif" font-size="14.00" fill="#000000">Variant</text>
</g>
<!-- OrderLine -->
<g id="node6" class="node">
<title>OrderLine</title>
<ellipse fill="none" stroke="#000000" cx="443.6877" cy="-18" rx="46.8719" ry="18"/>
<text text-anchor="middle" x="443.6877" y="-13.8" font-family="Times,serif" font-size="14.00" fill="#000000">OrderLine</text>
</g>
<!-- Variant&#45;&gt;OrderLine -->
<g id="edge1" class="edge">
<title>Variant&#45;&gt;OrderLine</title>
<path fill="none" stroke="#d80072" d="M443.6877,-63.8144C443.6877,-58.2775 443.6877,-52.4053 443.6877,-46.7785"/>
<ellipse fill="none" stroke="#d80072" cx="443.6878" cy="-67.8314" rx="4" ry="4"/>
<polygon fill="#d80072" stroke="#d80072" points="443.6878,-46.4133 448.1877,-36.4132 443.6878,-41.4133 443.6877,-36.4133 443.6877,-36.4133 443.6877,-36.4133 443.6878,-41.4133 439.1877,-36.4133 443.6878,-46.4133 443.6878,-46.4133"/>
</g>
<!-- Account -->
<g id="node3" class="node">
<title>Account</title>
<ellipse fill="none" stroke="#000000" cx="265.6877" cy="-252.5" rx="40.1317" ry="18"/>
<text text-anchor="middle" x="265.6877" y="-248.3" font-family="Times,serif" font-size="14.00" fill="#000000">Account</text>
</g>
<!-- Customer -->
<g id="node4" class="node">
<title>Customer</title>
<ellipse fill="none" stroke="#000000" cx="166.6877" cy="-162" rx="44.4923" ry="18"/>
<text text-anchor="middle" x="166.6877" y="-157.8" font-family="Times,serif" font-size="14.00" fill="#000000">Customer</text>
</g>
<!-- Account&#45;&gt;Customer -->
<g id="edge5" class="edge">
<title>Account&#45;&gt;Customer</title>
<path fill="none" stroke="#6837d7" d="M241.832,-230.6925C226.927,-217.0672 207.7364,-199.5243 192.4797,-185.5775"/>
<ellipse fill="none" stroke="#6837d7" cx="245.0362" cy="-233.6216" rx="4" ry="4"/>
<polygon fill="#6837d7" stroke="#6837d7" points="192.2844,-185.3989 187.9397,-175.3304 188.5939,-182.0254 184.9035,-178.6518 184.9035,-178.6518 184.9035,-178.6518 188.5939,-182.0254 181.8673,-181.9732 192.2844,-185.3989 192.2844,-185.3989"/>
</g>
<!-- Product -->
<g id="node5" class="node">
<title>Product</title>
<ellipse fill="none" stroke="#000000" cx="448.6877" cy="-162" rx="37.7352" ry="18"/>
<text text-anchor="middle" x="448.6877" y="-157.8" font-family="Times,serif" font-size="14.00" fill="#000000">Product</text>
</g>
<!-- Account&#45;&gt;Product -->
<g id="edge3" class="edge">
<title>Account&#45;&gt;Product</title>
<path fill="none" stroke="#de106b" d="M291.3542,-231.4515C298.6409,-226.0189 306.7565,-220.4536 314.6877,-216 323.4207,-211.0962 373.4211,-191.2899 409.7932,-177.0865"/>
<ellipse fill="none" stroke="#de106b" cx="288.1021" cy="-233.938" rx="4" ry="4"/>
<polygon fill="#de106b" stroke="#de106b" points="409.8613,-177.06 420.8129,-177.6203 414.5198,-175.2438 419.1783,-173.4276 419.1783,-173.4276 419.1783,-173.4276 414.5198,-175.2438 417.5437,-169.235 409.8613,-177.06 409.8613,-177.06"/>
</g>
<!-- Order -->
<g id="node9" class="node">
<title>Order</title>
<ellipse fill="none" stroke="#000000" cx="254.6877" cy="-90" rx="30.9619" ry="18"/>
<text text-anchor="middle" x="254.6877" y="-85.8" font-family="Times,serif" font-size="14.00" fill="#000000">Order</text>
</g>
<!-- Account&#45;&gt;Order -->
<g id="edge4" class="edge">
<title>Account&#45;&gt;Order</title>
<path fill="none" stroke="#aaa465" d="M262.3045,-226.279C260.6537,-212.5226 258.7907,-195.376 257.6877,-180 256.2149,-159.4676 255.4635,-136.2472 255.081,-118.5357"/>
<ellipse fill="none" stroke="#aaa465" cx="262.8089" cy="-230.3899" rx="4" ry="4"/>
<polygon fill="#aaa465" stroke="#aaa465" points="255.0765,-118.2912 259.3866,-108.2079 254.982,-113.2921 254.8874,-108.293 254.8874,-108.293 254.8874,-108.293 254.982,-113.2921 250.3882,-108.3781 255.0765,-118.2912 255.0765,-118.2912"/>
</g>
<!-- User -->
<g id="node12" class="node">
<title>User</title>
<ellipse fill="none" stroke="#000000" cx="293.6877" cy="-162" rx="27" ry="18"/>
<text text-anchor="middle" x="293.6877" y="-157.8" font-family="Times,serif" font-size="14.00" fill="#000000">User</text>
</g>
<!-- Account&#45;&gt;User -->
<g id="edge2" class="edge">
<title>Account&#45;&gt;User</title>
<path fill="none" stroke="#52add0" d="M273.6666,-226.7112C277.2528,-215.1202 281.4901,-201.4245 285.141,-189.6242"/>
<ellipse fill="none" stroke="#52add0" cx="272.402" cy="-230.7988" rx="4" ry="4"/>
<polygon fill="#52add0" stroke="#52add0" points="285.2116,-189.396 292.4663,-181.1728 286.6895,-184.6194 288.1673,-179.8427 288.1673,-179.8427 288.1673,-179.8427 286.6895,-184.6194 283.8684,-178.5127 285.2116,-189.396 285.2116,-189.396"/>
</g>
<!-- Transaction -->
<g id="node8" class="node">
<title>Transaction</title>
<ellipse fill="none" stroke="#000000" cx="177.6877" cy="-18" rx="51.5866" ry="18"/>
<text text-anchor="middle" x="177.6877" y="-13.8" font-family="Times,serif" font-size="14.00" fill="#000000">Transaction</text>
</g>
<!-- Customer&#45;&gt;Transaction -->
<g id="edge8" class="edge">
<title>Customer&#45;&gt;Transaction</title>
<path fill="none" stroke="#f5e144" d="M140.5072,-139.9678C131.8411,-131.0417 123.2513,-120.003 118.6877,-108 113.0017,-93.0445 112.2395,-86.6431 118.6877,-72 124.1632,-59.566 134.0718,-48.7483 144.225,-40.1279"/>
<ellipse fill="none" stroke="#f5e144" cx="143.6098" cy="-143" rx="4" ry="4"/>
<polygon fill="#f5e144" stroke="#f5e144" points="144.5029,-39.9077 155.1351,-37.2233 148.4215,-36.8021 152.3401,-33.6965 152.3401,-33.6965 152.3401,-33.6965 148.4215,-36.8021 149.5451,-30.1698 144.5029,-39.9077 144.5029,-39.9077"/>
</g>
<!-- Customer&#45;&gt;Order -->
<g id="edge7" class="edge">
<title>Customer&#45;&gt;Order</title>
<path fill="none" stroke="#a851e8" d="M192.8954,-140.5573C204.2291,-131.2843 217.4569,-120.4616 228.7592,-111.2143"/>
<ellipse fill="none" stroke="#a851e8" cx="189.7521" cy="-143.1291" rx="4" ry="4"/>
<polygon fill="#a851e8" stroke="#a851e8" points="228.8545,-111.1363 239.4437,-108.2867 232.7243,-107.9701 236.5941,-104.8039 236.5941,-104.8039 236.5941,-104.8039 232.7243,-107.9701 233.7445,-101.3211 228.8545,-111.1363 228.8545,-111.1363"/>
</g>
<!-- Address -->
<g id="node11" class="node">
<title>Address</title>
<ellipse fill="none" stroke="#000000" cx="166.6877" cy="-90" rx="39.18" ry="18"/>
<text text-anchor="middle" x="166.6877" y="-85.8" font-family="Times,serif" font-size="14.00" fill="#000000">Address</text>
</g>
<!-- Customer&#45;&gt;Address -->
<g id="edge6" class="edge">
<title>Customer&#45;&gt;Address</title>
<path fill="none" stroke="#4241fd" d="M166.6877,-135.8144C166.6877,-130.2775 166.6877,-124.4053 166.6877,-118.7785"/>
<ellipse fill="none" stroke="#4241fd" cx="166.6878" cy="-139.8314" rx="4" ry="4"/>
<polygon fill="#4241fd" stroke="#4241fd" points="166.6878,-118.4133 171.1877,-108.4132 166.6878,-113.4133 166.6877,-108.4133 166.6877,-108.4133 166.6877,-108.4133 166.6878,-113.4133 162.1877,-108.4133 166.6878,-118.4133 166.6878,-118.4133"/>
</g>
<!-- Product&#45;&gt;Variant -->
<g id="edge9" class="edge">
<title>Product&#45;&gt;Variant</title>
<path fill="none" stroke="#39a39e" d="M446.8693,-135.8144C446.4848,-130.2775 446.077,-124.4053 445.6862,-118.7785"/>
<ellipse fill="none" stroke="#39a39e" cx="447.1489" cy="-139.841" rx="4" ry="4"/>
<polygon fill="#39a39e" stroke="#39a39e" points="445.6593,-118.3892 449.4556,-108.1015 445.3129,-113.4013 444.9664,-108.4133 444.9664,-108.4133 444.9664,-108.4133 445.3129,-113.4013 440.4773,-108.7251 445.6593,-118.3892 445.6593,-118.3892"/>
</g>
<!-- Product&#45;&gt;OrderLine -->
<g id="edge10" class="edge">
<title>Product&#45;&gt;OrderLine</title>
<path fill="none" stroke="#047c0f" d="M470.4369,-139.4187C477.7108,-130.3818 484.9216,-119.4115 488.6877,-108 493.7022,-92.8061 494.1345,-87.0443 488.6877,-72 484.7437,-61.1063 477.5361,-50.8658 470.028,-42.2923"/>
<ellipse fill="none" stroke="#047c0f" cx="467.761" cy="-142.582" rx="4" ry="4"/>
<polygon fill="#047c0f" stroke="#047c0f" points="469.962,-42.2218 466.4207,-31.8435 466.5477,-38.5691 463.1333,-34.9164 463.1333,-34.9164 463.1333,-34.9164 466.5477,-38.5691 459.8458,-37.9894 469.962,-42.2218 469.962,-42.2218"/>
</g>
<!-- Role -->
<g id="node7" class="node">
<title>Role</title>
<ellipse fill="none" stroke="#000000" cx="365.6877" cy="-162" rx="27" ry="18"/>
<text text-anchor="middle" x="365.6877" y="-157.8" font-family="Times,serif" font-size="14.00" fill="#000000">Role</text>
</g>
<!-- UserRole -->
<g id="node13" class="node">
<title>UserRole</title>
<ellipse fill="none" stroke="#000000" cx="346.6877" cy="-90" rx="43.5146" ry="18"/>
<text text-anchor="middle" x="346.6877" y="-85.8" font-family="Times,serif" font-size="14.00" fill="#000000">UserRole</text>
</g>
<!-- Role&#45;&gt;UserRole -->
<g id="edge11" class="edge">
<title>Role&#45;&gt;UserRole</title>
<path fill="none" stroke="#8f6391" d="M358.9131,-136.3275C357.3344,-130.3452 355.646,-123.9472 354.0436,-117.8747"/>
<ellipse fill="none" stroke="#8f6391" cx="359.9705" cy="-140.3346" rx="4" ry="4"/>
<polygon fill="#8f6391" stroke="#8f6391" points="354.0139,-117.7621 355.8134,-106.9449 352.7381,-112.9276 351.4623,-108.0931 351.4623,-108.0931 351.4623,-108.0931 352.7381,-112.9276 347.1113,-109.2413 354.0139,-117.7621 354.0139,-117.7621"/>
</g>
<!-- Order&#45;&gt;OrderLine -->
<g id="edge12" class="edge">
<title>Order&#45;&gt;OrderLine</title>
<path fill="none" stroke="#4772f0" d="M286.3007,-75.1304C288.789,-74.0455 291.2727,-72.9898 293.6877,-72 328.4315,-57.7598 368.4763,-43.4474 398.4465,-33.1384"/>
<ellipse fill="none" stroke="#4772f0" cx="282.5386" cy="-76.8078" rx="4" ry="4"/>
<polygon fill="#4772f0" stroke="#4772f0" points="398.74,-33.0381 409.6582,-34.0596 403.4709,-31.4199 408.2018,-29.8017 408.2018,-29.8017 408.2018,-29.8017 403.4709,-31.4199 406.7455,-25.5439 398.74,-33.0381 398.74,-33.0381"/>
</g>
<!-- Order&#45;&gt;Transaction -->
<g id="edge13" class="edge">
<title>Order&#45;&gt;Transaction</title>
<path fill="none" stroke="#f1f9df" d="M232.213,-68.9847C223.1843,-60.5423 212.7244,-50.7616 203.3952,-42.0381"/>
<ellipse fill="none" stroke="#f1f9df" cx="235.4363" cy="-71.9987" rx="4" ry="4"/>
<polygon fill="#f1f9df" stroke="#f1f9df" points="203.1851,-41.8417 198.9543,-31.7248 199.5329,-38.4267 195.8808,-35.0117 195.8808,-35.0117 195.8808,-35.0117 199.5329,-38.4267 192.8073,-38.2986 203.1851,-41.8417 203.1851,-41.8417"/>
</g>
<!-- ApplicationRecord -->
<g id="node10" class="node">
<title>ApplicationRecord</title>
<ellipse fill="none" stroke="#000000" cx="400.6877" cy="-252.5" rx="77.2916" ry="18"/>
<text text-anchor="middle" x="400.6877" y="-248.3" font-family="Times,serif" font-size="14.00" fill="#000000">ApplicationRecord</text>
</g>
<!-- User&#45;&gt;Order -->
<g id="edge15" class="edge">
<title>User&#45;&gt;Order</title>
<path fill="none" stroke="#1d879d" d="M280.5093,-137.6706C276.8168,-130.8537 272.7852,-123.4108 269.0289,-116.4759"/>
<ellipse fill="none" stroke="#1d879d" cx="282.5401" cy="-141.4198" rx="4" ry="4"/>
<polygon fill="#1d879d" stroke="#1d879d" points="268.8977,-116.2336 268.0916,-105.2974 266.5162,-111.8371 264.1348,-107.4407 264.1348,-107.4407 264.1348,-107.4407 266.5162,-111.8371 260.178,-109.584 268.8977,-116.2336 268.8977,-116.2336"/>
</g>
<!-- User&#45;&gt;UserRole -->
<g id="edge14" class="edge">
<title>User&#45;&gt;UserRole</title>
<path fill="none" stroke="#dbf426" d="M310.4994,-139.1615C316.0809,-131.5791 322.3273,-123.0934 328.0388,-115.3344"/>
<ellipse fill="none" stroke="#dbf426" cx="308.0856" cy="-142.4407" rx="4" ry="4"/>
<polygon fill="#dbf426" stroke="#dbf426" points="328.0415,-115.3307 337.5938,-109.945 331.0056,-111.304 333.9698,-107.2773 333.9698,-107.2773 333.9698,-107.2773 331.0056,-111.304 330.3457,-104.6096 328.0415,-115.3307 328.0415,-115.3307"/>
</g>
</g>
</svg>
